GeezHandwritingArrowsOnly.ufo
<glyph name="parenleft" format="2">
  <advance width="717"/>
  <unicode hex="0028"/>
  <outline>
    <contour>
      <point x="549" y="51" type="curve" smooth="yes"/>
      <point x="549" y="16"/>
      <point x="532" y="0"/>
      <point x="498" y="0" type="curve" smooth="yes"/>
      <point x="483" y="0"/>
      <point x="471" y="4"/>
      <point x="461" y="14" type="curve"/>
      <point x="430" y="51"/>
      <point x="400.488" y="87.3985"/>
      <point x="371" y="123" type="curve" smooth="yes"/>
      <point x="318.482" y="186.406"/>
      <point x="281.99" y="247.997"/>
      <point x="256" y="303" type="curve" smooth="yes"/>
      <point x="195.991" y="429.997"/>
      <point x="168" y="557"/>
      <point x="168" y="684" type="curve" smooth="yes"/>
      <point x="168" y="811"/>
      <point x="195.99" y="938.003"/>
      <point x="256" y="1065" type="curve" smooth="yes"/>
      <point x="281.99" y="1120"/>
      <point x="318.577" y="1182.35"/>
      <point x="371" y="1245" type="curve" smooth="yes"/>
      <point x="400.582" y="1280.35"/>
      <point x="430" y="1317"/>
      <point x="461" y="1354" type="curve"/>
      <point x="471" y="1364"/>
      <point x="483" y="1368"/>
      <point x="498" y="1368" type="curve" smooth="yes"/>
      <point x="532" y="1368"/>
      <point x="549" y="1352"/>
      <point x="549" y="1317" type="curve" smooth="yes"/>
      <point x="549" y="1303"/>
      <point x="544.34" y="1290.71"/>
      <point x="535" y="1280" type="curve" smooth="yes"/>
      <point x="476.334" y="1212.71"/>
      <point x="441.918" y="1167.06"/>
      <point x="428" y="1149" type="curve" smooth="yes"/>
      <point x="394.917" y="1106.06"/>
      <point x="369.74" y="1065.13"/>
      <point x="350" y="1024" type="curve" smooth="yes"/>
      <point x="297.74" y="915.124"/>
      <point x="270" y="803"/>
      <point x="270" y="684" type="curve" smooth="yes"/>
      <point x="270" y="565"/>
      <point x="296.863" y="452.93"/>
      <point x="350" y="344" type="curve" smooth="yes"/>
      <point x="376.861" y="288.935"/>
      <point x="438" y="205"/>
      <point x="535" y="88" type="curve"/>
      <point x="545" y="78"/>
      <point x="549" y="66"/>
    </contour>
  </outline>
</glyph>
<glyph name="two" format="2">
  <advance width="1024"/>
  <unicode hex="0032"/>
  <outline>
    <contour>
      <point x="883" y="51" type="curve"/>
      <point x="881" y="16"/>
      <point x="862" y="0"/>
      <point x="831" y="0" type="curve" smooth="yes"/>
      <point x="193" y="0" type="line" smooth="yes"/>
      <point x="162" y="0"/>
      <point x="145" y="6"/>
      <point x="141" y="18" type="curve"/>
      <point x="121" y="41"/>
      <point x="120.048" y="67.9683"/>
      <point x="141" y="98" type="curve" smooth="yes"/>
      <point x="621" y="786" type="line"/>
      <point x="696" y="924" type="line" smooth="yes"/>
      <point x="714.599" y="958.222"/>
      <point x="723" y="993"/>
      <point x="723" y="1026" type="curve" smooth="yes"/>
      <point x="723" y="1151"/>
      <point x="631.005" y="1229"/>
      <point x="502" y="1229" type="curve" smooth="yes"/>
      <point x="433.997" y="1229"/>
      <point x="379.809" y="1213.23"/>
      <point x="342" y="1182" type="curve" smooth="yes"/>
      <point x="310.808" y="1156.23"/>
      <point x="281" y="1110"/>
      <point x="252" y="1044" type="curve"/>
      <point x="238" y="1030"/>
      <point x="223" y="1022"/>
      <point x="207" y="1022" type="curve" smooth="yes"/>
      <point x="180" y="1022"/>
      <point x="156" y="1047"/>
      <point x="158" y="1073" type="curve"/>
      <point x="209" y="1235"/>
      <point x="340" y="1331"/>
      <point x="510" y="1331" type="curve" smooth="yes"/>
      <point x="598" y="1331"/>
      <point x="674.026" y="1304.03"/>
      <point x="735" y="1249" type="curve" smooth="yes"/>
      <point x="797.022" y="1193.03"/>
      <point x="827" y="1124"/>
      <point x="827" y="1038" type="curve" smooth="yes"/>
      <point x="827" y="948"/>
      <point x="796.843" y="860.112"/>
      <point x="737" y="774" type="curve" smooth="yes"/>
      <point x="270" y="102" type="line"/>
      <point x="831" y="102" type="line" smooth="yes"/>
      <point x="862" y="102"/>
      <point x="881" y="86"/>
    </contour>
  </outline>
</glyph>
<glyph name="B" format="2">
  <advance width="1229"/>
  <unicode hex="0042"/>
  <outline>
    <contour>
      <point x="1116" y="369" type="curve" smooth="yes"/>
      <point x="1116" y="280.997"/>
      <point x="1075.77" y="197.243"/>
      <point x="993" y="117" type="curve" smooth="yes"/>
      <point x="911.764" y="38.2408"/>
      <point x="825.004" y="0"/>
      <point x="737" y="0" type="curve" smooth="yes"/>
      <point x="154" y="0" type="line" smooth="yes"/>
      <point x="118.999" y="0"/>
      <point x="102" y="16"/>
      <point x="102" y="51" type="curve" smooth="yes"/>
      <point x="102" y="1280" type="line" smooth="yes"/>
      <point x="102" y="1315"/>
      <point x="119" y="1331"/>
      <point x="154" y="1331" type="curve" smooth="yes"/>
      <point x="758" y="1331" type="line" smooth="yes"/>
      <point x="862" y="1331"/>
      <point x="946.192" y="1296.17"/>
      <point x="1006" y="1227" type="curve" smooth="yes"/>
      <point x="1061.19" y="1163.17"/>
      <point x="1090" y="1083"/>
      <point x="1090" y="985" type="curve" smooth="yes"/>
      <point x="1090" y="873.996"/>
      <point x="1034" y="788"/>
      <point x="926" y="729" type="curve"/>
      <point x="1040" y="655"/>
      <point x="1116" y="508.005"/>
    </contour>
    <contour>
      <point x="987" y="985" type="curve" smooth="yes"/>
      <point x="987" y="1133.01" name=".hr01"/>
      <point x="903.002" y="1229"/>
      <point x="758" y="1229" type="curve" smooth="yes"/>
      <point x="205" y="1229" type="line"/>
      <point x="205" y="786" type="line"/>
      <point x="748" y="786" type="line" smooth="yes"/>
      <point x="807.002" y="786"/>
      <point x="859.64" y="806.48"/>
      <point x="907" y="842" type="curve" smooth="yes"/>
      <point x="959.64" y="881.48"/>
      <point x="987" y="929.998"/>
    </contour>
    <contour>
      <point x="1014" y="369" type="curve" smooth="yes"/>
      <point x="1014" y="440"/>
      <point x="987.059" y="508.045" name=".hr02"/>
      <point x="936" y="575" type="curve" smooth="yes"/>
      <point x="881.06" y="647.045" name=".hr03"/>
      <point x="819.003" y="684"/>
      <point x="752" y="684" type="curve" smooth="yes"/>
      <point x="205" y="684" type="line"/>
      <point x="205" y="102" type="line"/>
      <point x="737" y="102" type="line" smooth="yes"/>
      <point x="797" y="102"/>
      <point x="858.265" y="131.722"/>
      <point x="920" y="190" type="curve" smooth="yes"/>
      <point x="983.265" y="249.722"/>
      <point x="1014" y="309"/>
    </contour>
  </outline>
</glyph>
<glyph name="K" format="2">
  <advance width="1126"/>
  <unicode hex="004B"/>
  <outline>
    <contour>
      <point x="1059" y="20" type="curve" smooth="yes"/>
      <point x="1039.9" y="-6.9305"/>
      <point x="1012.64" y="-11.4795"/>
      <point x="987" y="8" type="curve" smooth="yes"/>
      <point x="205" y="602" type="line"/>
      <point x="205" y="51" type="line" smooth="yes"/>
      <point x="205" y="19.9988"/>
      <point x="188" y="2"/>
      <point x="154" y="0" type="curve"/>
      <point x="119" y="2"/>
      <point x="102" y="20"/>
      <point x="102" y="51" type="curve" smooth="yes"/>
      <point x="102" y="1280" type="line" smooth="yes"/>
      <point x="102" y="1311"/>
      <point x="119" y="1329"/>
      <point x="154" y="1331" type="curve"/>
      <point x="188" y="1329"/>
      <point x="205" y="1311"/>
      <point x="205" y="1280" type="curve" smooth="yes"/>
      <point x="205" y="774" type="line"/>
      <point x="922" y="1319" type="line" smooth="yes"/>
      <point x="949.232" y="1339.7"/>
      <point x="971.944" y="1336.95"/>
      <point x="993" y="1311" type="curve" smooth="yes"/>
      <point x="1014.94" y="1283.95"/>
      <point x="1011.75" y="1259.33"/>
      <point x="985" y="1239" type="curve" smooth="yes"/>
      <point x="260" y="688" type="line"/>
      <point x="1047" y="92" type="line" smooth="yes"/>
      <point x="1072.03" y="73.042"/>
      <point x="1078.9" y="48.0677"/>
    </contour>
  </outline>
</glyph>
<glyph name="O" format="2">
  <advance width="1536"/>
  <unicode hex="004F"/>
  <outline>
    <contour>
      <point x="1450" y="682" type="curve" smooth="yes"/>
      <point x="1450" y="492"/>
      <point x="1384" y="330.001"/>
      <point x="1251" y="197" type="curve" smooth="yes"/>
      <point x="1120" y="66.0015"/>
      <point x="958" y="0"/>
      <point x="768" y="0" type="curve" smooth="yes"/>
      <point x="578" y="0"/>
      <point x="415.933" y="59.925"/>
      <point x="287" y="180" type="curve" smooth="yes"/>
      <point x="153.934" y="303.924"/>
      <point x="86" y="458.996"/>
      <point x="86" y="649" type="curve" smooth="yes"/>
      <point x="86" y="839.996"/>
      <point x="151.745" y="1001.25"/>
      <point x="283" y="1133" type="curve" smooth="yes"/>
      <point x="415.751" y="1266.25"/>
      <point x="578" y="1331"/>
      <point x="768" y="1331" type="curve" smooth="yes"/>
      <point x="958" y="1331"/>
      <point x="1119.79" y="1268.78"/>
      <point x="1251" y="1149" type="curve" smooth="yes"/>
      <point x="1383.8" y="1027.77"/>
      <point x="1450" y="872"/>
    </contour>
    <contour>
      <point x="1348" y="684" type="curve" smooth="yes"/>
      <point x="1348" y="846"/>
      <point x="1291.98" y="976.964"/>
      <point x="1180" y="1077" type="curve" smooth="yes"/>
      <point x="1066.97" y="1177.97"/>
      <point x="930" y="1229"/>
      <point x="768" y="1229" type="curve" smooth="yes"/>
      <point x="606" y="1229"/>
      <point x="469" y="1172"/>
      <point x="356" y="1059" type="curve" smooth="yes"/>
      <point x="243" y="946"/>
      <point x="188" y="809"/>
      <point x="188" y="647" type="curve" smooth="yes"/>
      <point x="188" y="485"/>
      <point x="243.775" y="353.755"/>
      <point x="356" y="254" type="curve" smooth="yes"/>
      <point x="468.781" y="153.75"/>
      <point x="606" y="102"/>
      <point x="768" y="102" type="curve" smooth="yes"/>
      <point x="930" y="102"/>
      <point x="1067" y="157"/>
      <point x="1180" y="270" type="curve" smooth="yes"/>
      <point x="1293" y="383"/>
      <point x="1348" y="522"/>
    </contour>
  </outline>
</glyph>
<glyph name="S" format="2">
  <advance width="1126"/>
  <unicode hex="0053"/>
  <outline>
    <contour>
      <point x="1024" y="362" type="curve" smooth="yes"/>
      <point x="1024" y="274"/>
      <point x="989.36" y="196.657"/>
      <point x="920" y="125" type="curve" smooth="yes"/>
      <point x="838.354" y="40.651"/>
      <point x="729" y="0"/>
      <point x="594" y="0" type="curve" smooth="yes"/>
      <point x="449" y="0"/>
      <point x="290.914" y="60.8662"/>
      <point x="117" y="182" type="curve" smooth="yes"/>
      <point x="89.909" y="200.869"/>
      <point x="85.7703" y="226.149"/>
      <point x="104" y="254" type="curve" smooth="yes"/>
      <point x="121.771" y="281.15"/>
      <point x="147.911" y="284.867"/>
      <point x="176" y="266" type="curve" smooth="yes"/>
      <point x="345.914" y="151.866"/>
      <point x="485" y="94"/>
      <point x="594" y="94" type="curve" smooth="yes"/>
      <point x="653" y="94"/>
      <point x="716.861" y="114.245"/>
      <point x="786" y="154" type="curve" smooth="yes"/>
      <point x="876.861" y="206.245"/>
      <point x="922" y="275.996"/>
      <point x="922" y="362" type="curve" smooth="yes"/>
      <point x="922" y="467.004"/>
      <point x="863.865" y="552.625"/>
      <point x="739" y="600" type="curve" smooth="yes"/>
      <point x="399" y="729" type="line"/>
      <point x="279" y="793"/>
      <point x="217" y="885"/>
      <point x="217" y="1010" type="curve" smooth="yes"/>
      <point x="217" y="1087"/>
      <point x="245.853" y="1157.14"/>
      <point x="305" y="1219" type="curve" smooth="yes"/>
      <point x="376.85" y="1294.14"/>
      <point x="475" y="1331"/>
      <point x="600" y="1331" type="curve" smooth="yes"/>
      <point x="707" y="1331"/>
      <point x="814.972" y="1296.94"/>
      <point x="924" y="1229" type="curve" smooth="yes"/>
      <point x="952.968" y="1210.95"/>
      <point x="957.725" y="1186.16"/>
      <point x="942" y="1159" type="curve" smooth="yes"/>
      <point x="924.723" y="1129.16"/>
      <point x="903.113" y="1122.19"/>
      <point x="872" y="1141" type="curve" smooth="yes"/>
      <point x="774.116" y="1200.19"/>
      <point x="682" y="1229"/>
      <point x="598" y="1229" type="curve" smooth="yes"/>
      <point x="526" y="1229"/>
      <point x="461.869" y="1211.2"/>
      <point x="410" y="1176" type="curve" smooth="yes"/>
      <point x="349.866" y="1135.19"/>
      <point x="319" y="1079"/>
      <point x="319" y="1012" type="curve" smooth="yes"/>
      <point x="319" y="920"/>
      <point x="379.129" y="842.341"/>
      <point x="502" y="795" type="curve" smooth="yes"/>
      <point x="842" y="664" type="line"/>
      <point x="963" y="596"/>
      <point x="1024" y="496"/>
    </contour>
  </outline>
</glyph>
<glyph name="asciicircum" format="2">
  <advance width="1024"/>
  <unicode hex="005E"/>
  <outline>
    <contour>
      <point x="909" y="451" type="curve"/>
      <point x="913" y="432"/>
      <point x="905" y="416"/>
      <point x="887" y="401" type="curve"/>
      <point x="858" y="383"/>
      <point x="835.923" y="387.943"/>
      <point x="817" y="414" type="curve" smooth="yes"/>
      <point x="512" y="834" type="line"/>
      <point x="207" y="414" type="line" smooth="yes"/>
      <point x="188.077" y="387.943"/>
      <point x="166" y="383"/>
      <point x="137" y="401" type="curve"/>
      <point x="119" y="416"/>
      <point x="111" y="432"/>
      <point x="115" y="451" type="curve"/>
      <point x="115" y="457"/>
      <point x="119.133" y="464.902"/>
      <point x="125" y="473" type="curve" smooth="yes"/>
      <point x="459" y="934" type="line" smooth="yes"/>
      <point x="479.188" y="961.865"/>
      <point x="500" y="973"/>
      <point x="514" y="973" type="curve" smooth="yes"/>
      <point x="526" y="973"/>
      <point x="544.812" y="961.865"/>
      <point x="565" y="934" type="curve" smooth="yes"/>
      <point x="899" y="473" type="line" smooth="yes"/>
      <point x="904.867" y="464.902"/>
      <point x="909" y="457"/>
    </contour>
  </outline>
</glyph>
<glyph name="d" format="2">
  <advance width="819"/>
  <unicode hex="0064"/>
  <outline>
    <contour>
      <point x="717" y="51" type="line" smooth="yes"/>
      <point x="717" y="20"/>
      <point x="700" y="2"/>
      <point x="666" y="0" type="curve"/>
      <point x="631" y="2"/>
      <point x="614" y="20"/>
      <point x="614" y="51" type="curve" smooth="yes"/>
      <point x="614" y="90" type="line"/>
      <point x="557" y="31"/>
      <point x="489" y="0"/>
      <point x="410" y="0" type="curve" smooth="yes"/>
      <point x="322" y="0"/>
      <point x="247.863" y="34.8812"/>
      <point x="188" y="106" type="curve" smooth="yes"/>
      <point x="130.86" y="173.884"/>
      <point x="102" y="252"/>
      <point x="102" y="342" type="curve" smooth="yes"/>
      <point x="102" y="432"/>
      <point x="130.451" y="512.614"/>
      <point x="188" y="580" type="curve" smooth="yes"/>
      <point x="247.451" y="649.613"/>
      <point x="322" y="684"/>
      <point x="410" y="684" type="curve" smooth="yes"/>
      <point x="489" y="684"/>
      <point x="557" y="653"/>
      <point x="614" y="594" type="curve"/>
      <point x="614" y="1280" type="line" smooth="yes"/>
      <point x="614" y="1311"/>
      <point x="631" y="1329"/>
      <point x="666" y="1331" type="curve"/>
      <point x="700" y="1329"/>
      <point x="717" y="1311"/>
      <point x="717" y="1280" type="curve" smooth="yes"/>
    </contour>
    <contour>
      <point x="614" y="342" type="curve" smooth="yes"/>
      <point x="614" y="401"/>
      <point x="596.251" y="457.197"/>
      <point x="559" y="504" type="curve" smooth="yes"/>
      <point x="518.249" y="555.2"/>
      <point x="469" y="582"/>
      <point x="410" y="582" type="curve" smooth="yes"/>
      <point x="352" y="582"/>
      <point x="303" y="557"/>
      <point x="264" y="506" type="curve" smooth="yes"/>
      <point x="225" y="455"/>
      <point x="205" y="401"/>
      <point x="205" y="342" type="curve" smooth="yes"/>
      <point x="205" y="283"/>
      <point x="225" y="229"/>
      <point x="264" y="178" type="curve" smooth="yes"/>
      <point x="303" y="127"/>
      <point x="352" y="102"/>
      <point x="410" y="102" type="curve" smooth="yes"/>
      <point x="467" y="102"/>
      <point x="516" y="127"/>
      <point x="555" y="178" type="curve" smooth="yes"/>
      <point x="594" y="229"/>
      <point x="614" y="283"/>
    </contour>
  </outline>
</glyph>
<glyph name="u" format="2">
  <advance width="819"/>
  <unicode hex="0075"/>
  <outline>
    <contour>
      <point x="645" y="51" type="line" smooth="yes"/>
      <point x="645" y="16"/>
      <point x="629" y="0"/>
      <point x="594" y="0" type="curve" smooth="yes"/>
      <point x="559" y="0"/>
      <point x="543" y="16"/>
      <point x="543" y="51" type="curve" smooth="yes"/>
      <point x="543" y="53" type="line"/>
      <point x="506" y="18"/>
      <point x="449" y="0"/>
      <point x="373" y="0" type="curve" smooth="yes"/>
      <point x="209" y="0"/>
      <point x="102" y="89.9898"/>
      <point x="102" y="252" type="curve" smooth="yes"/>
      <point x="102" y="631" type="line" smooth="yes"/>
      <point x="102" y="662.002"/>
      <point x="119" y="680"/>
      <point x="154" y="682" type="curve"/>
      <point x="188" y="680"/>
      <point x="205" y="662"/>
      <point x="205" y="631" type="curve" smooth="yes"/>
      <point x="205" y="223" type="line"/>
      <point x="219" y="143"/>
      <point x="275.996" y="102"/>
      <point x="373" y="102" type="curve" smooth="yes"/>
      <point x="465.004" y="102"/>
      <point x="520" y="143"/>
      <point x="543" y="223" type="curve"/>
      <point x="543" y="633" type="line" smooth="yes"/>
      <point x="543" y="664"/>
      <point x="559" y="682"/>
      <point x="594" y="684" type="curve"/>
      <point x="629" y="682"/>
      <point x="645" y="664"/>
      <point x="645" y="633" type="curve" smooth="yes"/>
    </contour>
  </outline>
</glyph>
<glyph name="cent" format="2">
  <advance width="1024"/>
  <unicode hex="00A2"/>
  <outline>
    <contour>
      <point x="801" y="336" type="curve" smooth="yes"/>
      <point x="749.73" y="231.13"/>
      <point x="678" y="172"/>
      <point x="582" y="158" type="curve"/>
      <point x="582" y="51" type="line" smooth="yes"/>
      <point x="582" y="20"/>
      <point x="565" y="2"/>
      <point x="530" y="0" type="curve"/>
      <point x="496" y="2"/>
      <point x="479" y="20"/>
      <point x="479" y="51" type="curve" smooth="yes"/>
      <point x="479" y="158" type="line"/>
      <point x="403" y="172"/>
      <point x="341.764" y="210.828"/>
      <point x="295" y="276" type="curve" smooth="yes"/>
      <point x="247.763" y="341.831"/>
      <point x="223" y="416"/>
      <point x="223" y="496" type="curve" smooth="yes"/>
      <point x="223" y="575"/>
      <point x="247.763" y="649.169"/>
      <point x="295" y="715" type="curve" smooth="yes"/>
      <point x="341.764" y="780.172"/>
      <point x="403" y="819"/>
      <point x="479" y="834" type="curve"/>
      <point x="479" y="940" type="line" smooth="yes"/>
      <point x="479" y="971"/>
      <point x="496" y="989"/>
      <point x="530" y="991" type="curve"/>
      <point x="565" y="989"/>
      <point x="582" y="971"/>
      <point x="582" y="940" type="curve" smooth="yes"/>
      <point x="582" y="834" type="line"/>
      <point x="657" y="819"/>
      <point x="720.568" y="775.696"/>
      <point x="774" y="700" type="curve" smooth="yes"/>
      <point x="792.571" y="673.691"/>
      <point x="790.951" y="649.059"/>
      <point x="766" y="629" type="curve" smooth="yes"/>
      <point x="739.953" y="608.06"/>
      <point x="714.683" y="609.758"/>
      <point x="694" y="637" type="curve" smooth="yes"/>
      <point x="673.681" y="663.761"/>
      <point x="659.748" y="679.718"/>
      <point x="653" y="686" type="curve" smooth="yes"/>
      <point x="630.74" y="706.725"/>
      <point x="608" y="721"/>
      <point x="582" y="729" type="curve"/>
      <point x="582" y="262" type="line"/>
      <point x="639" y="276"/>
      <point x="681.438" y="315.809"/>
      <point x="709" y="379" type="curve" smooth="yes"/>
      <point x="722.439" y="409.811"/>
      <point x="744.804" y="417.591"/>
      <point x="776" y="403" type="curve" smooth="yes"/>
      <point x="806.812" y="388.588"/>
      <point x="815.732" y="366.133"/>
    </contour>
    <contour>
      <point x="479" y="264" type="curve"/>
      <point x="479" y="727" type="line"/>
      <point x="389" y="700"/>
      <point x="326" y="594"/>
      <point x="326" y="496" type="curve" smooth="yes"/>
      <point x="326" y="446"/>
      <point x="341.095" y="400.061"/>
      <point x="369" y="356" type="curve" smooth="yes"/>
      <point x="398.096" y="310.059"/>
      <point x="434" y="279"/>
    </contour>
  </outline>
</glyph>
<glyph name="periodcentered" format="2">
  <advance width="819"/>
  <unicode hex="00B7"/>
  <outline>
    <contour>
      <point x="492" y="614" type="curve" smooth="yes"/>
      <point x="492" y="567"/>
      <point x="457" y="530"/>
      <point x="410" y="530" type="curve" smooth="yes"/>
      <point x="354" y="530"/>
      <point x="328" y="559"/>
      <point x="328" y="614" type="curve" smooth="yes"/>
      <point x="328" y="662"/>
      <point x="362" y="698"/>
      <point x="410" y="698" type="curve" smooth="yes"/>
      <point x="457" y="698"/>
      <point x="492" y="662"/>
    </contour>
  </outline>
</glyph>
<glyph name="Egrave" format="2">
  <advance width="1024"/>
  <unicode hex="00C8"/>
  <outline>
    <contour>
      <point x="598" y="1161" type="curve" smooth="yes"/>
      <point x="598" y="1137"/>
      <point x="569" y="1108"/>
      <point x="545" y="1108" type="curve" smooth="yes"/>
      <point x="532" y="1108"/>
      <point x="520.035" y="1114.03"/>
      <point x="510" y="1124" type="curve" smooth="yes"/>
      <point x="365" y="1268" type="line" smooth="yes"/>
      <point x="354.452" y="1278.48"/>
      <point x="348" y="1290"/>
      <point x="348" y="1303" type="curve" smooth="yes"/>
      <point x="348" y="1329"/>
      <point x="377" y="1356"/>
      <point x="401" y="1356" type="curve" smooth="yes"/>
      <point x="414" y="1356"/>
      <point x="425.38" y="1349.4"/>
      <point x="436" y="1339" type="curve" smooth="yes"/>
      <point x="582" y="1196" type="line" smooth="yes"/>
      <point x="592.103" y="1186.1"/>
      <point x="598" y="1174"/>
    </contour>
    <contour>
      <point x="825" y="51" type="curve"/>
      <point x="823" y="16"/>
      <point x="805" y="0"/>
      <point x="774" y="0" type="curve" smooth="yes"/>
      <point x="154" y="0" type="line" smooth="yes"/>
      <point x="119" y="0"/>
      <point x="102" y="16"/>
      <point x="102" y="51" type="curve" smooth="yes"/>
      <point x="102" y="1034" type="line" smooth="yes"/>
      <point x="102" y="1069"/>
      <point x="119" y="1085"/>
      <point x="154" y="1085" type="curve" smooth="yes"/>
      <point x="774" y="1085" type="line" smooth="yes"/>
      <point x="805" y="1085"/>
      <point x="823" y="1069"/>
      <point x="825" y="1034" type="curve"/>
      <point x="823" y="999"/>
      <point x="805" y="983"/>
      <point x="774" y="983" type="curve" smooth="yes"/>
      <point x="205" y="983" type="line"/>
      <point x="205" y="608" type="line"/>
      <point x="543" y="608" type="line" smooth="yes"/>
      <point x="573" y="608"/>
      <point x="592" y="592"/>
      <point x="594" y="557" type="curve"/>
      <point x="592" y="522"/>
      <point x="573" y="506"/>
      <point x="543" y="506" type="curve" smooth="yes"/>
      <point x="205" y="506" type="line"/>
      <point x="205" y="102" type="line"/>
      <point x="774" y="102" type="line" smooth="yes"/>
      <point x="805" y="102"/>
      <point x="823" y="86"/>
    </contour>
  </outline>
</glyph>
<glyph name="Ecircumflex" format="2">
  <advance width="1024"/>
  <unicode hex="00CA"/>
  <outline>
    <contour>
      <point x="672" y="1169" type="curve" smooth="yes"/>
      <point x="672" y="1145"/>
      <point x="643" y="1116"/>
      <point x="618" y="1116" type="curve" smooth="yes"/>
      <point x="606" y="1116"/>
      <point x="594.465" y="1122.44"/>
      <point x="584" y="1133" type="curve" smooth="yes"/>
      <point x="473" y="1245" type="line"/>
      <point x="362" y="1133" type="line" smooth="yes"/>
      <point x="351.535" y="1122.44"/>
      <point x="340" y="1116"/>
      <point x="328" y="1116" type="curve" smooth="yes"/>
      <point x="303" y="1116"/>
      <point x="274" y="1145"/>
      <point x="274" y="1169" type="curve" smooth="yes"/>
      <point x="274" y="1182"/>
      <point x="281.034" y="1193.97"/>
      <point x="291" y="1204" type="curve" smooth="yes"/>
      <point x="438" y="1352" type="line"/>
      <point x="475" y="1368" type="line"/>
      <point x="483" y="1366"/>
      <point x="496" y="1362"/>
      <point x="510" y="1352" type="curve"/>
      <point x="655" y="1204" type="line" smooth="yes"/>
      <point x="665.403" y="1193.38"/>
      <point x="672" y="1182"/>
    </contour>
    <contour>
      <point x="825" y="51" type="curve"/>
      <point x="823" y="16"/>
      <point x="805" y="0"/>
      <point x="774" y="0" type="curve" smooth="yes"/>
      <point x="154" y="0" type="line" smooth="yes"/>
      <point x="119" y="0"/>
      <point x="102" y="16"/>
      <point x="102" y="51" type="curve" smooth="yes"/>
      <point x="102" y="1034" type="line" smooth="yes"/>
      <point x="102" y="1069"/>
      <point x="119" y="1085"/>
      <point x="154" y="1085" type="curve" smooth="yes"/>
      <point x="774" y="1085" type="line" smooth="yes"/>
      <point x="805" y="1085"/>
      <point x="823" y="1069"/>
      <point x="825" y="1034" type="curve"/>
      <point x="823" y="999"/>
      <point x="805" y="983"/>
      <point x="774" y="983" type="curve" smooth="yes"/>
      <point x="205" y="983" type="line"/>
      <point x="205" y="608" type="line"/>
      <point x="543" y="608" type="line" smooth="yes"/>
      <point x="573" y="608"/>
      <point x="592" y="592"/>
      <point x="594" y="557" type="curve"/>
      <point x="592" y="522"/>
      <point x="573" y="506"/>
      <point x="543" y="506" type="curve" smooth="yes"/>
      <point x="205" y="506" type="line"/>
      <point x="205" y="102" type="line"/>
      <point x="774" y="102" type="line" smooth="yes"/>
      <point x="805" y="102"/>
      <point x="823" y="86"/>
    </contour>
  </outline>
</glyph>
<glyph name="Igrave" format="2">
  <advance width="717"/>
  <unicode hex="00CC"/>
  <outline>
    <contour>
      <point x="426" y="1161" type="curve" smooth="yes"/>
      <point x="426" y="1137"/>
      <point x="397" y="1108"/>
      <point x="373" y="1108" type="curve" smooth="yes"/>
      <point x="360" y="1108"/>
      <point x="348.035" y="1114.03"/>
      <point x="338" y="1124" type="curve" smooth="yes"/>
      <point x="193" y="1268" type="line" smooth="yes"/>
      <point x="182.452" y="1278.48"/>
      <point x="176" y="1290"/>
      <point x="176" y="1303" type="curve" smooth="yes"/>
      <point x="176" y="1329"/>
      <point x="203" y="1356"/>
      <point x="229" y="1356" type="curve" smooth="yes"/>
      <point x="242" y="1356"/>
      <point x="253.38" y="1349.4"/>
      <point x="264" y="1339" type="curve" smooth="yes"/>
      <point x="410" y="1196" type="line" smooth="yes"/>
      <point x="420.103" y="1186.1"/>
      <point x="426" y="1174"/>
    </contour>
    <contour>
      <point x="489" y="51" type="curve"/>
      <point x="487" y="16"/>
      <point x="469" y="0"/>
      <point x="438" y="0" type="curve" smooth="yes"/>
      <point x="164" y="0" type="line" smooth="yes"/>
      <point x="133" y="0"/>
      <point x="115" y="16"/>
      <point x="113" y="51" type="curve"/>
      <point x="115" y="86"/>
      <point x="133" y="102"/>
      <point x="164" y="102" type="curve" smooth="yes"/>
      <point x="250" y="102" type="line"/>
      <point x="250" y="1006" type="line"/>
      <point x="154" y="1006" type="line" smooth="yes"/>
      <point x="123" y="1006"/>
      <point x="104" y="1022"/>
      <point x="102" y="1057" type="curve"/>
      <point x="104" y="1092"/>
      <point x="123" y="1108"/>
      <point x="154" y="1108" type="curve" smooth="yes"/>
      <point x="428" y="1108" type="line" smooth="yes"/>
      <point x="459" y="1108"/>
      <point x="477" y="1092"/>
      <point x="479" y="1057" type="curve"/>
      <point x="477" y="1022"/>
      <point x="459" y="1006"/>
      <point x="428" y="1006" type="curve" smooth="yes"/>
      <point x="352" y="1006" type="line"/>
      <point x="352" y="102" type="line"/>
      <point x="438" y="102" type="line" smooth="yes"/>
      <point x="469" y="102"/>
      <point x="487" y="86"/>
    </contour>
  </outline>
</glyph>
<glyph name="Idieresis" format="2">
  <advance width="717"/>
  <unicode hex="00CF"/>
  <outline>
    <contour>
      <point x="545" y="1229" type="curve" smooth="yes"/>
      <point x="545" y="1186"/>
      <point x="524" y="1165"/>
      <point x="481" y="1165" type="curve" smooth="yes"/>
      <point x="440" y="1165"/>
      <point x="420" y="1186"/>
      <point x="420" y="1229" type="curve" smooth="yes"/>
      <point x="420" y="1270"/>
      <point x="440" y="1290"/>
      <point x="481" y="1290" type="curve" smooth="yes"/>
      <point x="524" y="1290"/>
      <point x="545" y="1270"/>
    </contour>
    <contour>
      <point x="227" y="1229" type="curve" smooth="yes"/>
      <point x="227" y="1186"/>
      <point x="207" y="1165"/>
      <point x="164" y="1165" type="curve" smooth="yes"/>
      <point x="123" y="1165"/>
      <point x="102" y="1186"/>
      <point x="102" y="1229" type="curve" smooth="yes"/>
      <point x="102" y="1270"/>
      <point x="123" y="1290"/>
      <point x="164" y="1290" type="curve" smooth="yes"/>
      <point x="207" y="1290"/>
      <point x="227" y="1270"/>
    </contour>
    <contour>
      <point x="512" y="51" type="curve"/>
      <point x="510" y="16"/>
      <point x="492" y="0"/>
      <point x="461" y="0" type="curve" smooth="yes"/>
      <point x="186" y="0" type="line" smooth="yes"/>
      <point x="156" y="0"/>
      <point x="137" y="16"/>
      <point x="135" y="51" type="curve"/>
      <point x="137" y="86"/>
      <point x="156" y="102"/>
      <point x="186" y="102" type="curve" smooth="yes"/>
      <point x="272" y="102" type="line"/>
      <point x="272" y="1006" type="line"/>
      <point x="176" y="1006" type="line" smooth="yes"/>
      <point x="145" y="1006"/>
      <point x="127" y="1022"/>
      <point x="125" y="1057" type="curve"/>
      <point x="127" y="1092"/>
      <point x="145" y="1108"/>
      <point x="176" y="1108" type="curve" smooth="yes"/>
      <point x="451" y="1108" type="line" smooth="yes"/>
      <point x="481" y="1108"/>
      <point x="500" y="1092"/>
      <point x="502" y="1057" type="curve"/>
      <point x="500" y="1022"/>
      <point x="481" y="1006"/>
      <point x="451" y="1006" type="curve" smooth="yes"/>
      <point x="375" y="1006" type="line"/>
      <point x="375" y="102" type="line"/>
      <point x="461" y="102" type="line" smooth="yes"/>
      <point x="492" y="102"/>
      <point x="510" y="86"/>
    </contour>
  </outline>
</glyph>
<glyph name="Oslash" format="2">
  <advance width="1536"/>
  <unicode hex="00D8"/>
  <outline>
    <contour>
      <point x="1450" y="684" type="curve" smooth="yes"/>
      <point x="1450" y="493.997"/>
      <point x="1383" y="332"/>
      <point x="1251" y="199" type="curve" smooth="yes"/>
      <point x="1119" y="66"/>
      <point x="958.005" y="0"/>
      <point x="768" y="0" type="curve" smooth="yes"/>
      <point x="626.997" y="0"/>
      <point x="500" y="39"/>
      <point x="387" y="115" type="curve"/>
      <point x="326" y="27" type="line" smooth="yes"/>
      <point x="307.192" y="-0.133249"/>
      <point x="285" y="-8"/>
      <point x="258" y="2" type="curve"/>
      <point x="238" y="12"/>
      <point x="227" y="29"/>
      <point x="227" y="47" type="curve" smooth="yes"/>
      <point x="227" y="57"/>
      <point x="228.798" y="64.1395"/>
      <point x="233" y="70" type="curve" smooth="yes"/>
      <point x="309" y="176" type="line"/>
      <point x="160" y="309"/>
      <point x="86" y="478.996"/>
      <point x="86" y="684" type="curve" smooth="yes"/>
      <point x="86" y="874.012"/>
      <point x="152.002" y="1036"/>
      <point x="283" y="1167" type="curve" smooth="yes"/>
      <point x="416.001" y="1300"/>
      <point x="577.995" y="1366"/>
      <point x="768" y="1366" type="curve" smooth="yes"/>
      <point x="889.003" y="1366"/>
      <point x="999" y="1337"/>
      <point x="1104" y="1280" type="curve"/>
      <point x="1145" y="1337" type="line" smooth="yes"/>
      <point x="1164.28" y="1363.8"/>
      <point x="1186.02" y="1373.05"/>
      <point x="1212" y="1362" type="curve" smooth="yes"/>
      <point x="1233.02" y="1353.05"/>
      <point x="1243" y="1337"/>
      <point x="1243" y="1319" type="curve" smooth="yes"/>
      <point x="1243" y="1309"/>
      <point x="1241.17" y="1299.88"/>
      <point x="1237" y="1294" type="curve" smooth="yes"/>
      <point x="1188" y="1225" type="line"/>
      <point x="1362" y="1092"/>
      <point x="1450" y="910.996"/>
    </contour>
    <contour>
      <point x="1348" y="682" type="curve" smooth="yes"/>
      <point x="1348" y="872"/>
      <point x="1274" y="1026"/>
      <point x="1126" y="1141" type="curve"/>
      <point x="446" y="197" type="line"/>
      <point x="543" y="133"/>
      <point x="650.997" y="102"/>
      <point x="768" y="102" type="curve" smooth="yes"/>
      <point x="930.005" y="102"/>
      <point x="1067" y="157"/>
      <point x="1180" y="270" type="curve" smooth="yes"/>
      <point x="1293" y="383"/>
      <point x="1348" y="520"/>
    </contour>
    <contour>
      <point x="1042" y="1194" type="line"/>
      <point x="958" y="1239"/>
      <point x="866" y="1262"/>
      <point x="768" y="1262" type="curve" smooth="yes"/>
      <point x="606" y="1262"/>
      <point x="469" y="1207"/>
      <point x="356" y="1094" type="curve" smooth="yes"/>
      <point x="243" y="981"/>
      <point x="188" y="844"/>
      <point x="188" y="682" type="curve" smooth="yes"/>
      <point x="188" y="512"/>
      <point x="248" y="371"/>
      <point x="369" y="258" type="curve"/>
    </contour>
  </outline>
</glyph>
<glyph name="Udieresis" format="2">
  <advance width="1229"/>
  <unicode hex="00DC"/>
  <outline>
    <contour>
      <point x="805" y="1200" type="curve" smooth="yes"/>
      <point x="805" y="1159"/>
      <point x="784" y="1139"/>
      <point x="741" y="1139" type="curve" smooth="yes"/>
      <point x="700" y="1139"/>
      <point x="680" y="1159"/>
      <point x="680" y="1200" type="curve" smooth="yes"/>
      <point x="680" y="1243"/>
      <point x="700" y="1264"/>
      <point x="741" y="1264" type="curve" smooth="yes"/>
      <point x="784" y="1264"/>
      <point x="805" y="1243"/>
    </contour>
    <contour>
      <point x="487" y="1200" type="curve" smooth="yes"/>
      <point x="487" y="1159"/>
      <point x="467" y="1139"/>
      <point x="426" y="1139" type="curve" smooth="yes"/>
      <point x="383" y="1139"/>
      <point x="362" y="1159"/>
      <point x="362" y="1200" type="curve" smooth="yes"/>
      <point x="362" y="1243"/>
      <point x="383" y="1264"/>
      <point x="426" y="1264" type="curve" smooth="yes"/>
      <point x="467" y="1264"/>
      <point x="487" y="1243"/>
    </contour>
    <contour>
      <point x="1065" y="479" type="line" smooth="yes"/>
      <point x="1065" y="345.998"/>
      <point x="1017.51" y="231.5"/>
      <point x="924" y="139" type="curve" smooth="yes"/>
      <point x="831.506" y="47.501"/>
      <point x="717" y="0"/>
      <point x="584" y="0" type="curve" smooth="yes"/>
      <point x="449" y="0"/>
      <point x="334" y="47"/>
      <point x="242" y="139" type="curve" smooth="yes"/>
      <point x="150" y="231"/>
      <point x="102" y="345.996"/>
      <point x="102" y="481" type="curve" smooth="yes"/>
      <point x="102" y="1047" type="line" smooth="yes"/>
      <point x="102" y="1077"/>
      <point x="119" y="1096"/>
      <point x="154" y="1098" type="curve"/>
      <point x="188" y="1096"/>
      <point x="205" y="1077"/>
      <point x="205" y="1047" type="curve" smooth="yes"/>
      <point x="205" y="481" type="line" smooth="yes"/>
      <point x="205" y="374.997"/>
      <point x="240.749" y="283.75"/>
      <point x="313" y="211" type="curve" smooth="yes"/>
      <point x="385.748" y="137.75"/>
      <point x="476.996" y="102"/>
      <point x="584" y="102" type="curve" smooth="yes"/>
      <point x="690.004" y="102"/>
      <point x="780.002" y="139.001"/>
      <point x="852" y="211" type="curve" smooth="yes"/>
      <point x="925.998" y="284.998"/>
      <point x="963" y="374.999"/>
      <point x="963" y="479" type="curve" smooth="yes"/>
      <point x="963" y="1044" type="line" smooth="yes"/>
      <point x="963" y="1075"/>
      <point x="979" y="1094"/>
      <point x="1014" y="1096" type="curve"/>
      <point x="1049" y="1094"/>
      <point x="1065" y="1075"/>
      <point x="1065" y="1044" type="curve" smooth="yes"/>
    </contour>
  </outline>
</glyph>
<glyph name="agrave" format="2">
  <advance width="819"/>
  <unicode hex="00E0"/>
  <outline>
    <contour>
      <point x="629" y="772" type="curve" smooth="yes"/>
      <point x="629" y="748"/>
      <point x="600" y="719"/>
      <point x="575" y="719" type="curve" smooth="yes"/>
      <point x="563" y="719"/>
      <point x="551" y="725"/>
      <point x="541" y="735" type="curve" smooth="yes"/>
      <point x="307" y="969" type="line" smooth="yes"/>
      <point x="297" y="979"/>
      <point x="291" y="991"/>
      <point x="291" y="1004" type="curve" smooth="yes"/>
      <point x="291" y="1030"/>
      <point x="317" y="1057"/>
      <point x="344" y="1057" type="curve" smooth="yes"/>
      <point x="356" y="1057"/>
      <point x="368" y="1051"/>
      <point x="379" y="1040" type="curve" smooth="yes"/>
      <point x="612" y="807" type="line" smooth="yes"/>
      <point x="623" y="796"/>
      <point x="629" y="784"/>
    </contour>
    <contour>
      <point x="719" y="51" type="line" smooth="yes"/>
      <point x="719" y="20"/>
      <point x="702" y="2"/>
      <point x="668" y="0" type="curve"/>
      <point x="633" y="2"/>
      <point x="616" y="20"/>
      <point x="616" y="51" type="curve" smooth="yes"/>
      <point x="616" y="92" type="line"/>
      <point x="557" y="31"/>
      <point x="489" y="0"/>
      <point x="410" y="0" type="curve" smooth="yes"/>
      <point x="322" y="0"/>
      <point x="247.863" y="34.8812"/>
      <point x="188" y="106" type="curve" smooth="yes"/>
      <point x="130.86" y="173.884"/>
      <point x="102" y="252"/>
      <point x="102" y="342" type="curve" smooth="yes"/>
      <point x="102" y="432"/>
      <point x="130.451" y="512.614"/>
      <point x="188" y="580" type="curve" smooth="yes"/>
      <point x="247.451" y="649.613"/>
      <point x="322" y="684"/>
      <point x="410" y="684" type="curve" smooth="yes"/>
      <point x="489" y="684"/>
      <point x="557" y="653"/>
      <point x="616" y="592" type="curve"/>
      <point x="616" y="633" type="line" smooth="yes"/>
      <point x="616" y="664"/>
      <point x="633" y="682"/>
      <point x="668" y="684" type="curve"/>
      <point x="702" y="682"/>
      <point x="719" y="664"/>
      <point x="719" y="633" type="curve" smooth="yes"/>
    </contour>
    <contour>
      <point x="614" y="342" type="curve" smooth="yes"/>
      <point x="614" y="401"/>
      <point x="596.251" y="457.197"/>
      <point x="559" y="504" type="curve" smooth="yes"/>
      <point x="518.249" y="555.2"/>
      <point x="469" y="582"/>
      <point x="410" y="582" type="curve" smooth="yes"/>
      <point x="352" y="582"/>
      <point x="303" y="557"/>
      <point x="264" y="506" type="curve" smooth="yes"/>
      <point x="225" y="455"/>
      <point x="205" y="401"/>
      <point x="205" y="342" type="curve" smooth="yes"/>
      <point x="205" y="283"/>
      <point x="225" y="229"/>
      <point x="264" y="178" type="curve" smooth="yes"/>
      <point x="303" y="127"/>
      <point x="352" y="102"/>
      <point x="410" y="102" type="curve" smooth="yes"/>
      <point x="467" y="102"/>
      <point x="516" y="127"/>
      <point x="555" y="178" type="curve" smooth="yes"/>
      <point x="594" y="229"/>
      <point x="614" y="283"/>
    </contour>
  </outline>
</glyph>
<glyph name="eacute" format="2">
  <advance width="819"/>
  <unicode hex="00E9"/>
  <outline>
    <contour>
      <point x="578" y="1008" type="curve" smooth="yes"/>
      <point x="578" y="995"/>
      <point x="570.978" y="983.021"/>
      <point x="561" y="973" type="curve" smooth="yes"/>
      <point x="328" y="739" type="line" smooth="yes"/>
      <point x="317.511" y="728.465"/>
      <point x="305" y="723"/>
      <point x="293" y="723" type="curve" smooth="yes"/>
      <point x="266" y="723"/>
      <point x="240" y="750"/>
      <point x="240" y="776" type="curve" smooth="yes"/>
      <point x="240" y="788"/>
      <point x="246.043" y="800.957"/>
      <point x="256" y="811" type="curve" smooth="yes"/>
      <point x="487" y="1044" type="line" smooth="yes"/>
      <point x="497.953" y="1055.05"/>
      <point x="510" y="1061"/>
      <point x="522" y="1061" type="curve" smooth="yes"/>
      <point x="549" y="1061"/>
      <point x="578" y="1034"/>
    </contour>
    <contour>
      <point x="717" y="342" type="curve"/>
      <point x="205" y="342" type="line"/>
      <point x="205" y="283"/>
      <point x="225" y="229"/>
      <point x="264" y="178" type="curve" smooth="yes"/>
      <point x="303" y="127"/>
      <point x="352" y="102"/>
      <point x="410" y="102" type="curve" smooth="yes"/>
      <point x="477" y="102"/>
      <point x="530" y="131"/>
      <point x="569" y="186" type="curve"/>
      <point x="584" y="217"/>
      <point x="606" y="225"/>
      <point x="637" y="211" type="curve" smooth="yes"/>
      <point x="668" y="197"/>
      <point x="676" y="174"/>
      <point x="662" y="143" type="curve"/>
      <point x="594" y="47"/>
      <point x="510" y="0"/>
      <point x="410" y="0" type="curve" smooth="yes"/>
      <point x="322" y="0"/>
      <point x="247.863" y="34.8812"/>
      <point x="188" y="106" type="curve" smooth="yes"/>
      <point x="130.86" y="173.884"/>
      <point x="102" y="252"/>
      <point x="102" y="342" type="curve" smooth="yes"/>
      <point x="102" y="432"/>
      <point x="130.451" y="512.614"/>
      <point x="188" y="580" type="curve" smooth="yes"/>
      <point x="247.451" y="649.613"/>
      <point x="322" y="684"/>
      <point x="410" y="684" type="curve" smooth="yes"/>
      <point x="500" y="684"/>
      <point x="573.234" y="649.199"/>
      <point x="633" y="578" type="curve" smooth="yes"/>
      <point x="688.236" y="512.196"/>
      <point x="717" y="434"/>
    </contour>
    <contour>
      <point x="592" y="444" type="line"/>
      <point x="553" y="537"/>
      <point x="492" y="582"/>
      <point x="410" y="582" type="curve" smooth="yes"/>
      <point x="328" y="582"/>
      <point x="266" y="537"/>
      <point x="227" y="444" type="curve"/>
    </contour>
  </outline>
</glyph>
<glyph name="igrave" format="2">
  <advance width="614"/>
  <unicode hex="00EC"/>
  <outline>
    <contour>
      <point x="440" y="772" type="curve" smooth="yes"/>
      <point x="440" y="748"/>
      <point x="412" y="719"/>
      <point x="387" y="719" type="curve" smooth="yes"/>
      <point x="375" y="719"/>
      <point x="361.979" y="724.978"/>
      <point x="352" y="735" type="curve" smooth="yes"/>
      <point x="119" y="969" type="line" smooth="yes"/>
      <point x="109.021" y="979.021"/>
      <point x="102" y="991"/>
      <point x="102" y="1004" type="curve" smooth="yes"/>
      <point x="102" y="1030"/>
      <point x="129" y="1057"/>
      <point x="156" y="1057" type="curve" smooth="yes"/>
      <point x="168" y="1057"/>
      <point x="179.465" y="1050.49"/>
      <point x="190" y="1040" type="curve" smooth="yes"/>
      <point x="424" y="807" type="line" smooth="yes"/>
      <point x="434.021" y="797.021"/>
      <point x="440" y="784"/>
    </contour>
    <contour>
      <point x="324" y="51" type="line" smooth="yes"/>
      <point x="324" y="20"/>
      <point x="307" y="2"/>
      <point x="272" y="0" type="curve"/>
      <point x="238" y="2"/>
      <point x="221" y="20"/>
      <point x="221" y="51" type="curve" smooth="yes"/>
      <point x="221" y="633" type="line" smooth="yes"/>
      <point x="221" y="664"/>
      <point x="238" y="682"/>
      <point x="272" y="684" type="curve"/>
      <point x="307" y="682"/>
      <point x="324" y="664"/>
      <point x="324" y="633" type="curve" smooth="yes"/>
    </contour>
  </outline>
</glyph>
<glyph name="ntilde" format="2">
  <advance width="819"/>
  <unicode hex="00F1"/>
  <outline>
    <contour>
      <point x="705" y="887" type="curve" smooth="yes"/>
      <point x="705" y="872"/>
      <point x="698" y="860"/>
      <point x="688" y="848" type="curve"/>
      <point x="596" y="791"/>
      <point x="528" y="762"/>
      <point x="487" y="762" type="curve" smooth="yes"/>
      <point x="465" y="762"/>
      <point x="427.891" y="776.847"/>
      <point x="381" y="809" type="curve" smooth="yes"/>
      <point x="357.893" y="824.844"/>
      <point x="336" y="834" name=".hr01"/>
      <point x="317" y="834" type="curve" smooth="yes"/>
      <point x="283" y="834"/>
      <point x="242" y="813"/>
      <point x="190" y="772" type="curve"/>
      <point x="180" y="762" name=".hr02"/>
      <point x="168" y="758"/>
      <point x="156" y="758" type="curve" smooth="yes"/>
      <point x="121" y="758"/>
      <point x="102" y="776"/>
      <point x="102" y="811" type="curve" smooth="yes"/>
      <point x="102" y="823"/>
      <point x="109" y="836"/>
      <point x="119" y="848" type="curve"/>
      <point x="209" y="907"/>
      <point x="274" y="936" name=".hr03"/>
      <point x="317" y="936" type="curve" smooth="yes"/>
      <point x="350" y="936"/>
      <point x="382.078" y="923.118"/>
      <point x="418" y="899" type="curve" smooth="yes"/>
      <point x="452.08" y="876.118"/>
      <point x="477" y="864" name=".hr04"/>
      <point x="487" y="864" type="curve" smooth="yes"/>
      <point x="512" y="864"/>
      <point x="555" y="885"/>
      <point x="618" y="924" type="curve"/>
      <point x="629" y="934"/>
      <point x="639" y="938"/>
      <point x="653" y="938" type="curve" smooth="yes"/>
      <point x="688" y="938"/>
      <point x="705" y="922"/>
    </contour>
    <contour>
      <point x="680" y="53" type="line" smooth="yes"/>
      <point x="680" y="17.998"/>
      <point x="664" y="0"/>
      <point x="629" y="0" type="curve" smooth="yes"/>
      <point x="594" y="0"/>
      <point x="578" y="18"/>
      <point x="578" y="53" type="curve" smooth="yes"/>
      <point x="578" y="461" type="line"/>
      <point x="563" y="541"/>
      <point x="506.004" y="582"/>
      <point x="410" y="582" type="curve" smooth="yes"/>
      <point x="316.996" y="582"/>
      <point x="262" y="541"/>
      <point x="240" y="461" type="curve"/>
      <point x="240" y="51" type="line" smooth="yes"/>
      <point x="240" y="15.9987"/>
      <point x="223" y="0"/>
      <point x="188" y="0" type="curve" smooth="yes"/>
      <point x="154" y="0"/>
      <point x="137" y="16"/>
      <point x="137" y="51" type="curve" smooth="yes"/>
      <point x="137" y="633" type="line" smooth="yes"/>
      <point x="137" y="664"/>
      <point x="154.005" y="681.907"/>
      <point x="188" y="684" type="curve" smooth="yes"/>
      <point x="219.007" y="685.908"/>
      <point x="236" y="670"/>
      <point x="240" y="639" type="curve"/>
      <point x="240" y="631" type="line"/>
      <point x="274" y="666"/>
      <point x="331.998" y="684"/>
      <point x="410" y="684" type="curve" smooth="yes"/>
      <point x="573.005" y="684"/>
      <point x="680" y="594.01"/>
      <point x="680" y="432" type="curve" smooth="yes"/>
    </contour>
  </outline>
</glyph>
<glyph name="udieresis" format="2">
  <advance width="819"/>
  <unicode hex="00FC"/>
  <outline>
    <contour>
      <point x="594" y="856" type="curve" smooth="yes"/>
      <point x="594" y="813"/>
      <point x="573" y="793"/>
      <point x="532" y="793" type="curve" smooth="yes"/>
      <point x="492" y="793"/>
      <point x="471" y="813"/>
      <point x="471" y="856" type="curve" smooth="yes"/>
      <point x="471" y="897"/>
      <point x="492" y="918"/>
      <point x="532" y="918" type="curve" smooth="yes"/>
      <point x="573" y="918"/>
      <point x="594" y="897"/>
    </contour>
    <contour>
      <point x="276" y="856" type="curve" smooth="yes"/>
      <point x="276" y="813"/>
      <point x="256" y="793"/>
      <point x="215" y="793" type="curve" smooth="yes"/>
      <point x="174" y="793"/>
      <point x="154" y="813"/>
      <point x="154" y="856" type="curve" smooth="yes"/>
      <point x="154" y="897"/>
      <point x="174" y="918"/>
      <point x="215" y="918" type="curve" smooth="yes"/>
      <point x="256" y="918"/>
      <point x="276" y="897"/>
    </contour>
    <contour>
      <point x="645" y="51" type="line" smooth="yes"/>
      <point x="645" y="16"/>
      <point x="629" y="0" name=".hr01"/>
      <point x="594" y="0" type="curve" smooth="yes"/>
      <point x="559" y="0"/>
      <point x="543" y="16" name=".hr02"/>
      <point x="543" y="51" type="curve" smooth="yes"/>
      <point x="543" y="53" type="line" name=".hr03"/>
      <point x="506" y="18"/>
      <point x="449" y="0"/>
      <point x="373" y="0" type="curve" smooth="yes"/>
      <point x="209" y="0"/>
      <point x="102" y="89.9898"/>
      <point x="102" y="252" type="curve" smooth="yes"/>
      <point x="102" y="631" type="line" smooth="yes"/>
      <point x="102" y="662.002"/>
      <point x="119" y="680"/>
      <point x="154" y="682" type="curve"/>
      <point x="188" y="680"/>
      <point x="205" y="662" name=".hr04"/>
      <point x="205" y="631" type="curve" smooth="yes"/>
      <point x="205" y="223" type="line"/>
      <point x="219" y="143"/>
      <point x="275.996" y="102"/>
      <point x="373" y="102" type="curve" smooth="yes"/>
      <point x="465.004" y="102"/>
      <point x="520" y="143"/>
      <point x="543" y="223" type="curve"/>
      <point x="543" y="633" type="line" smooth="yes"/>
      <point x="543" y="664"/>
      <point x="559" y="682"/>
      <point x="594" y="684" type="curve"/>
      <point x="629" y="682"/>
      <point x="645" y="664" name=".hr05"/>
      <point x="645" y="633" type="curve" smooth="yes"/>
    </contour>
  </outline>
</glyph>
<glyph name="OE" format="2">
  <advance width="2253"/>
  <unicode hex="0152"/>
  <outline>
    <contour>
      <point x="2071" y="51" type="curve"/>
      <point x="2068" y="16"/>
      <point x="2050" y="0"/>
      <point x="2019" y="0" type="curve" smooth="yes"/>
      <point x="1243" y="0" type="line" smooth="yes"/>
      <point x="1208" y="0"/>
      <point x="1192" y="16"/>
      <point x="1192" y="51" type="curve" smooth="yes"/>
      <point x="1192" y="131" type="line"/>
      <point x="1071" y="43"/>
      <point x="936" y="0"/>
      <point x="784" y="0" type="curve" smooth="yes"/>
      <point x="594" y="0"/>
      <point x="432.251" y="65.2462"/>
      <point x="299" y="199" type="curve" smooth="yes"/>
      <point x="167.245" y="331.252"/>
      <point x="102" y="494"/>
      <point x="102" y="684" type="curve" smooth="yes"/>
      <point x="102" y="874"/>
      <point x="168.002" y="1036"/>
      <point x="299" y="1167" type="curve" smooth="yes"/>
      <point x="432.001" y="1300"/>
      <point x="594" y="1366"/>
      <point x="784" y="1366" type="curve" smooth="yes"/>
      <point x="936" y="1366"/>
      <point x="1071" y="1323"/>
      <point x="1192" y="1235" type="curve"/>
      <point x="1192" y="1280" type="line" smooth="yes"/>
      <point x="1192" y="1315"/>
      <point x="1208" y="1331" name=".hr01"/>
      <point x="1243" y="1331" type="curve" smooth="yes"/>
      <point x="2019" y="1331" type="line" smooth="yes"/>
      <point x="2050" y="1331"/>
      <point x="2068" y="1315"/>
      <point x="2071" y="1280" type="curve"/>
      <point x="2068" y="1245"/>
      <point x="2050" y="1229"/>
      <point x="2019" y="1229" type="curve" smooth="yes"/>
      <point x="1294" y="1229" type="line"/>
      <point x="1294" y="735" type="line"/>
      <point x="1729" y="735" type="line" smooth="yes"/>
      <point x="1759" y="735"/>
      <point x="1778" y="719"/>
      <point x="1780" y="684" type="curve"/>
      <point x="1778" y="649"/>
      <point x="1759" y="633"/>
      <point x="1729" y="633" type="curve" smooth="yes"/>
      <point x="1294" y="633" type="line"/>
      <point x="1294" y="102" type="line"/>
      <point x="2019" y="102" type="line" smooth="yes"/>
      <point x="2050" y="102"/>
      <point x="2068" y="86"/>
    </contour>
    <contour>
      <point x="1192" y="266" type="curve"/>
      <point x="1192" y="1098" type="line"/>
      <point x="1079" y="1206"/>
      <point x="944.004" y="1262"/>
      <point x="784" y="1262" type="curve" smooth="yes" name=".hr02"/>
      <point x="622.996" y="1262"/>
      <point x="485.002" y="1206"/>
      <point x="373" y="1094" type="curve" smooth="yes"/>
      <point x="259.997" y="980.997"/>
      <point x="205" y="844"/>
      <point x="205" y="682" type="curve" smooth="yes"/>
      <point x="205" y="520"/>
      <point x="259.997" y="383.003"/>
      <point x="373" y="270" type="curve" smooth="yes"/>
      <point x="485.002" y="157.998"/>
      <point x="622.996" y="102"/>
      <point x="784" y="102" type="curve" smooth="yes"/>
      <point x="944.004" y="102"/>
      <point x="1079" y="158"/>
    </contour>
  </outline>
</glyph>
<glyph name="uni1200" format="2">
  <advance width="900"/>
  <unicode hex="1200"/>
  <outline>
    <contour>
      <point x="426" y="1017" type="line"/>
      <point x="405" y="1017" type="line"/>
      <point x="405" y="1118" type="line"/>
      <point x="398" y="1112"/>
      <point x="384" y="1105"/>
      <point x="376" y="1103" type="curve"/>
      <point x="376" y="1122" type="line"/>
      <point x="385" y="1126"/>
      <point x="401" y="1139"/>
      <point x="405" y="1143" type="curve"/>
      <point x="426" y="1143" type="line"/>
    </contour>
    <contour>
      <point x="669" y="1070" type="line"/>
      <point x="653.787" y="1061.19" type="line"/>
      <point x="708.445" y="904.213"/>
      <point x="634.919" y="609.076"/>
      <point x="577.029" y="471.939" type="curve" smooth="yes"/>
      <point x="477.609" y="236.42"/>
      <point x="352.346" y="132"/>
      <point x="310.962" y="132" type="curve" smooth="yes"/>
      <point x="217.074" y="132"/>
      <point x="163.566" y="195.042"/>
      <point x="182.765" y="297.305" type="curve"/>
      <point x="182.765" y="297.305"/>
      <point x="275.211" y="789.528"/>
      <point x="327.237" y="1066.84" type="curve"/>
      <point x="356.722" y="1061.31" type="line"/>
      <point x="304.696" y="783.994"/>
      <point x="212.249" y="291.768"/>
      <point x="212.249" y="291.768" type="curve"/>
      <point x="196.278" y="206.694"/>
      <point x="237.064" y="162"/>
      <point x="310.962" y="162" type="curve" smooth="yes"/>
      <point x="330.302" y="162"/>
      <point x="448.876" y="245.494"/>
      <point x="549.391" y="483.606" type="curve" smooth="yes"/>
      <point x="607.311" y="620.815"/>
      <point x="674.123" y="900.812"/>
      <point x="627.343" y="1045.87" type="curve"/>
      <point x="612" y="1037" type="line"/>
      <point x="612" y="1103" type="line"/>
    </contour>
  </outline>
</glyph>
<glyph name="uni1201" format="2">
  <advance width="1291"/>
  <unicode hex="1201"/>
  <outline>
    <contour>
      <point x="976" y="1001" type="curve" smooth="yes"/>
      <point x="976" y="972"/>
      <point x="949" y="952"/>
      <point x="909" y="926" type="curve"/>
      <point x="973" y="926" type="line"/>
      <point x="973" y="906" type="line"/>
      <point x="888" y="906" type="line"/>
      <point x="888" y="924" type="line"/>
      <point x="939" y="965"/>
      <point x="954" y="984"/>
      <point x="954" y="1001" type="curve" smooth="yes"/>
      <point x="954" y="1009"/>
      <point x="950" y="1021"/>
      <point x="935" y="1021" type="curve" smooth="yes"/>
      <point x="919" y="1021"/>
      <point x="913" y="1008"/>
      <point x="912" y="997" type="curve"/>
      <point x="890" y="997" type="line"/>
      <point x="892" y="1023"/>
      <point x="907" y="1036"/>
      <point x="935" y="1036" type="curve" smooth="yes"/>
      <point x="961" y="1036"/>
      <point x="976" y="1022"/>
    </contour>
    <contour>
      <point x="1177" y="866.754" type="line"/>
      <point x="1120" y="833.754" type="line"/>
      <point x="1120" y="851.992" type="line"/>
      <point x="871" y="852" type="line"/>
      <point x="871" y="882" type="line"/>
      <point x="1120" y="881.991" type="line"/>
      <point x="1120" y="899.754" type="line"/>
    </contour>
    <contour>
      <point x="426" y="1017" type="line"/>
      <point x="405" y="1017" type="line"/>
      <point x="405" y="1118" type="line"/>
      <point x="398" y="1112"/>
      <point x="384" y="1105"/>
      <point x="376" y="1103" type="curve"/>
      <point x="376" y="1122" type="line"/>
      <point x="385" y="1126"/>
      <point x="401" y="1139"/>
      <point x="405" y="1143" type="curve"/>
      <point x="426" y="1143" type="line"/>
    </contour>
    <contour>
      <point x="669" y="1070" type="line"/>
      <point x="653.787" y="1061.19" type="line"/>
      <point x="708.445" y="904.213"/>
      <point x="634.924" y="609.088"/>
      <point x="577.029" y="471.939" type="curve" smooth="yes"/>
      <point x="477.605" y="236.41"/>
      <point x="352.346" y="132"/>
      <point x="310.962" y="132" type="curve" smooth="yes"/>
      <point x="217.074" y="132"/>
      <point x="163.566" y="195.042"/>
      <point x="182.765" y="297.305" type="curve"/>
      <point x="182.765" y="297.305"/>
      <point x="275.211" y="789.528"/>
      <point x="327.237" y="1066.84" type="curve"/>
      <point x="356.722" y="1061.31" type="line"/>
      <point x="304.696" y="783.994"/>
      <point x="212.249" y="291.768"/>
      <point x="212.249" y="291.768" type="curve"/>
      <point x="196.276" y="206.687"/>
      <point x="237.06" y="162"/>
      <point x="310.962" y="162" type="curve" smooth="yes"/>
      <point x="330.303" y="162"/>
      <point x="448.879" y="245.5"/>
      <point x="549.391" y="483.606" type="curve" smooth="yes"/>
      <point x="607.313" y="620.82"/>
      <point x="674.123" y="900.812"/>
      <point x="627.343" y="1045.87" type="curve"/>
      <point x="612" y="1037" type="line"/>
      <point x="612" y="1103" type="line"/>
    </contour>
  </outline>
</glyph>
<glyph name="uni1202" format="2">
  <advance width="900"/>
  <unicode hex="1202"/>
  <outline>
    <contour>
      <point x="894" y="1381" type="curve" smooth="yes"/>
      <point x="894" y="1352"/>
      <point x="867" y="1332"/>
      <point x="827" y="1306" type="curve"/>
      <point x="891" y="1306" type="line"/>
      <point x="891" y="1286" type="line"/>
      <point x="806" y="1286" type="line"/>
      <point x="806" y="1304" type="line"/>
      <point x="857" y="1345"/>
      <point x="872" y="1364"/>
      <point x="872" y="1381" type="curve" smooth="yes"/>
      <point x="872" y="1389"/>
      <point x="868" y="1401"/>
      <point x="853" y="1401" type="curve" smooth="yes"/>
      <point x="837" y="1401"/>
      <point x="831" y="1388"/>
      <point x="830" y="1377" type="curve"/>
      <point x="808" y="1377" type="line"/>
      <point x="810" y="1403"/>
      <point x="825" y="1416"/>
      <point x="853" y="1416" type="curve" smooth="yes"/>
      <point x="879" y="1416"/>
      <point x="894" y="1402"/>
    </contour>
    <contour>
      <point x="283" y="1289" type="line"/>
      <point x="262" y="1289" type="line"/>
      <point x="262" y="1390" type="line"/>
      <point x="255" y="1384"/>
      <point x="241" y="1377"/>
      <point x="233" y="1375" type="curve"/>
      <point x="233" y="1394" type="line"/>
      <point x="242" y="1398"/>
      <point x="258" y="1411"/>
      <point x="262" y="1415" type="curve"/>
      <point x="283" y="1415" type="line"/>
    </contour>
    <contour>
      <point x="581.644" y="1369.61" type="line"/>
      <point x="566.378" y="1373.72" type="line"/>
      <point x="552.977" y="1319.06"/>
      <point x="506.688" y="1130.34"/>
      <point x="484.22" y="1040.01" type="curve" smooth="yes"/>
      <point x="483.987" y="1039.07" type="line"/>
      <point x="443.113" y="934.334"/>
      <point x="392.283" y="898"/>
      <point x="279.922" y="898" type="curve" smooth="yes"/>
      <point x="215.186" y="898"/>
      <point x="178.466" y="954.771"/>
      <point x="180.042" y="1074.21" type="curve" smooth="yes"/>
      <point x="183.379" y="1326.94" type="line"/>
      <point x="213.376" y="1326.55" type="line"/>
      <point x="210.04" y="1073.81" type="line" smooth="yes"/>
      <point x="208.482" y="955.806"/>
      <point x="243.922" y="928"/>
      <point x="279.922" y="928" type="curve" smooth="yes"/>
      <point x="377.442" y="928"/>
      <point x="418.72" y="954.833"/>
      <point x="455.344" y="1048.18" type="curve"/>
      <point x="477.792" y="1138.44"/>
      <point x="524.271" y="1327.91"/>
      <point x="537.411" y="1381.52" type="curve"/>
      <point x="518.046" y="1386.73" type="line"/>
      <point x="564.563" y="1433.36" type="line"/>
    </contour>
    <contour>
      <point x="785.095" y="1338.53" type="line"/>
      <point x="501.293" y="194.447" type="line"/>
      <point x="519.116" y="188.976" type="line"/>
      <point x="471" y="144" type="line"/>
      <point x="456.153" y="208.308" type="line"/>
      <point x="472.572" y="203.261" type="line"/>
      <point x="755.98" y="1345.76" type="line"/>
    </contour>
    <contour>
      <point x="738" y="-88" type="line"/>
      <point x="681" y="-121" type="line"/>
      <point x="680.997" y="-102.762" type="line"/>
      <point x="378.007" y="-102.754" type="line"/>
      <point x="378.008" y="-72.7539" type="line"/>
      <point x="680.997" y="-72.7626" type="line"/>
      <point x="681" y="-55" type="line"/>
    </contour>
    <contour>
      <point x="340" y="-163" type="curve" smooth="yes"/>
      <point x="340" y="-182"/>
      <point x="326" y="-201"/>
      <point x="294" y="-201" type="curve" smooth="yes"/>
      <point x="261" y="-201"/>
      <point x="253" y="-181"/>
      <point x="253" y="-165" type="curve"/>
      <point x="275" y="-165" type="line"/>
      <point x="275" y="-177"/>
      <point x="283" y="-185"/>
      <point x="295" y="-185" type="curve" smooth="yes"/>
      <point x="307" y="-185"/>
      <point x="318" y="-177"/>
      <point x="318" y="-163" type="curve" smooth="yes"/>
      <point x="318" y="-158"/>
      <point x="314" y="-141"/>
      <point x="296" y="-141" type="curve" smooth="yes"/>
      <point x="285" y="-141" type="line"/>
      <point x="285" y="-127" type="line"/>
      <point x="313" y="-127"/>
      <point x="315" y="-115"/>
      <point x="315" y="-105" type="curve" smooth="yes"/>
      <point x="315" y="-96"/>
      <point x="311" y="-86"/>
      <point x="298" y="-86" type="curve" smooth="yes"/>
      <point x="284" y="-86"/>
      <point x="278" y="-92"/>
      <point x="277" y="-104" type="curve"/>
      <point x="255" y="-104" type="line"/>
      <point x="256" y="-82"/>
      <point x="274" y="-71"/>
      <point x="297" y="-71" type="curve" smooth="yes"/>
      <point x="319" y="-71"/>
      <point x="337" y="-83"/>
      <point x="337" y="-105" type="curve" smooth="yes"/>
      <point x="337" y="-124"/>
      <point x="325" y="-129"/>
      <point x="314" y="-133" type="curve"/>
      <point x="325" y="-136"/>
      <point x="340" y="-145"/>
    </contour>
  </outline>
</glyph>
<glyph name="uni1203" format="2">
  <advance width="799"/>
  <unicode hex="1203"/>
  <outline>
    <contour>
      <point x="894" y="1381" type="curve" smooth="yes"/>
      <point x="894" y="1352"/>
      <point x="867" y="1332"/>
      <point x="827" y="1306" type="curve"/>
      <point x="891" y="1306" type="line"/>
      <point x="891" y="1286" type="line"/>
      <point x="806" y="1286" type="line"/>
      <point x="806" y="1304" type="line"/>
      <point x="857" y="1345"/>
      <point x="872" y="1364"/>
      <point x="872" y="1381" type="curve" smooth="yes"/>
      <point x="872" y="1389"/>
      <point x="868" y="1401"/>
      <point x="853" y="1401" type="curve" smooth="yes"/>
      <point x="837" y="1401"/>
      <point x="831" y="1388"/>
      <point x="830" y="1377" type="curve"/>
      <point x="808" y="1377" type="line"/>
      <point x="810" y="1403"/>
      <point x="825" y="1416"/>
      <point x="853" y="1416" type="curve" smooth="yes"/>
      <point x="879" y="1416"/>
      <point x="894" y="1402"/>
    </contour>
    <contour>
      <point x="283" y="1289" type="line"/>
      <point x="262" y="1289" type="line"/>
      <point x="262" y="1390" type="line"/>
      <point x="255" y="1384"/>
      <point x="241" y="1377"/>
      <point x="233" y="1375" type="curve"/>
      <point x="233" y="1394" type="line"/>
      <point x="242" y="1398"/>
      <point x="258" y="1411"/>
      <point x="262" y="1415" type="curve"/>
      <point x="283" y="1415" type="line"/>
    </contour>
    <contour>
      <point x="581.644" y="1369.61" type="line"/>
      <point x="566.378" y="1373.72" type="line"/>
      <point x="552.977" y="1319.06"/>
      <point x="506.673" y="1130.28"/>
      <point x="484.22" y="1040.01" type="curve" smooth="yes"/>
      <point x="483.987" y="1039.07" type="line"/>
      <point x="443.113" y="934.334"/>
      <point x="392.283" y="898"/>
      <point x="279.922" y="898" type="curve" smooth="yes"/>
      <point x="215.186" y="898"/>
      <point x="178.466" y="954.771"/>
      <point x="180.042" y="1074.21" type="curve" smooth="yes"/>
      <point x="183.379" y="1326.94" type="line"/>
      <point x="213.376" y="1326.55" type="line"/>
      <point x="210.04" y="1073.81" type="line" smooth="yes"/>
      <point x="208.482" y="955.806"/>
      <point x="243.922" y="928"/>
      <point x="279.922" y="928" type="curve" smooth="yes"/>
      <point x="377.442" y="928"/>
      <point x="418.72" y="954.833"/>
      <point x="455.344" y="1048.18" type="curve"/>
      <point x="477.792" y="1138.44"/>
      <point x="524.271" y="1327.91"/>
      <point x="537.411" y="1381.52" type="curve"/>
      <point x="518.046" y="1386.73" type="line"/>
      <point x="564.563" y="1433.36" type="line"/>
    </contour>
    <contour>
      <point x="785.095" y="1338.53" type="line"/>
      <point x="473.293" y="67.4465" type="line"/>
      <point x="491.116" y="61.976" type="line"/>
      <point x="443" y="17" type="line"/>
      <point x="428.153" y="81.308" type="line"/>
      <point x="444.572" y="76.261" type="line"/>
      <point x="755.98" y="1345.76" type="line"/>
    </contour>
  </outline>
</glyph>
<glyph name="uni1205" format="2">
  <advance width="1028"/>
  <unicode hex="1205"/>
  <outline>
    <contour>
      <point x="301" y="873" type="line"/>
      <point x="280" y="873" type="line"/>
      <point x="280" y="974" type="line"/>
      <point x="273" y="968"/>
      <point x="259" y="961"/>
      <point x="251" y="959" type="curve"/>
      <point x="251" y="978" type="line"/>
      <point x="260" y="982"/>
      <point x="276" y="995"/>
      <point x="280" y="999" type="curve"/>
      <point x="301" y="999" type="line"/>
    </contour>
    <contour>
      <point x="801.567" y="1048.05" type="line"/>
      <point x="786.596" y="1042.58" type="line"/>
      <point x="831.071" y="882.156"/>
      <point x="760.566" y="602.372"/>
      <point x="704.663" y="469.938" type="curve" smooth="yes"/>
      <point x="605.302" y="234.552"/>
      <point x="479.992" y="130"/>
      <point x="438.595" y="130" type="curve" smooth="yes"/>
      <point x="355.078" y="130"/>
      <point x="293.749" y="209.697"/>
      <point x="309.885" y="292.056" type="curve" smooth="yes"/>
      <point x="330.834" y="398.988"/>
      <point x="375.599" y="623.088"/>
      <point x="375.599" y="623.088" type="curve"/>
      <point x="389.294" y="692.074"/>
      <point x="344.824" y="741.456"/>
      <point x="273.013" y="741.461" type="curve" smooth="yes"/>
      <point x="194.942" y="741.467" type="line"/>
      <point x="222.613" y="926.401" type="line"/>
      <point x="252.283" y="921.961" type="line"/>
      <point x="229.769" y="771.457" type="line"/>
      <point x="273.015" y="771.461" type="line" smooth="yes"/>
      <point x="361.531" y="771.47"/>
      <point x="422.826" y="706.917"/>
      <point x="405.022" y="617.229" type="curve"/>
      <point x="405.022" y="617.229"/>
      <point x="360.267" y="393.184"/>
      <point x="339.325" y="286.289" type="curve" smooth="yes"/>
      <point x="326.568" y="221.174"/>
      <point x="375.31" y="160"/>
      <point x="438.595" y="160" type="curve" smooth="yes"/>
      <point x="457.942" y="160"/>
      <point x="576.517" y="243.502"/>
      <point x="677.024" y="481.605" type="curve" smooth="yes"/>
      <point x="733.451" y="615.28"/>
      <point x="798.291" y="884.315"/>
      <point x="758.399" y="1032.27" type="curve"/>
      <point x="739.703" y="1025.45" type="line"/>
      <point x="751.164" y="1090.45" type="line"/>
    </contour>
  </outline>
</glyph>
<glyph name="uni1206" format="2">
  <advance width="1184"/>
  <unicode hex="1206"/>
  <outline>
    <contour>
      <point x="1173.97" y="1118" type="curve" smooth="yes"/>
      <point x="1173.97" y="982.766"/>
      <point x="1071.52" y="871.478"/>
      <point x="940" y="857.49" type="curve"/>
      <point x="940" y="838" type="line"/>
      <point x="883" y="871" type="line"/>
      <point x="940" y="904" type="line"/>
      <point x="940" y="887.669" type="line"/>
      <point x="1054.91" y="901.508"/>
      <point x="1143.97" y="999.352"/>
      <point x="1143.97" y="1118" type="curve" smooth="yes"/>
      <point x="1143.97" y="1246.14"/>
      <point x="1040.1" y="1350"/>
      <point x="911.967" y="1350" type="curve" smooth="yes"/>
      <point x="788.302" y="1350"/>
      <point x="670.116" y="1250.45"/>
      <point x="669.967" y="1118.07" type="curve"/>
      <point x="639.967" y="1118.1" type="line"/>
      <point x="640.137" y="1269.34"/>
      <point x="774.151" y="1380"/>
      <point x="911.967" y="1380" type="curve" smooth="yes"/>
      <point x="1056.67" y="1380"/>
      <point x="1173.97" y="1262.71"/>
    </contour>
    <contour>
      <point x="608" y="1131" type="curve" smooth="yes"/>
      <point x="608" y="1102"/>
      <point x="581" y="1082"/>
      <point x="541" y="1056" type="curve"/>
      <point x="605" y="1056" type="line"/>
      <point x="605" y="1036" type="line"/>
      <point x="520" y="1036" type="line"/>
      <point x="520" y="1054" type="line"/>
      <point x="571" y="1095"/>
      <point x="586" y="1114"/>
      <point x="586" y="1131" type="curve" smooth="yes"/>
      <point x="586" y="1139"/>
      <point x="582" y="1151"/>
      <point x="567" y="1151" type="curve" smooth="yes"/>
      <point x="551" y="1151"/>
      <point x="545" y="1138"/>
      <point x="544" y="1127" type="curve"/>
      <point x="522" y="1127" type="line"/>
      <point x="524" y="1153"/>
      <point x="539" y="1166"/>
      <point x="567" y="1166" type="curve" smooth="yes"/>
      <point x="593" y="1166"/>
      <point x="608" y="1152"/>
    </contour>
    <contour>
      <point x="426" y="1017" type="line"/>
      <point x="405" y="1017" type="line"/>
      <point x="405" y="1118" type="line"/>
      <point x="398" y="1112"/>
      <point x="384" y="1105"/>
      <point x="376" y="1103" type="curve"/>
      <point x="376" y="1122" type="line"/>
      <point x="385" y="1126"/>
      <point x="401" y="1139"/>
      <point x="405" y="1143" type="curve"/>
      <point x="426" y="1143" type="line"/>
    </contour>
    <contour>
      <point x="685.579" y="934.021" type="line"/>
      <point x="668" y="934" type="line"/>
      <point x="669.926" y="776.654"/>
      <point x="621.343" y="576.919"/>
      <point x="577.029" y="471.939" type="curve" smooth="yes"/>
      <point x="477.636" y="236.477"/>
      <point x="352.346" y="132"/>
      <point x="310.962" y="132" type="curve" smooth="yes"/>
      <point x="217.074" y="132"/>
      <point x="163.566" y="195.042"/>
      <point x="182.765" y="297.305" type="curve"/>
      <point x="182.765" y="297.305"/>
      <point x="275.211" y="789.528"/>
      <point x="327.237" y="1066.84" type="curve"/>
      <point x="356.722" y="1061.31" type="line"/>
      <point x="304.696" y="783.994"/>
      <point x="212.249" y="291.768"/>
      <point x="212.249" y="291.768" type="curve"/>
      <point x="196.259" y="206.592"/>
      <point x="237.046" y="162"/>
      <point x="310.962" y="162" type="curve" smooth="yes"/>
      <point x="330.308" y="162"/>
      <point x="448.882" y="245.503"/>
      <point x="549.391" y="483.606" type="curve" smooth="yes"/>
      <point x="594.711" y="590.968"/>
      <point x="640.493" y="785.815"/>
      <point x="638.006" y="934.981" type="curve"/>
      <point x="619.714" y="933.943" type="line"/>
      <point x="652.715" y="991.101" type="line"/>
    </contour>
  </outline>
</glyph>
<glyph name="uni1207" format="2">
  <advance width="1502"/>
  <unicode hex="1207"/>
  <outline>
    <contour>
      <point x="1488.31" y="1107.92" type="curve" smooth="yes"/>
      <point x="1488.31" y="972.921"/>
      <point x="1386.31" y="860.921"/>
      <point x="1254.31" y="846.921" type="curve"/>
      <point x="1254.31" y="827.921" type="line"/>
      <point x="1197.31" y="860.921" type="line"/>
      <point x="1254.31" y="893.921" type="line"/>
      <point x="1254.31" y="877.921" type="line"/>
      <point x="1369.31" y="891.921"/>
      <point x="1458.31" y="988.918"/>
      <point x="1458.31" y="1107.92" type="curve" smooth="yes"/>
      <point x="1458.31" y="1235.93"/>
      <point x="1354.31" y="1339.92"/>
      <point x="1226.31" y="1339.92" type="curve" smooth="yes"/>
      <point x="1102.31" y="1339.92"/>
      <point x="984.313" y="1239.92"/>
      <point x="984.313" y="1107.92" type="curve"/>
      <point x="954.313" y="1107.92" type="line"/>
      <point x="954.313" y="1258.92"/>
      <point x="1088.31" y="1369.92"/>
      <point x="1226.31" y="1369.92" type="curve" smooth="yes"/>
      <point x="1371.32" y="1369.92"/>
      <point x="1488.31" y="1252.92"/>
    </contour>
    <contour>
      <point x="922.313" y="1120.92" type="curve" smooth="yes"/>
      <point x="922.313" y="1091.92"/>
      <point x="895.313" y="1071.92"/>
      <point x="855.313" y="1045.92" type="curve"/>
      <point x="919.313" y="1045.92" type="line"/>
      <point x="919.313" y="1025.92" type="line"/>
      <point x="834.313" y="1025.92" type="line"/>
      <point x="834.313" y="1043.92" type="line"/>
      <point x="885.313" y="1084.92"/>
      <point x="900.313" y="1103.92"/>
      <point x="900.313" y="1120.92" type="curve" smooth="yes"/>
      <point x="900.313" y="1128.92"/>
      <point x="896.313" y="1140.92"/>
      <point x="881.313" y="1140.92" type="curve" smooth="yes"/>
      <point x="865.313" y="1140.92"/>
      <point x="859.313" y="1127.92"/>
      <point x="858.313" y="1116.92" type="curve"/>
      <point x="836.313" y="1116.92" type="line"/>
      <point x="838.313" y="1142.92"/>
      <point x="853.313" y="1155.92"/>
      <point x="881.313" y="1155.92" type="curve" smooth="yes"/>
      <point x="907.313" y="1155.92"/>
      <point x="922.313" y="1141.92"/>
    </contour>
    <contour>
      <point x="740.313" y="1006.92" type="line"/>
      <point x="719.313" y="1006.92" type="line"/>
      <point x="719.313" y="1107.92" type="line"/>
      <point x="712.313" y="1101.92"/>
      <point x="698.313" y="1094.92"/>
      <point x="690.313" y="1092.92" type="curve"/>
      <point x="690.313" y="1111.92" type="line"/>
      <point x="699.313" y="1115.92"/>
      <point x="715.313" y="1128.92"/>
      <point x="719.313" y="1132.92" type="curve"/>
      <point x="740.313" y="1132.92" type="line"/>
    </contour>
    <contour>
      <point x="1000.31" y="923.92" type="line"/>
      <point x="982.313" y="923.92" type="line"/>
      <point x="984.313" y="766.92"/>
      <point x="935.339" y="566.909"/>
      <point x="891.313" y="461.92" type="curve" smooth="yes"/>
      <point x="792.35" y="225.928"/>
      <point x="666.313" y="121.92"/>
      <point x="625.313" y="121.92" type="curve" smooth="yes"/>
      <point x="531.313" y="121.92"/>
      <point x="478.239" y="184.93"/>
      <point x="497.313" y="286.92" type="curve"/>
      <point x="497.313" y="286.92"/>
      <point x="589.313" y="779.92"/>
      <point x="641.313" y="1056.92" type="curve"/>
      <point x="671.313" y="1050.92" type="line"/>
      <point x="619.313" y="773.92"/>
      <point x="526.313" y="281.92"/>
      <point x="526.313" y="281.92" type="curve"/>
      <point x="510.268" y="196.83"/>
      <point x="551.313" y="151.92"/>
      <point x="625.313" y="151.92" type="curve" smooth="yes"/>
      <point x="644.313" y="151.92"/>
      <point x="762.721" y="236.216"/>
      <point x="863.313" y="473.92" type="curve" smooth="yes"/>
      <point x="908.685" y="581.139"/>
      <point x="954.313" y="775.92"/>
      <point x="952.313" y="924.92" type="curve"/>
      <point x="934.313" y="923.92" type="line"/>
      <point x="967.313" y="980.92" type="line"/>
    </contour>
    <contour>
      <point x="362.935" y="882.745" type="line"/>
      <point x="349.935" y="882.745" type="line"/>
      <point x="349.935" y="855.745" type="line"/>
      <point x="328.935" y="855.745" type="line"/>
      <point x="328.935" y="882.745" type="line"/>
      <point x="268.935" y="882.745" type="line"/>
      <point x="268.935" y="907.745" type="line"/>
      <point x="320.935" y="982.745" type="line"/>
      <point x="349.935" y="982.745" type="line"/>
      <point x="349.935" y="901.745" type="line"/>
      <point x="362.935" y="901.745" type="line"/>
    </contour>
    <contour>
      <point x="390.759" y="787.865" type="line"/>
      <point x="90.1775" y="707.985" type="line"/>
      <point x="94.6175" y="691.609" type="line"/>
      <point x="30.9248" y="708.608" type="line"/>
      <point x="77.4145" y="755.097" type="line"/>
      <point x="82.3133" y="737.034" type="line"/>
      <point x="383.181" y="816.947" type="line"/>
    </contour>
    <contour>
      <point x="328.935" y="901.745" type="line"/>
      <point x="328.935" y="966.745" type="line"/>
      <point x="283.935" y="901.745" type="line"/>
    </contour>
  </outline>
</glyph>
<glyph name="uni1208" format="2">
  <advance width="822"/>
  <unicode hex="1208"/>
  <outline>
    <contour>
      <point x="615" y="1368" type="line"/>
      <point x="594" y="1368" type="line"/>
      <point x="594" y="1469" type="line"/>
      <point x="587" y="1463"/>
      <point x="573" y="1456"/>
      <point x="565" y="1454" type="curve"/>
      <point x="565" y="1473" type="line"/>
      <point x="574" y="1477"/>
      <point x="590" y="1490"/>
      <point x="594" y="1494" type="curve"/>
      <point x="615" y="1494" type="line"/>
    </contour>
    <contour>
      <point x="297" y="1339" type="curve" smooth="yes"/>
      <point x="297" y="1310"/>
      <point x="270" y="1290"/>
      <point x="230" y="1264" type="curve"/>
      <point x="294" y="1264" type="line"/>
      <point x="294" y="1244" type="line"/>
      <point x="209" y="1244" type="line"/>
      <point x="209" y="1262" type="line"/>
      <point x="260" y="1303"/>
      <point x="275" y="1322"/>
      <point x="275" y="1339" type="curve" smooth="yes"/>
      <point x="275" y="1347"/>
      <point x="271" y="1359"/>
      <point x="256" y="1359" type="curve" smooth="yes"/>
      <point x="240" y="1359"/>
      <point x="234" y="1346"/>
      <point x="233" y="1335" type="curve"/>
      <point x="211" y="1335" type="line"/>
      <point x="213" y="1361"/>
      <point x="228" y="1374"/>
      <point x="256" y="1374" type="curve" smooth="yes"/>
      <point x="282" y="1374"/>
      <point x="297" y="1360"/>
    </contour>
    <contour>
      <point x="829" y="57" type="line"/>
      <point x="796" y="0" type="line"/>
      <point x="763" y="57" type="line"/>
      <point x="782.008" y="57" type="line"/>
      <point x="782.001" y="835" type="line" smooth="yes"/>
      <point x="782" y="968.234"/>
      <point x="658.383" y="1196.2"/>
      <point x="489.732" y="1405.63" type="curve"/>
      <point x="513.097" y="1424.45" type="line"/>
      <point x="681.553" y="1215.26"/>
      <point x="812" y="979.843"/>
      <point x="812.001" y="835" type="curve" smooth="yes"/>
      <point x="812.007" y="57" type="line"/>
    </contour>
    <contour>
      <point x="369.239" y="1219.34" type="line"/>
      <point x="41.6035" y="1027.53"/>
      <point x="0.903767" y="758.23"/>
      <point x="-8.67073" y="416.108" type="curve" smooth="yes"/>
      <point x="-12.1442" y="291.991"/>
      <point x="-9.41153" y="167.093"/>
      <point x="-9.86333" y="57" type="curve"/>
      <point x="9" y="57" type="line"/>
      <point x="-24" y="0" type="line"/>
      <point x="-57" y="57" type="line"/>
      <point x="-39.8622" y="57" type="line"/>
      <point x="-38.9242" y="302.207"/>
      <point x="-55.9445" y="564.254"/>
      <point x="6.567" y="802.738" type="curve" smooth="yes"/>
      <point x="56.034" y="991.457"/>
      <point x="158.882" y="1130.95"/>
      <point x="354.082" y="1245.23" type="curve"/>
    </contour>
  </outline>
</glyph>
<glyph name="uni1209" format="2">
  <advance width="1254"/>
  <unicode hex="1209"/>
  <outline>
    <contour>
      <point x="615" y="1368" type="line"/>
      <point x="594" y="1368" type="line"/>
      <point x="594" y="1469" type="line"/>
      <point x="587" y="1463"/>
      <point x="573" y="1456"/>
      <point x="565" y="1454" type="curve"/>
      <point x="565" y="1473" type="line"/>
      <point x="574" y="1477"/>
      <point x="590" y="1490"/>
      <point x="594" y="1494" type="curve"/>
      <point x="615" y="1494" type="line"/>
    </contour>
    <contour>
      <point x="940" y="905" type="curve" smooth="yes"/>
      <point x="940" y="886"/>
      <point x="926" y="867"/>
      <point x="894" y="867" type="curve" smooth="yes"/>
      <point x="861" y="867"/>
      <point x="853" y="887"/>
      <point x="853" y="903" type="curve"/>
      <point x="875" y="903" type="line"/>
      <point x="875" y="891"/>
      <point x="883" y="883"/>
      <point x="895" y="883" type="curve" smooth="yes"/>
      <point x="907" y="883"/>
      <point x="918" y="891"/>
      <point x="918" y="905" type="curve" smooth="yes"/>
      <point x="918" y="910"/>
      <point x="914" y="927"/>
      <point x="896" y="927" type="curve" smooth="yes"/>
      <point x="885" y="927" type="line"/>
      <point x="885" y="941" type="line"/>
      <point x="913" y="941"/>
      <point x="915" y="953"/>
      <point x="915" y="963" type="curve" smooth="yes"/>
      <point x="915" y="972"/>
      <point x="911" y="982"/>
      <point x="898" y="982" type="curve" smooth="yes"/>
      <point x="884" y="982"/>
      <point x="878" y="976"/>
      <point x="877" y="964" type="curve"/>
      <point x="855" y="964" type="line"/>
      <point x="856" y="986"/>
      <point x="874" y="997"/>
      <point x="897" y="997" type="curve" smooth="yes"/>
      <point x="919" y="997"/>
      <point x="937" y="985"/>
      <point x="937" y="963" type="curve" smooth="yes"/>
      <point x="937" y="944"/>
      <point x="925" y="939"/>
      <point x="914" y="935" type="curve"/>
      <point x="925" y="932"/>
      <point x="940" y="923"/>
    </contour>
    <contour>
      <point x="1120.89" y="822.484" type="line"/>
      <point x="1066.98" y="784.641" type="line"/>
      <point x="1065.6" y="800.506" type="line"/>
      <point x="842.451" y="781.32" type="line"/>
      <point x="839.674" y="811.191" type="line"/>
      <point x="1062.98" y="830.39" type="line"/>
      <point x="1061.23" y="850.391" type="line"/>
    </contour>
    <contour>
      <point x="297" y="1339" type="curve" smooth="yes"/>
      <point x="297" y="1310"/>
      <point x="270" y="1290"/>
      <point x="230" y="1264" type="curve"/>
      <point x="294" y="1264" type="line"/>
      <point x="294" y="1244" type="line"/>
      <point x="209" y="1244" type="line"/>
      <point x="209" y="1262" type="line"/>
      <point x="260" y="1303"/>
      <point x="275" y="1322"/>
      <point x="275" y="1339" type="curve" smooth="yes"/>
      <point x="275" y="1347"/>
      <point x="271" y="1359"/>
      <point x="256" y="1359" type="curve" smooth="yes"/>
      <point x="240" y="1359"/>
      <point x="234" y="1346"/>
      <point x="233" y="1335" type="curve"/>
      <point x="211" y="1335" type="line"/>
      <point x="213" y="1361"/>
      <point x="228" y="1374"/>
      <point x="256" y="1374" type="curve" smooth="yes"/>
      <point x="282" y="1374"/>
      <point x="297" y="1360"/>
    </contour>
    <contour>
      <point x="829" y="57" type="line"/>
      <point x="796" y="0" type="line"/>
      <point x="763" y="57" type="line"/>
      <point x="782.008" y="57" type="line"/>
      <point x="782.001" y="835" type="line" smooth="yes"/>
      <point x="782" y="968.234"/>
      <point x="658.383" y="1196.2"/>
      <point x="489.732" y="1405.63" type="curve"/>
      <point x="513.097" y="1424.45" type="line"/>
      <point x="681.553" y="1215.26"/>
      <point x="812" y="979.843"/>
      <point x="812.001" y="835" type="curve" smooth="yes"/>
      <point x="812.007" y="57" type="line"/>
    </contour>
    <contour>
      <point x="369.239" y="1219.34" type="line"/>
      <point x="41.6035" y="1027.53"/>
      <point x="0.906517" y="758.396"/>
      <point x="-8.67073" y="416.108" type="curve" smooth="yes"/>
      <point x="-12.1452" y="291.927"/>
      <point x="-9.41143" y="167.093"/>
      <point x="-9.86323" y="57" type="curve"/>
      <point x="9" y="57" type="line"/>
      <point x="-24" y="0" type="line"/>
      <point x="-57" y="57" type="line"/>
      <point x="-39.8622" y="57" type="line"/>
      <point x="-38.9242" y="302.207"/>
      <point x="-55.9442" y="564.248"/>
      <point x="6.567" y="802.738" type="curve" smooth="yes"/>
      <point x="56.0307" y="991.449"/>
      <point x="158.882" y="1130.95"/>
      <point x="354.082" y="1245.23" type="curve"/>
    </contour>
  </outline>
</glyph>
<glyph name="uni120A" format="2">
  <advance width="1254"/>
  <unicode hex="120A"/>
  <outline>
    <contour>
      <point x="615" y="1368" type="line"/>
      <point x="594" y="1368" type="line"/>
      <point x="594" y="1469" type="line"/>
      <point x="587" y="1463"/>
      <point x="573" y="1456"/>
      <point x="565" y="1454" type="curve"/>
      <point x="565" y="1473" type="line"/>
      <point x="574" y="1477"/>
      <point x="590" y="1490"/>
      <point x="594" y="1494" type="curve"/>
      <point x="615" y="1494" type="line"/>
    </contour>
    <contour>
      <point x="312" y="1274" type="curve" smooth="yes"/>
      <point x="312" y="1255"/>
      <point x="298" y="1236"/>
      <point x="266" y="1236" type="curve" smooth="yes"/>
      <point x="233" y="1236"/>
      <point x="225" y="1256"/>
      <point x="225" y="1272" type="curve"/>
      <point x="247" y="1272" type="line"/>
      <point x="247" y="1260"/>
      <point x="255" y="1252"/>
      <point x="267" y="1252" type="curve" smooth="yes"/>
      <point x="279" y="1252"/>
      <point x="290" y="1260"/>
      <point x="290" y="1274" type="curve" smooth="yes"/>
      <point x="290" y="1279"/>
      <point x="286" y="1296"/>
      <point x="268" y="1296" type="curve" smooth="yes"/>
      <point x="257" y="1296" type="line"/>
      <point x="257" y="1310" type="line"/>
      <point x="285" y="1310"/>
      <point x="287" y="1322"/>
      <point x="287" y="1332" type="curve" smooth="yes"/>
      <point x="287" y="1341"/>
      <point x="283" y="1351"/>
      <point x="270" y="1351" type="curve" smooth="yes"/>
      <point x="256" y="1351"/>
      <point x="250" y="1345"/>
      <point x="249" y="1333" type="curve"/>
      <point x="227" y="1333" type="line"/>
      <point x="228" y="1355"/>
      <point x="246" y="1366"/>
      <point x="269" y="1366" type="curve" smooth="yes"/>
      <point x="291" y="1366"/>
      <point x="309" y="1354"/>
      <point x="309" y="1332" type="curve" smooth="yes"/>
      <point x="309" y="1313"/>
      <point x="297" y="1308"/>
      <point x="286" y="1304" type="curve"/>
      <point x="297" y="1301"/>
      <point x="312" y="1292"/>
    </contour>
    <contour>
      <point x="829" y="216" type="line"/>
      <point x="796" y="159" type="line"/>
      <point x="763" y="216" type="line"/>
      <point x="782.008" y="216" type="line"/>
      <point x="782.001" y="835" type="line" smooth="yes"/>
      <point x="782" y="968.237"/>
      <point x="658.383" y="1196.2"/>
      <point x="489.732" y="1405.63" type="curve"/>
      <point x="513.098" y="1424.45" type="line"/>
      <point x="681.554" y="1215.26"/>
      <point x="812" y="979.846"/>
      <point x="812.001" y="835" type="curve" smooth="yes"/>
      <point x="812.008" y="216" type="line"/>
    </contour>
    <contour>
      <point x="1132" y="-88" type="line"/>
      <point x="1075" y="-121" type="line"/>
      <point x="1075" y="-102.762" type="line"/>
      <point x="772.007" y="-102.754" type="line"/>
      <point x="772.008" y="-72.7539" type="line"/>
      <point x="1075" y="-72.7626" type="line"/>
      <point x="1075" y="-55" type="line"/>
    </contour>
    <contour>
      <point x="369.239" y="1219.34" type="line"/>
      <point x="41.6035" y="1027.53"/>
      <point x="0.905514" y="758.311"/>
      <point x="-8.67074" y="416.108" type="curve" smooth="yes"/>
      <point x="-12.1445" y="291.968"/>
      <point x="-9.41149" y="167.093"/>
      <point x="-9.86329" y="57" type="curve"/>
      <point x="9" y="57" type="line"/>
      <point x="-24" y="0" type="line"/>
      <point x="-57" y="57" type="line"/>
      <point x="-39.8622" y="57" type="line"/>
      <point x="-38.9242" y="302.207"/>
      <point x="-55.9455" y="564.247"/>
      <point x="6.567" y="802.738" type="curve" smooth="yes"/>
      <point x="56.0318" y="991.45"/>
      <point x="158.881" y="1130.95"/>
      <point x="354.082" y="1245.23" type="curve"/>
    </contour>
    <contour>
      <point x="732" y="-106" type="curve" smooth="yes"/>
      <point x="732" y="-135"/>
      <point x="705" y="-155"/>
      <point x="665" y="-181" type="curve"/>
      <point x="729" y="-181" type="line"/>
      <point x="729" y="-201" type="line"/>
      <point x="644" y="-201" type="line"/>
      <point x="644" y="-183" type="line"/>
      <point x="695" y="-142"/>
      <point x="710" y="-123"/>
      <point x="710" y="-106" type="curve" smooth="yes"/>
      <point x="710" y="-98"/>
      <point x="706" y="-86"/>
      <point x="691" y="-86" type="curve" smooth="yes"/>
      <point x="675" y="-86"/>
      <point x="669" y="-99"/>
      <point x="668" y="-110" type="curve"/>
      <point x="646" y="-110" type="line"/>
      <point x="648" y="-84"/>
      <point x="663" y="-71"/>
      <point x="691" y="-71" type="curve" smooth="yes"/>
      <point x="717" y="-71"/>
      <point x="732" y="-85"/>
    </contour>
  </outline>
</glyph>
<glyph name="uni120B" format="2">
  <advance width="819"/>
  <unicode hex="120B"/>
  <outline>
    <contour>
      <point x="615" y="1368" type="line"/>
      <point x="594" y="1368" type="line"/>
      <point x="594" y="1469" type="line"/>
      <point x="587" y="1463"/>
      <point x="573" y="1456"/>
      <point x="565" y="1454" type="curve"/>
      <point x="565" y="1473" type="line"/>
      <point x="574" y="1477"/>
      <point x="590" y="1490"/>
      <point x="594" y="1494" type="curve"/>
      <point x="615" y="1494" type="line"/>
    </contour>
    <contour>
      <point x="297" y="1339" type="curve" smooth="yes"/>
      <point x="297" y="1310"/>
      <point x="270" y="1290"/>
      <point x="230" y="1264" type="curve"/>
      <point x="294" y="1264" type="line"/>
      <point x="294" y="1244" type="line"/>
      <point x="209" y="1244" type="line"/>
      <point x="209" y="1262" type="line"/>
      <point x="260" y="1303"/>
      <point x="275" y="1322"/>
      <point x="275" y="1339" type="curve" smooth="yes"/>
      <point x="275" y="1347"/>
      <point x="271" y="1359"/>
      <point x="256" y="1359" type="curve" smooth="yes"/>
      <point x="240" y="1359"/>
      <point x="234" y="1346"/>
      <point x="233" y="1335" type="curve"/>
      <point x="211" y="1335" type="line"/>
      <point x="213" y="1361"/>
      <point x="228" y="1374"/>
      <point x="256" y="1374" type="curve" smooth="yes"/>
      <point x="282" y="1374"/>
      <point x="297" y="1360"/>
    </contour>
    <contour>
      <point x="829" y="57" type="line"/>
      <point x="796" y="0" type="line"/>
      <point x="763" y="57" type="line"/>
      <point x="782.008" y="57" type="line"/>
      <point x="782.001" y="835" type="line" smooth="yes"/>
      <point x="782" y="968.234"/>
      <point x="658.383" y="1196.2"/>
      <point x="489.732" y="1405.63" type="curve"/>
      <point x="513.097" y="1424.45" type="line"/>
      <point x="681.553" y="1215.26"/>
      <point x="812" y="979.843"/>
      <point x="812.001" y="835" type="curve" smooth="yes"/>
      <point x="812.007" y="57" type="line"/>
    </contour>
    <contour>
      <point x="369.239" y="1219.34" type="line"/>
      <point x="41.6035" y="1027.53"/>
      <point x="0.904015" y="758.231"/>
      <point x="-8.67074" y="416.108" type="curve"/>
      <point x="10.1925" y="416.108" type="line"/>
      <point x="-22.8075" y="359.108" type="line"/>
      <point x="-55.8075" y="416.108" type="line"/>
      <point x="-38.6697" y="416.108" type="line"/>
      <point x="-35.4422" y="546.944"/>
      <point x="-25.869" y="678.991"/>
      <point x="6.56702" y="802.738" type="curve" smooth="yes"/>
      <point x="56.0263" y="991.43"/>
      <point x="158.882" y="1130.95"/>
      <point x="354.082" y="1245.23" type="curve"/>
    </contour>
  </outline>
</glyph>
<glyph name="uni120C" format="2">
  <advance width="1106"/>
  <unicode hex="120C"/>
  <outline>
    <contour>
      <point x="615" y="1368" type="line"/>
      <point x="594" y="1368" type="line"/>
      <point x="594" y="1469" type="line"/>
      <point x="587" y="1463"/>
      <point x="573" y="1456"/>
      <point x="565" y="1454" type="curve"/>
      <point x="565" y="1473" type="line"/>
      <point x="574" y="1477"/>
      <point x="590" y="1490"/>
      <point x="594" y="1494" type="curve"/>
      <point x="615" y="1494" type="line"/>
    </contour>
    <contour>
      <point x="829" y="526" type="line"/>
      <point x="796" y="469" type="line"/>
      <point x="763" y="526" type="line"/>
      <point x="782.008" y="526" type="line"/>
      <point x="782.001" y="835" type="line" smooth="yes"/>
      <point x="781.998" y="968.235"/>
      <point x="658.383" y="1196.2"/>
      <point x="489.732" y="1405.63" type="curve"/>
      <point x="513.098" y="1424.45" type="line"/>
      <point x="681.553" y="1215.26"/>
      <point x="811.998" y="979.844"/>
      <point x="812.001" y="835" type="curve" smooth="yes"/>
      <point x="812.007" y="526" type="line"/>
    </contour>
    <contour>
      <point x="317" y="1277" type="curve" smooth="yes"/>
      <point x="317" y="1258"/>
      <point x="303" y="1239"/>
      <point x="271" y="1239" type="curve" smooth="yes"/>
      <point x="238" y="1239"/>
      <point x="230" y="1259"/>
      <point x="230" y="1275" type="curve"/>
      <point x="252" y="1275" type="line"/>
      <point x="252" y="1263"/>
      <point x="260" y="1255"/>
      <point x="272" y="1255" type="curve" smooth="yes"/>
      <point x="284" y="1255"/>
      <point x="295" y="1263"/>
      <point x="295" y="1277" type="curve" smooth="yes"/>
      <point x="295" y="1282"/>
      <point x="291" y="1299"/>
      <point x="273" y="1299" type="curve" smooth="yes"/>
      <point x="262" y="1299" type="line"/>
      <point x="262" y="1313" type="line"/>
      <point x="290" y="1313"/>
      <point x="292" y="1325"/>
      <point x="292" y="1335" type="curve" smooth="yes"/>
      <point x="292" y="1344"/>
      <point x="288" y="1354"/>
      <point x="275" y="1354" type="curve" smooth="yes"/>
      <point x="261" y="1354"/>
      <point x="255" y="1348"/>
      <point x="254" y="1336" type="curve"/>
      <point x="232" y="1336" type="line"/>
      <point x="233" y="1358"/>
      <point x="251" y="1369"/>
      <point x="274" y="1369" type="curve" smooth="yes"/>
      <point x="296" y="1369"/>
      <point x="314" y="1357"/>
      <point x="314" y="1335" type="curve" smooth="yes"/>
      <point x="314" y="1316"/>
      <point x="302" y="1311"/>
      <point x="291" y="1307" type="curve"/>
      <point x="302" y="1304"/>
      <point x="317" y="1295"/>
    </contour>
    <contour>
      <point x="1094" y="176" type="curve" smooth="yes"/>
      <point x="1094" y="31.291"/>
      <point x="976.704" y="-86"/>
      <point x="832" y="-86" type="curve" smooth="yes"/>
      <point x="694.384" y="-86"/>
      <point x="559.848" y="24.5198"/>
      <point x="560" y="176.09" type="curve"/>
      <point x="590" y="176.06" type="line"/>
      <point x="589.867" y="43.4663"/>
      <point x="708.464" y="-56"/>
      <point x="832" y="-56" type="curve" smooth="yes"/>
      <point x="960.137" y="-56"/>
      <point x="1064" y="47.8633"/>
      <point x="1064" y="176" type="curve" smooth="yes"/>
      <point x="1064" y="297.737"/>
      <point x="970.234" y="397.563"/>
      <point x="850.992" y="407.227" type="curve"/>
      <point x="851" y="389" type="line"/>
      <point x="794" y="422" type="line"/>
      <point x="851" y="455" type="line"/>
      <point x="850.992" y="437.324" type="line"/>
      <point x="986.818" y="427.59"/>
      <point x="1094" y="314.317"/>
    </contour>
    <contour>
      <point x="369.239" y="1219.34" type="line"/>
      <point x="41.6035" y="1027.53"/>
      <point x="0.905266" y="758.321"/>
      <point x="-8.67073" y="416.108" type="curve" smooth="yes"/>
      <point x="-12.1445" y="291.963"/>
      <point x="-9.41148" y="167.093"/>
      <point x="-9.86328" y="57" type="curve"/>
      <point x="9" y="57" type="line"/>
      <point x="-24" y="0" type="line"/>
      <point x="-57" y="57" type="line"/>
      <point x="-39.8622" y="57" type="line"/>
      <point x="-38.9242" y="302.207"/>
      <point x="-55.945" y="564.247"/>
      <point x="6.567" y="802.738" type="curve" smooth="yes"/>
      <point x="56.0313" y="991.45"/>
      <point x="158.882" y="1130.95"/>
      <point x="354.082" y="1245.23" type="curve"/>
    </contour>
    <contour>
      <point x="544" y="109" type="curve" smooth="yes"/>
      <point x="544" y="80"/>
      <point x="517" y="60"/>
      <point x="477" y="34" type="curve"/>
      <point x="541" y="34" type="line"/>
      <point x="541" y="14" type="line"/>
      <point x="456" y="14" type="line"/>
      <point x="456" y="32" type="line"/>
      <point x="507" y="73"/>
      <point x="522" y="92"/>
      <point x="522" y="109" type="curve" smooth="yes"/>
      <point x="522" y="117"/>
      <point x="518" y="129"/>
      <point x="503" y="129" type="curve" smooth="yes"/>
      <point x="487" y="129"/>
      <point x="481" y="116"/>
      <point x="480" y="105" type="curve"/>
      <point x="458" y="105" type="line"/>
      <point x="460" y="131"/>
      <point x="475" y="144"/>
      <point x="503" y="144" type="curve" smooth="yes"/>
      <point x="529" y="144"/>
      <point x="544" y="130"/>
    </contour>
  </outline>
</glyph>
<glyph name="uni120D" format="2">
  <advance width="822"/>
  <unicode hex="120D"/>
  <outline>
    <contour>
      <point x="615" y="1368" type="line"/>
      <point x="594" y="1368" type="line"/>
      <point x="594" y="1469" type="line"/>
      <point x="587" y="1463"/>
      <point x="573" y="1456"/>
      <point x="565" y="1454" type="curve"/>
      <point x="565" y="1473" type="line"/>
      <point x="574" y="1477"/>
      <point x="590" y="1490"/>
      <point x="594" y="1494" type="curve"/>
      <point x="615" y="1494" type="line"/>
    </contour>
    <contour>
      <point x="297" y="1339" type="curve" smooth="yes"/>
      <point x="297" y="1310"/>
      <point x="270" y="1290"/>
      <point x="230" y="1264" type="curve"/>
      <point x="294" y="1264" type="line"/>
      <point x="294" y="1244" type="line"/>
      <point x="209" y="1244" type="line"/>
      <point x="209" y="1262" type="line"/>
      <point x="260" y="1303"/>
      <point x="275" y="1322"/>
      <point x="275" y="1339" type="curve" smooth="yes"/>
      <point x="275" y="1347"/>
      <point x="271" y="1359"/>
      <point x="256" y="1359" type="curve" smooth="yes"/>
      <point x="240" y="1359"/>
      <point x="234" y="1346"/>
      <point x="233" y="1335" type="curve"/>
      <point x="211" y="1335" type="line"/>
      <point x="213" y="1361"/>
      <point x="228" y="1374"/>
      <point x="256" y="1374" type="curve" smooth="yes"/>
      <point x="282" y="1374"/>
      <point x="297" y="1360"/>
    </contour>
    <contour>
      <point x="829" y="57" type="line"/>
      <point x="796" y="0" type="line"/>
      <point x="763" y="57" type="line"/>
      <point x="782.008" y="57" type="line"/>
      <point x="782.001" y="835" type="line" smooth="yes"/>
      <point x="782" y="968.234"/>
      <point x="658.383" y="1196.2"/>
      <point x="489.732" y="1405.63" type="curve"/>
      <point x="513.097" y="1424.45" type="line"/>
      <point x="681.553" y="1215.26"/>
      <point x="812" y="979.843"/>
      <point x="812.001" y="835" type="curve" smooth="yes"/>
      <point x="812.007" y="57" type="line"/>
    </contour>
    <contour>
      <point x="369.239" y="1219.34" type="line"/>
      <point x="41.6035" y="1027.53"/>
      <point x="0.904015" y="758.231"/>
      <point x="-8.67074" y="416.108" type="curve"/>
      <point x="10.1925" y="416.108" type="line"/>
      <point x="-22.8075" y="359.108" type="line"/>
      <point x="-55.8075" y="416.108" type="line"/>
      <point x="-38.6697" y="416.108" type="line"/>
      <point x="-35.4422" y="546.944"/>
      <point x="-25.8685" y="678.991"/>
      <point x="6.56702" y="802.738" type="curve" smooth="yes"/>
      <point x="56.0258" y="991.43"/>
      <point x="158.882" y="1130.95"/>
      <point x="354.082" y="1245.23" type="curve"/>
    </contour>
    <contour>
      <point x="497" y="173" type="curve" smooth="yes"/>
      <point x="497" y="28.295"/>
      <point x="379.704" y="-89"/>
      <point x="235" y="-89" type="curve" smooth="yes"/>
      <point x="97.384" y="-89"/>
      <point x="-37.1523" y="21.5198"/>
      <point x="-37" y="173.09" type="curve"/>
      <point x="-7" y="173.06" type="line"/>
      <point x="-7.1333" y="40.4663"/>
      <point x="111.46" y="-59"/>
      <point x="235" y="-59" type="curve" smooth="yes"/>
      <point x="363.14" y="-59"/>
      <point x="467" y="44.8635"/>
      <point x="467" y="173" type="curve" smooth="yes"/>
      <point x="467" y="294.737"/>
      <point x="373.234" y="394.563"/>
      <point x="253.992" y="404.227" type="curve"/>
      <point x="254" y="386" type="line"/>
      <point x="197" y="419" type="line"/>
      <point x="254" y="452" type="line"/>
      <point x="253.992" y="434.324" type="line"/>
      <point x="389.818" y="424.59"/>
      <point x="497" y="311.313"/>
    </contour>
    <contour>
      <point x="-15" y="248" type="curve" smooth="yes"/>
      <point x="-15" y="229"/>
      <point x="-29" y="210"/>
      <point x="-61" y="210" type="curve" smooth="yes"/>
      <point x="-94" y="210"/>
      <point x="-102" y="230"/>
      <point x="-102" y="246" type="curve"/>
      <point x="-80" y="246" type="line"/>
      <point x="-80" y="234"/>
      <point x="-72" y="226"/>
      <point x="-60" y="226" type="curve" smooth="yes"/>
      <point x="-48" y="226"/>
      <point x="-37" y="234"/>
      <point x="-37" y="248" type="curve" smooth="yes"/>
      <point x="-37" y="253"/>
      <point x="-41" y="270"/>
      <point x="-59" y="270" type="curve" smooth="yes"/>
      <point x="-70" y="270" type="line"/>
      <point x="-70" y="284" type="line"/>
      <point x="-42" y="284"/>
      <point x="-40" y="296"/>
      <point x="-40" y="306" type="curve" smooth="yes"/>
      <point x="-40" y="315"/>
      <point x="-44" y="325"/>
      <point x="-57" y="325" type="curve" smooth="yes"/>
      <point x="-71" y="325"/>
      <point x="-77" y="319"/>
      <point x="-78" y="307" type="curve"/>
      <point x="-100" y="307" type="line"/>
      <point x="-99" y="329"/>
      <point x="-81" y="340"/>
      <point x="-58" y="340" type="curve" smooth="yes"/>
      <point x="-36" y="340"/>
      <point x="-18" y="328"/>
      <point x="-18" y="306" type="curve" smooth="yes"/>
      <point x="-18" y="287"/>
      <point x="-30" y="282"/>
      <point x="-41" y="278" type="curve"/>
      <point x="-30" y="275"/>
      <point x="-15" y="266"/>
    </contour>
  </outline>
</glyph>
<glyph name="uni120E" format="2">
  <advance width="1426"/>
  <unicode hex="120E"/>
  <outline>
    <contour>
      <point x="615" y="1368" type="line"/>
      <point x="594" y="1368" type="line"/>
      <point x="594" y="1469" type="line"/>
      <point x="587" y="1463"/>
      <point x="573" y="1456"/>
      <point x="565" y="1454" type="curve"/>
      <point x="565" y="1473" type="line"/>
      <point x="574" y="1477"/>
      <point x="590" y="1490"/>
      <point x="594" y="1494" type="curve"/>
      <point x="615" y="1494" type="line"/>
    </contour>
    <contour>
      <point x="1415.05" y="917.382" type="curve" smooth="yes"/>
      <point x="1427.66" y="773.252"/>
      <point x="1321.04" y="646.152"/>
      <point x="1176.88" y="633.543" type="curve" smooth="yes"/>
      <point x="1036.77" y="621.286"/>
      <point x="918.817" y="720.126"/>
      <point x="896.402" y="848.003" type="curve"/>
      <point x="876" y="848" type="line"/>
      <point x="909" y="905" type="line"/>
      <point x="942" y="848" type="line"/>
      <point x="926.908" y="848.003" type="line"/>
      <point x="948.97" y="737.33"/>
      <point x="1052.22" y="652.752"/>
      <point x="1174.27" y="663.428" type="curve" smooth="yes"/>
      <point x="1474.59" y="689.7"/>
      <point x="1446.13" y="1161.05"/>
      <point x="1131.44" y="1136.85" type="curve"/>
      <point x="1131.44" y="1136.85"/>
      <point x="939.825" y="1122.05"/>
      <point x="800.132" y="1111.36" type="curve"/>
      <point x="797.843" y="1141.28" type="line"/>
      <point x="937.527" y="1151.96"/>
      <point x="1129.13" y="1166.76"/>
      <point x="1129.13" y="1166.76" type="curve"/>
      <point x="1278.62" y="1178.25"/>
      <point x="1400.88" y="1079.43"/>
    </contour>
    <contour>
      <point x="813" y="1209" type="curve" smooth="yes"/>
      <point x="813" y="1190"/>
      <point x="799" y="1171"/>
      <point x="767" y="1171" type="curve" smooth="yes"/>
      <point x="734" y="1171"/>
      <point x="726" y="1191"/>
      <point x="726" y="1207" type="curve"/>
      <point x="748" y="1207" type="line"/>
      <point x="748" y="1195"/>
      <point x="756" y="1187"/>
      <point x="768" y="1187" type="curve" smooth="yes"/>
      <point x="780" y="1187"/>
      <point x="791" y="1195"/>
      <point x="791" y="1209" type="curve" smooth="yes"/>
      <point x="791" y="1214"/>
      <point x="787" y="1231"/>
      <point x="769" y="1231" type="curve" smooth="yes"/>
      <point x="758" y="1231" type="line"/>
      <point x="758" y="1245" type="line"/>
      <point x="786" y="1245"/>
      <point x="788" y="1257"/>
      <point x="788" y="1267" type="curve" smooth="yes"/>
      <point x="788" y="1276"/>
      <point x="784" y="1286"/>
      <point x="771" y="1286" type="curve" smooth="yes"/>
      <point x="757" y="1286"/>
      <point x="751" y="1280"/>
      <point x="750" y="1268" type="curve"/>
      <point x="728" y="1268" type="line"/>
      <point x="729" y="1290"/>
      <point x="747" y="1301"/>
      <point x="770" y="1301" type="curve" smooth="yes"/>
      <point x="792" y="1301"/>
      <point x="810" y="1289"/>
      <point x="810" y="1267" type="curve" smooth="yes"/>
      <point x="810" y="1248"/>
      <point x="798" y="1243"/>
      <point x="787" y="1239" type="curve"/>
      <point x="798" y="1236"/>
      <point x="813" y="1227"/>
    </contour>
    <contour>
      <point x="297" y="1339" type="curve" smooth="yes"/>
      <point x="297" y="1310"/>
      <point x="270" y="1290"/>
      <point x="230" y="1264" type="curve"/>
      <point x="294" y="1264" type="line"/>
      <point x="294" y="1244" type="line"/>
      <point x="209" y="1244" type="line"/>
      <point x="209" y="1262" type="line"/>
      <point x="260" y="1303"/>
      <point x="275" y="1322"/>
      <point x="275" y="1339" type="curve" smooth="yes"/>
      <point x="275" y="1347"/>
      <point x="271" y="1359"/>
      <point x="256" y="1359" type="curve" smooth="yes"/>
      <point x="240" y="1359"/>
      <point x="234" y="1346"/>
      <point x="233" y="1335" type="curve"/>
      <point x="211" y="1335" type="line"/>
      <point x="213" y="1361"/>
      <point x="228" y="1374"/>
      <point x="256" y="1374" type="curve" smooth="yes"/>
      <point x="282" y="1374"/>
      <point x="297" y="1360"/>
    </contour>
    <contour>
      <point x="829" y="57" type="line"/>
      <point x="796" y="0" type="line"/>
      <point x="763" y="57" type="line"/>
      <point x="782.008" y="57" type="line"/>
      <point x="782.001" y="835" type="line" smooth="yes"/>
      <point x="782" y="968.234"/>
      <point x="658.383" y="1196.2"/>
      <point x="489.732" y="1405.63" type="curve"/>
      <point x="513.097" y="1424.45" type="line"/>
      <point x="681.553" y="1215.26"/>
      <point x="812" y="979.843"/>
      <point x="812.001" y="835" type="curve" smooth="yes"/>
      <point x="812.007" y="57" type="line"/>
    </contour>
    <contour>
      <point x="369.239" y="1219.34" type="line"/>
      <point x="41.6035" y="1027.53"/>
      <point x="0.906765" y="758.426"/>
      <point x="-8.67074" y="416.108" type="curve" smooth="yes"/>
      <point x="-12.1452" y="291.917"/>
      <point x="-9.41144" y="167.093"/>
      <point x="-9.86324" y="57" type="curve"/>
      <point x="9" y="57" type="line"/>
      <point x="-24" y="0" type="line"/>
      <point x="-57" y="57" type="line"/>
      <point x="-39.8622" y="57" type="line"/>
      <point x="-38.9242" y="302.207"/>
      <point x="-55.9435" y="564.249"/>
      <point x="6.567" y="802.738" type="curve" smooth="yes"/>
      <point x="56.0303" y="991.449"/>
      <point x="158.882" y="1130.95"/>
      <point x="354.082" y="1245.23" type="curve"/>
    </contour>
  </outline>
</glyph>
<glyph name="uni120F" format="2">
  <advance width="1243"/>
  <unicode hex="120F"/>
  <outline>
    <contour>
      <point x="615" y="1368" type="line"/>
      <point x="594" y="1368" type="line"/>
      <point x="594" y="1469" type="line"/>
      <point x="587" y="1463"/>
      <point x="573" y="1456"/>
      <point x="565" y="1454" type="curve"/>
      <point x="565" y="1473" type="line"/>
      <point x="574" y="1477"/>
      <point x="590" y="1490"/>
      <point x="594" y="1494" type="curve"/>
      <point x="615" y="1494" type="line"/>
    </contour>
    <contour>
      <point x="297" y="1339" type="curve" smooth="yes"/>
      <point x="297" y="1310"/>
      <point x="270" y="1290"/>
      <point x="230" y="1264" type="curve"/>
      <point x="294" y="1264" type="line"/>
      <point x="294" y="1244" type="line"/>
      <point x="209" y="1244" type="line"/>
      <point x="209" y="1262" type="line"/>
      <point x="260" y="1303"/>
      <point x="275" y="1322"/>
      <point x="275" y="1339" type="curve" smooth="yes"/>
      <point x="275" y="1347"/>
      <point x="271" y="1359"/>
      <point x="256" y="1359" type="curve" smooth="yes"/>
      <point x="240" y="1359"/>
      <point x="234" y="1346"/>
      <point x="233" y="1335" type="curve"/>
      <point x="211" y="1335" type="line"/>
      <point x="213" y="1361"/>
      <point x="228" y="1374"/>
      <point x="256" y="1374" type="curve" smooth="yes"/>
      <point x="282" y="1374"/>
      <point x="297" y="1360"/>
    </contour>
    <contour>
      <point x="829" y="410.026" type="line"/>
      <point x="796" y="353.026" type="line"/>
      <point x="763" y="410.026" type="line"/>
      <point x="782" y="410.026" type="line"/>
      <point x="782" y="835" type="line" smooth="yes"/>
      <point x="782" y="968.004"/>
      <point x="658" y="1196"/>
      <point x="490" y="1406" type="curve"/>
      <point x="513" y="1424" type="line"/>
      <point x="682" y="1215"/>
      <point x="812" y="980.005"/>
      <point x="812" y="835" type="curve" smooth="yes"/>
      <point x="812" y="410.026" type="line"/>
    </contour>
    <contour>
      <point x="369" y="1219" type="line"/>
      <point x="42" y="1028"/>
      <point x="1" y="758"/>
      <point x="-9" y="416" type="curve"/>
      <point x="10" y="416" type="line"/>
      <point x="-23" y="359" type="line"/>
      <point x="-56" y="416" type="line"/>
      <point x="-39" y="416" type="line"/>
      <point x="-35" y="547"/>
      <point x="-25.6082" y="678.926"/>
      <point x="7" y="803" type="curve" smooth="yes"/>
      <point x="56.367" y="990.84"/>
      <point x="159" y="1131"/>
      <point x="354" y="1245" type="curve"/>
    </contour>
    <contour>
      <point x="1118.46" y="86.515" type="line"/>
      <point x="1061.46" y="53.515" type="line"/>
      <point x="1061.45" y="71.7533" type="line"/>
      <point x="299.06" y="71.761" type="line"/>
      <point x="299.06" y="101.761" type="line"/>
      <point x="1061.45" y="101.752" type="line"/>
      <point x="1061.46" y="119.515" type="line"/>
    </contour>
    <contour>
      <point x="247.882" y="56.1945" type="curve" smooth="yes"/>
      <point x="247.882" y="37.1945"/>
      <point x="233.882" y="18.1945"/>
      <point x="201.882" y="18.1945" type="curve" smooth="yes"/>
      <point x="168.882" y="18.1945"/>
      <point x="160.882" y="38.1945"/>
      <point x="160.882" y="54.1945" type="curve"/>
      <point x="182.882" y="54.1945" type="line"/>
      <point x="182.882" y="42.1945"/>
      <point x="190.882" y="34.1945"/>
      <point x="202.882" y="34.1945" type="curve" smooth="yes"/>
      <point x="214.882" y="34.1945"/>
      <point x="225.882" y="42.1945"/>
      <point x="225.882" y="56.1945" type="curve" smooth="yes"/>
      <point x="225.882" y="61.1945"/>
      <point x="221.882" y="78.1945"/>
      <point x="203.882" y="78.1945" type="curve" smooth="yes"/>
      <point x="192.882" y="78.1945" type="line"/>
      <point x="192.882" y="92.1945" type="line"/>
      <point x="220.882" y="92.1945"/>
      <point x="222.882" y="104.194"/>
      <point x="222.882" y="114.194" type="curve" smooth="yes"/>
      <point x="222.882" y="123.194"/>
      <point x="218.882" y="133.194"/>
      <point x="205.882" y="133.194" type="curve" smooth="yes"/>
      <point x="191.882" y="133.194"/>
      <point x="185.882" y="127.194"/>
      <point x="184.882" y="115.194" type="curve"/>
      <point x="162.882" y="115.194" type="line"/>
      <point x="163.882" y="137.194"/>
      <point x="181.882" y="148.194"/>
      <point x="204.882" y="148.194" type="curve" smooth="yes"/>
      <point x="226.882" y="148.194"/>
      <point x="244.882" y="136.194"/>
      <point x="244.882" y="114.194" type="curve" smooth="yes"/>
      <point x="244.882" y="95.1945"/>
      <point x="232.882" y="90.1945"/>
      <point x="221.882" y="86.1945" type="curve"/>
      <point x="232.882" y="83.1945"/>
      <point x="247.882" y="74.1945"/>
    </contour>
  </outline>
</glyph>
<glyph name="uni1211" format="2">
  <advance width="1551"/>
  <unicode hex="1211"/>
  <outline>
    <contour>
      <point x="1442" y="627" type="line"/>
      <point x="1385" y="594" type="line"/>
      <point x="1385" y="612.238" type="line"/>
      <point x="1082.01" y="612.246" type="line"/>
      <point x="1082.01" y="642.246" type="line"/>
      <point x="1385" y="642.237" type="line"/>
      <point x="1385" y="660" type="line"/>
    </contour>
    <contour>
      <point x="1198" y="696" type="line"/>
      <point x="1185" y="696" type="line"/>
      <point x="1185" y="669" type="line"/>
      <point x="1164" y="669" type="line"/>
      <point x="1164" y="696" type="line"/>
      <point x="1104" y="696" type="line"/>
      <point x="1104" y="721" type="line"/>
      <point x="1156" y="796" type="line"/>
      <point x="1185" y="796" type="line"/>
      <point x="1185" y="715" type="line"/>
      <point x="1198" y="715" type="line"/>
    </contour>
    <contour>
      <point x="445" y="1244" type="line"/>
      <point x="424" y="1244" type="line"/>
      <point x="424" y="1345" type="line"/>
      <point x="417" y="1339"/>
      <point x="403" y="1332"/>
      <point x="395" y="1330" type="curve"/>
      <point x="395" y="1349" type="line"/>
      <point x="404" y="1353"/>
      <point x="420" y="1366"/>
      <point x="424" y="1370" type="curve"/>
      <point x="445" y="1370" type="line"/>
    </contour>
    <contour>
      <point x="395" y="1041" type="curve" smooth="yes"/>
      <point x="395" y="1012"/>
      <point x="368" y="992"/>
      <point x="328" y="966" type="curve"/>
      <point x="392" y="966" type="line"/>
      <point x="392" y="946" type="line"/>
      <point x="307" y="946" type="line"/>
      <point x="307" y="964" type="line"/>
      <point x="358" y="1005"/>
      <point x="373" y="1024"/>
      <point x="373" y="1041" type="curve" smooth="yes"/>
      <point x="373" y="1049"/>
      <point x="369" y="1061"/>
      <point x="354" y="1061" type="curve" smooth="yes"/>
      <point x="338" y="1061"/>
      <point x="332" y="1048"/>
      <point x="331" y="1037" type="curve"/>
      <point x="309" y="1037" type="line"/>
      <point x="311" y="1063"/>
      <point x="326" y="1076"/>
      <point x="354" y="1076" type="curve" smooth="yes"/>
      <point x="380" y="1076"/>
      <point x="395" y="1062"/>
    </contour>
    <contour>
      <point x="748" y="547" type="curve" smooth="yes"/>
      <point x="748" y="528"/>
      <point x="734" y="509"/>
      <point x="702" y="509" type="curve" smooth="yes"/>
      <point x="669" y="509"/>
      <point x="661" y="529"/>
      <point x="661" y="545" type="curve"/>
      <point x="683" y="545" type="line"/>
      <point x="683" y="533"/>
      <point x="691" y="525"/>
      <point x="703" y="525" type="curve" smooth="yes"/>
      <point x="715" y="525"/>
      <point x="726" y="533"/>
      <point x="726" y="547" type="curve" smooth="yes"/>
      <point x="726" y="552"/>
      <point x="722" y="569"/>
      <point x="704" y="569" type="curve" smooth="yes"/>
      <point x="693" y="569" type="line"/>
      <point x="693" y="583" type="line"/>
      <point x="721" y="583"/>
      <point x="723" y="595"/>
      <point x="723" y="605" type="curve" smooth="yes"/>
      <point x="723" y="614"/>
      <point x="719" y="624"/>
      <point x="706" y="624" type="curve" smooth="yes"/>
      <point x="692" y="624"/>
      <point x="686" y="618"/>
      <point x="685" y="606" type="curve"/>
      <point x="663" y="606" type="line"/>
      <point x="664" y="628"/>
      <point x="682" y="639"/>
      <point x="705" y="639" type="curve" smooth="yes"/>
      <point x="727" y="639"/>
      <point x="745" y="627"/>
      <point x="745" y="605" type="curve" smooth="yes"/>
      <point x="745" y="586"/>
      <point x="733" y="581"/>
      <point x="722" y="577" type="curve"/>
      <point x="733" y="574"/>
      <point x="748" y="565"/>
    </contour>
    <contour>
      <point x="905" y="57" type="line"/>
      <point x="872" y="0" type="line"/>
      <point x="839" y="57" type="line"/>
      <point x="858.177" y="57" type="line"/>
      <point x="858.179" y="582" type="line" smooth="yes"/>
      <point x="858.179" y="634.901"/>
      <point x="854.54" y="656.258"/>
      <point x="838.564" y="668.054" type="curve" smooth="yes"/>
      <point x="808.038" y="690.593"/>
      <point x="711.579" y="684.362"/>
      <point x="672.666" y="683.373" type="curve"/>
      <point x="671.904" y="713.363" type="line"/>
      <point x="719.213" y="714.566"/>
      <point x="816.37" y="721.733"/>
      <point x="856.386" y="692.187" type="curve" smooth="yes"/>
      <point x="886.727" y="669.784"/>
      <point x="888.18" y="630.524"/>
      <point x="888.18" y="582" type="curve" smooth="yes"/>
      <point x="888.177" y="57" type="line"/>
    </contour>
    <contour>
      <point x="519" y="1360" type="line"/>
      <point x="409.469" y="58.4091" type="line"/>
      <point x="425.359" y="57.0156" type="line"/>
      <point x="387.516" y="3.10831" type="line"/>
      <point x="359.609" y="62.7681" type="line"/>
      <point x="379.585" y="61.0141" type="line"/>
      <point x="489.114" y="1362.62" type="line"/>
    </contour>
    <contour>
      <point x="422.931" y="897.497" type="line"/>
      <point x="115.617" y="840.79"/>
      <point x="-10.9563" y="545.955"/>
      <point x="-9.99425" y="59.9983" type="curve"/>
      <point x="8" y="60" type="line"/>
      <point x="-25" y="3" type="line"/>
      <point x="-58" y="60" type="line"/>
      <point x="-39.9932" y="59.9982" type="line"/>
      <point x="-40.898" y="547.352"/>
      <point x="86.377" y="865.965"/>
      <point x="416.949" y="926.927" type="curve"/>
    </contour>
    <contour>
      <point x="1164" y="715" type="line"/>
      <point x="1164" y="780" type="line"/>
      <point x="1119" y="715" type="line"/>
    </contour>
  </outline>
</glyph>
<glyph name="uni1213" format="2">
  <advance width="1100"/>
  <unicode hex="1213"/>
  <outline>
    <contour>
      <point x="411" y="1244" type="line"/>
      <point x="390" y="1244" type="line"/>
      <point x="390" y="1345" type="line"/>
      <point x="383" y="1339"/>
      <point x="369" y="1332"/>
      <point x="361" y="1330" type="curve"/>
      <point x="361" y="1349" type="line"/>
      <point x="370" y="1353"/>
      <point x="386" y="1366"/>
      <point x="390" y="1370" type="curve"/>
      <point x="411" y="1370" type="line"/>
    </contour>
    <contour>
      <point x="361" y="1041" type="curve" smooth="yes"/>
      <point x="361" y="1012"/>
      <point x="334" y="992"/>
      <point x="294" y="966" type="curve"/>
      <point x="358" y="966" type="line"/>
      <point x="358" y="946" type="line"/>
      <point x="273" y="946" type="line"/>
      <point x="273" y="964" type="line"/>
      <point x="324" y="1005"/>
      <point x="339" y="1024"/>
      <point x="339" y="1041" type="curve" smooth="yes"/>
      <point x="339" y="1049"/>
      <point x="335" y="1061"/>
      <point x="320" y="1061" type="curve" smooth="yes"/>
      <point x="304" y="1061"/>
      <point x="298" y="1048"/>
      <point x="297" y="1037" type="curve"/>
      <point x="275" y="1037" type="line"/>
      <point x="277" y="1063"/>
      <point x="292" y="1076"/>
      <point x="320" y="1076" type="curve" smooth="yes"/>
      <point x="346" y="1076"/>
      <point x="361" y="1062"/>
    </contour>
    <contour>
      <point x="485" y="1360" type="line"/>
      <point x="405.953" y="456.301" type="line"/>
      <point x="421.843" y="454.907" type="line"/>
      <point x="384" y="401" type="line"/>
      <point x="356.093" y="460.66" type="line"/>
      <point x="376.069" y="458.906" type="line"/>
      <point x="455.114" y="1362.61" type="line"/>
    </contour>
    <contour>
      <point x="714" y="547" type="curve" smooth="yes"/>
      <point x="714" y="528"/>
      <point x="700" y="509"/>
      <point x="668" y="509" type="curve" smooth="yes"/>
      <point x="635" y="509"/>
      <point x="627" y="529"/>
      <point x="627" y="545" type="curve"/>
      <point x="649" y="545" type="line"/>
      <point x="649" y="533"/>
      <point x="657" y="525"/>
      <point x="669" y="525" type="curve" smooth="yes"/>
      <point x="681" y="525"/>
      <point x="692" y="533"/>
      <point x="692" y="547" type="curve" smooth="yes"/>
      <point x="692" y="552"/>
      <point x="688" y="569"/>
      <point x="670" y="569" type="curve" smooth="yes"/>
      <point x="659" y="569" type="line"/>
      <point x="659" y="583" type="line"/>
      <point x="687" y="583"/>
      <point x="689" y="595"/>
      <point x="689" y="605" type="curve" smooth="yes"/>
      <point x="689" y="614"/>
      <point x="685" y="624"/>
      <point x="672" y="624" type="curve" smooth="yes"/>
      <point x="658" y="624"/>
      <point x="652" y="618"/>
      <point x="651" y="606" type="curve"/>
      <point x="629" y="606" type="line"/>
      <point x="630" y="628"/>
      <point x="648" y="639"/>
      <point x="671" y="639" type="curve" smooth="yes"/>
      <point x="693" y="639"/>
      <point x="711" y="627"/>
      <point x="711" y="605" type="curve" smooth="yes"/>
      <point x="711" y="586"/>
      <point x="699" y="581"/>
      <point x="688" y="577" type="curve"/>
      <point x="699" y="574"/>
      <point x="714" y="565"/>
    </contour>
    <contour>
      <point x="871" y="57" type="line"/>
      <point x="838" y="0" type="line"/>
      <point x="805" y="57" type="line"/>
      <point x="824.177" y="57" type="line"/>
      <point x="824.179" y="582" type="line" smooth="yes"/>
      <point x="824.179" y="634.901"/>
      <point x="820.54" y="656.258"/>
      <point x="804.564" y="668.054" type="curve" smooth="yes"/>
      <point x="774.038" y="690.593"/>
      <point x="677.579" y="684.362"/>
      <point x="638.666" y="683.373" type="curve"/>
      <point x="637.904" y="713.363" type="line"/>
      <point x="685.213" y="714.566"/>
      <point x="782.37" y="721.733"/>
      <point x="822.386" y="692.187" type="curve" smooth="yes"/>
      <point x="852.727" y="669.784"/>
      <point x="854.18" y="630.524"/>
      <point x="854.18" y="582" type="curve" smooth="yes"/>
      <point x="854.177" y="57" type="line"/>
    </contour>
    <contour>
      <point x="388.931" y="897.497" type="line"/>
      <point x="193.934" y="861.515"/>
      <point x="71.706" y="729.659"/>
      <point x="8.65501" y="513.937" type="curve"/>
      <point x="25.8018" y="508.483" type="line"/>
      <point x="-22.9252" y="464.174" type="line"/>
      <point x="-37.0882" y="528.493" type="line"/>
      <point x="-19.9305" y="523.032" type="line"/>
      <point x="45.092" y="747.881"/>
      <point x="172.428" y="888.104"/>
      <point x="382.95" y="926.928" type="curve"/>
    </contour>
  </outline>
</glyph>
<glyph name="uni1214" format="2">
  <advance width="1401"/>
  <unicode hex="1214"/>
  <outline>
    <contour>
      <point x="445" y="1244" type="line"/>
      <point x="424" y="1244" type="line"/>
      <point x="424" y="1345" type="line"/>
      <point x="417" y="1339"/>
      <point x="403" y="1332"/>
      <point x="395" y="1330" type="curve"/>
      <point x="395" y="1349" type="line"/>
      <point x="404" y="1353"/>
      <point x="420" y="1366"/>
      <point x="424" y="1370" type="curve"/>
      <point x="445" y="1370" type="line"/>
    </contour>
    <contour>
      <point x="395" y="1041" type="curve" smooth="yes"/>
      <point x="395" y="1012"/>
      <point x="368" y="992"/>
      <point x="328" y="966" type="curve"/>
      <point x="392" y="966" type="line"/>
      <point x="392" y="946" type="line"/>
      <point x="307" y="946" type="line"/>
      <point x="307" y="964" type="line"/>
      <point x="358" y="1005"/>
      <point x="373" y="1024"/>
      <point x="373" y="1041" type="curve" smooth="yes"/>
      <point x="373" y="1049"/>
      <point x="369" y="1061"/>
      <point x="354" y="1061" type="curve" smooth="yes"/>
      <point x="338" y="1061"/>
      <point x="332" y="1048"/>
      <point x="331" y="1037" type="curve"/>
      <point x="309" y="1037" type="line"/>
      <point x="311" y="1063"/>
      <point x="326" y="1076"/>
      <point x="354" y="1076" type="curve" smooth="yes"/>
      <point x="380" y="1076"/>
      <point x="395" y="1062"/>
    </contour>
    <contour>
      <point x="1393" y="175" type="curve" smooth="yes"/>
      <point x="1393" y="30.291"/>
      <point x="1275.7" y="-87"/>
      <point x="1131" y="-87" type="curve" smooth="yes"/>
      <point x="993.384" y="-87"/>
      <point x="858.848" y="23.5198"/>
      <point x="859" y="175.09" type="curve"/>
      <point x="889" y="175.06" type="line"/>
      <point x="888.867" y="42.4663"/>
      <point x="1007.46" y="-57"/>
      <point x="1131" y="-57" type="curve" smooth="yes"/>
      <point x="1259.14" y="-57"/>
      <point x="1363" y="46.8633"/>
      <point x="1363" y="175" type="curve" smooth="yes"/>
      <point x="1363" y="296.737"/>
      <point x="1269.23" y="396.563"/>
      <point x="1149.99" y="406.227" type="curve"/>
      <point x="1150" y="388" type="line"/>
      <point x="1093" y="421" type="line"/>
      <point x="1150" y="454" type="line"/>
      <point x="1149.99" y="436.324" type="line"/>
      <point x="1285.82" y="426.59"/>
      <point x="1393" y="313.317"/>
    </contour>
    <contour>
      <point x="905" y="334" type="line"/>
      <point x="872" y="277" type="line"/>
      <point x="839" y="334" type="line"/>
      <point x="858.177" y="334" type="line"/>
      <point x="858.179" y="582" type="line" smooth="yes"/>
      <point x="858.18" y="634.9"/>
      <point x="854.541" y="656.258"/>
      <point x="838.565" y="668.054" type="curve" smooth="yes"/>
      <point x="808.037" y="690.594"/>
      <point x="711.579" y="684.363"/>
      <point x="672.666" y="683.373" type="curve"/>
      <point x="671.904" y="713.363" type="line"/>
      <point x="719.213" y="714.566"/>
      <point x="816.372" y="721.732"/>
      <point x="856.386" y="692.187" type="curve" smooth="yes"/>
      <point x="886.726" y="669.785"/>
      <point x="888.18" y="630.524"/>
      <point x="888.18" y="582" type="curve" smooth="yes"/>
      <point x="888.177" y="334" type="line"/>
    </contour>
    <contour>
      <point x="748" y="547" type="curve" smooth="yes"/>
      <point x="748" y="528"/>
      <point x="734" y="509"/>
      <point x="702" y="509" type="curve" smooth="yes"/>
      <point x="669" y="509"/>
      <point x="661" y="529"/>
      <point x="661" y="545" type="curve"/>
      <point x="683" y="545" type="line"/>
      <point x="683" y="533"/>
      <point x="691" y="525"/>
      <point x="703" y="525" type="curve" smooth="yes"/>
      <point x="715" y="525"/>
      <point x="726" y="533"/>
      <point x="726" y="547" type="curve" smooth="yes"/>
      <point x="726" y="552"/>
      <point x="722" y="569"/>
      <point x="704" y="569" type="curve" smooth="yes"/>
      <point x="693" y="569" type="line"/>
      <point x="693" y="583" type="line"/>
      <point x="721" y="583"/>
      <point x="723" y="595"/>
      <point x="723" y="605" type="curve" smooth="yes"/>
      <point x="723" y="614"/>
      <point x="719" y="624"/>
      <point x="706" y="624" type="curve" smooth="yes"/>
      <point x="692" y="624"/>
      <point x="686" y="618"/>
      <point x="685" y="606" type="curve"/>
      <point x="663" y="606" type="line"/>
      <point x="664" y="628"/>
      <point x="682" y="639"/>
      <point x="705" y="639" type="curve" smooth="yes"/>
      <point x="727" y="639"/>
      <point x="745" y="627"/>
      <point x="745" y="605" type="curve" smooth="yes"/>
      <point x="745" y="586"/>
      <point x="733" y="581"/>
      <point x="722" y="577" type="curve"/>
      <point x="733" y="574"/>
      <point x="748" y="565"/>
    </contour>
    <contour>
      <point x="519" y="1360" type="line"/>
      <point x="409.469" y="58.4091" type="line"/>
      <point x="425.359" y="57.0156" type="line"/>
      <point x="387.516" y="3.10831" type="line"/>
      <point x="359.609" y="62.7681" type="line"/>
      <point x="379.585" y="61.0141" type="line"/>
      <point x="489.114" y="1362.62" type="line"/>
    </contour>
    <contour>
      <point x="830" y="115" type="line"/>
      <point x="817" y="115" type="line"/>
      <point x="817" y="88" type="line"/>
      <point x="796" y="88" type="line"/>
      <point x="796" y="115" type="line"/>
      <point x="736" y="115" type="line"/>
      <point x="736" y="140" type="line"/>
      <point x="788" y="215" type="line"/>
      <point x="817" y="215" type="line"/>
      <point x="817" y="134" type="line"/>
      <point x="830" y="134" type="line"/>
    </contour>
    <contour>
      <point x="422.931" y="897.497" type="line"/>
      <point x="115.617" y="840.79"/>
      <point x="-10.9563" y="545.955"/>
      <point x="-9.99425" y="59.9983" type="curve"/>
      <point x="8" y="60" type="line"/>
      <point x="-25" y="3" type="line"/>
      <point x="-58" y="60" type="line"/>
      <point x="-39.9932" y="59.9982" type="line"/>
      <point x="-40.898" y="547.352"/>
      <point x="86.377" y="865.965"/>
      <point x="416.949" y="926.927" type="curve"/>
    </contour>
    <contour>
      <point x="796" y="134" type="line"/>
      <point x="796" y="199" type="line"/>
      <point x="751" y="134" type="line"/>
    </contour>
  </outline>
</glyph>
<glyph name="uni1215" format="2">
  <advance width="1118"/>
  <unicode hex="1215"/>
  <outline>
    <contour>
      <point x="774" y="1463" type="line"/>
      <point x="761" y="1463" type="line"/>
      <point x="761" y="1436" type="line"/>
      <point x="740" y="1436" type="line"/>
      <point x="740" y="1463" type="line"/>
      <point x="680" y="1463" type="line"/>
      <point x="680" y="1488" type="line"/>
      <point x="732" y="1563" type="line"/>
      <point x="761" y="1563" type="line"/>
      <point x="761" y="1482" type="line"/>
      <point x="774" y="1482" type="line"/>
    </contour>
    <contour>
      <point x="648" y="1520" type="line"/>
      <point x="648" y="1490" type="line"/>
      <point x="258.011" y="1490.01" type="line"/>
      <point x="258.008" y="1472.25" type="line"/>
      <point x="201.008" y="1505.25" type="line"/>
      <point x="258.008" y="1538.25" type="line"/>
      <point x="258.011" y="1520.01" type="line"/>
    </contour>
    <contour>
      <point x="448" y="1151" type="line"/>
      <point x="427" y="1151" type="line"/>
      <point x="427" y="1252" type="line"/>
      <point x="420" y="1246"/>
      <point x="406" y="1239"/>
      <point x="398" y="1237" type="curve"/>
      <point x="398" y="1256" type="line"/>
      <point x="407" y="1260"/>
      <point x="423" y="1273"/>
      <point x="427" y="1277" type="curve"/>
      <point x="448" y="1277" type="line"/>
    </contour>
    <contour>
      <point x="395" y="1041" type="curve" smooth="yes"/>
      <point x="395" y="1012"/>
      <point x="368" y="992"/>
      <point x="328" y="966" type="curve"/>
      <point x="392" y="966" type="line"/>
      <point x="392" y="946" type="line"/>
      <point x="307" y="946" type="line"/>
      <point x="307" y="964" type="line"/>
      <point x="358" y="1005"/>
      <point x="373" y="1024"/>
      <point x="373" y="1041" type="curve" smooth="yes"/>
      <point x="373" y="1049"/>
      <point x="369" y="1061"/>
      <point x="354" y="1061" type="curve" smooth="yes"/>
      <point x="338" y="1061"/>
      <point x="332" y="1048"/>
      <point x="331" y="1037" type="curve"/>
      <point x="309" y="1037" type="line"/>
      <point x="311" y="1063"/>
      <point x="326" y="1076"/>
      <point x="354" y="1076" type="curve" smooth="yes"/>
      <point x="380" y="1076"/>
      <point x="395" y="1062"/>
    </contour>
    <contour>
      <point x="748" y="547" type="curve" smooth="yes"/>
      <point x="748" y="528"/>
      <point x="734" y="509"/>
      <point x="702" y="509" type="curve" smooth="yes"/>
      <point x="669" y="509"/>
      <point x="661" y="529"/>
      <point x="661" y="545" type="curve"/>
      <point x="683" y="545" type="line"/>
      <point x="683" y="533"/>
      <point x="691" y="525"/>
      <point x="703" y="525" type="curve" smooth="yes"/>
      <point x="715" y="525"/>
      <point x="726" y="533"/>
      <point x="726" y="547" type="curve" smooth="yes"/>
      <point x="726" y="552"/>
      <point x="722" y="569"/>
      <point x="704" y="569" type="curve" smooth="yes"/>
      <point x="693" y="569" type="line"/>
      <point x="693" y="583" type="line"/>
      <point x="721" y="583"/>
      <point x="723" y="595"/>
      <point x="723" y="605" type="curve" smooth="yes"/>
      <point x="723" y="614"/>
      <point x="719" y="624"/>
      <point x="706" y="624" type="curve" smooth="yes"/>
      <point x="692" y="624"/>
      <point x="686" y="618"/>
      <point x="685" y="606" type="curve"/>
      <point x="663" y="606" type="line"/>
      <point x="664" y="628"/>
      <point x="682" y="639"/>
      <point x="705" y="639" type="curve" smooth="yes"/>
      <point x="727" y="639"/>
      <point x="745" y="627"/>
      <point x="745" y="605" type="curve" smooth="yes"/>
      <point x="745" y="586"/>
      <point x="733" y="581"/>
      <point x="722" y="577" type="curve"/>
      <point x="733" y="574"/>
      <point x="748" y="565"/>
    </contour>
    <contour>
      <point x="905" y="57" type="line"/>
      <point x="872" y="0" type="line"/>
      <point x="839" y="57" type="line"/>
      <point x="858.177" y="57" type="line"/>
      <point x="858.179" y="582" type="line" smooth="yes"/>
      <point x="858.179" y="634.901"/>
      <point x="854.54" y="656.258"/>
      <point x="838.564" y="668.054" type="curve" smooth="yes"/>
      <point x="808.038" y="690.593"/>
      <point x="711.579" y="684.362"/>
      <point x="672.666" y="683.373" type="curve"/>
      <point x="671.904" y="713.363" type="line"/>
      <point x="719.213" y="714.566"/>
      <point x="816.37" y="721.733"/>
      <point x="856.386" y="692.187" type="curve" smooth="yes"/>
      <point x="886.727" y="669.784"/>
      <point x="888.18" y="630.524"/>
      <point x="888.18" y="582" type="curve" smooth="yes"/>
      <point x="888.177" y="57" type="line"/>
    </contour>
    <contour>
      <point x="513" y="1264" type="line"/>
      <point x="409.469" y="58.4091" type="line"/>
      <point x="425.359" y="57.0156" type="line"/>
      <point x="387.516" y="3.10831" type="line"/>
      <point x="359.609" y="62.7681" type="line"/>
      <point x="379.585" y="61.0141" type="line"/>
      <point x="483.114" y="1266.62" type="line"/>
    </contour>
    <contour>
      <point x="422.931" y="897.497" type="line"/>
      <point x="115.617" y="840.79"/>
      <point x="-10.9563" y="545.955"/>
      <point x="-9.99425" y="59.9983" type="curve"/>
      <point x="8" y="60" type="line"/>
      <point x="-25" y="3" type="line"/>
      <point x="-58" y="60" type="line"/>
      <point x="-39.9932" y="59.9982" type="line"/>
      <point x="-40.898" y="547.352"/>
      <point x="86.377" y="865.965"/>
      <point x="416.949" y="926.927" type="curve"/>
    </contour>
    <contour>
      <point x="740" y="1482" type="line"/>
      <point x="740" y="1547" type="line"/>
      <point x="695" y="1482" type="line"/>
    </contour>
  </outline>
</glyph>
<glyph name="uni1217" format="2">
  <advance width="1523"/>
  <unicode hex="1217"/>
  <outline>
    <contour>
      <point x="411" y="1244" type="line"/>
      <point x="390" y="1244" type="line"/>
      <point x="390" y="1345" type="line"/>
      <point x="383" y="1339"/>
      <point x="369" y="1332"/>
      <point x="361" y="1330" type="curve"/>
      <point x="361" y="1349" type="line"/>
      <point x="370" y="1353"/>
      <point x="386" y="1366"/>
      <point x="390" y="1370" type="curve"/>
      <point x="411" y="1370" type="line"/>
    </contour>
    <contour>
      <point x="361" y="1041" type="curve" smooth="yes"/>
      <point x="361" y="1012"/>
      <point x="334" y="992"/>
      <point x="294" y="966" type="curve"/>
      <point x="358" y="966" type="line"/>
      <point x="358" y="946" type="line"/>
      <point x="273" y="946" type="line"/>
      <point x="273" y="964" type="line"/>
      <point x="324" y="1005"/>
      <point x="339" y="1024"/>
      <point x="339" y="1041" type="curve" smooth="yes"/>
      <point x="339" y="1049"/>
      <point x="335" y="1061"/>
      <point x="320" y="1061" type="curve" smooth="yes"/>
      <point x="304" y="1061"/>
      <point x="298" y="1048"/>
      <point x="297" y="1037" type="curve"/>
      <point x="275" y="1037" type="line"/>
      <point x="277" y="1063"/>
      <point x="292" y="1076"/>
      <point x="320" y="1076" type="curve" smooth="yes"/>
      <point x="346" y="1076"/>
      <point x="361" y="1062"/>
    </contour>
    <contour>
      <point x="485" y="1360" type="line"/>
      <point x="406" y="456" type="line"/>
      <point x="422" y="455" type="line"/>
      <point x="384" y="401" type="line"/>
      <point x="356" y="461" type="line"/>
      <point x="376" y="459" type="line"/>
      <point x="455" y="1363" type="line"/>
    </contour>
    <contour>
      <point x="871" y="397.625" type="line"/>
      <point x="838" y="340.625" type="line"/>
      <point x="805" y="397.625" type="line"/>
      <point x="824" y="397.625" type="line"/>
      <point x="824" y="582" type="line" smooth="yes"/>
      <point x="824" y="635.002"/>
      <point x="821.045" y="656.052"/>
      <point x="805" y="668" type="curve" smooth="yes"/>
      <point x="774.036" y="691.057"/>
      <point x="678" y="684"/>
      <point x="639" y="683" type="curve"/>
      <point x="638" y="713" type="line"/>
      <point x="685" y="715"/>
      <point x="781.659" y="721.544"/>
      <point x="822" y="692" type="curve" smooth="yes"/>
      <point x="852.667" y="669.541"/>
      <point x="854" y="631.002"/>
      <point x="854" y="582" type="curve" smooth="yes"/>
      <point x="854" y="397.624" type="line"/>
    </contour>
    <contour>
      <point x="714" y="547" type="curve" smooth="yes"/>
      <point x="714" y="528"/>
      <point x="700" y="509"/>
      <point x="668" y="509" type="curve" smooth="yes"/>
      <point x="635" y="509"/>
      <point x="627" y="529"/>
      <point x="627" y="545" type="curve"/>
      <point x="649" y="545" type="line"/>
      <point x="649" y="533"/>
      <point x="657" y="525"/>
      <point x="669" y="525" type="curve" smooth="yes"/>
      <point x="681" y="525"/>
      <point x="692" y="533"/>
      <point x="692" y="547" type="curve" smooth="yes"/>
      <point x="692" y="552"/>
      <point x="688" y="569"/>
      <point x="670" y="569" type="curve" smooth="yes"/>
      <point x="659" y="569" type="line"/>
      <point x="659" y="583" type="line"/>
      <point x="687" y="583"/>
      <point x="689" y="595"/>
      <point x="689" y="605" type="curve" smooth="yes"/>
      <point x="689" y="614"/>
      <point x="685" y="624"/>
      <point x="672" y="624" type="curve" smooth="yes"/>
      <point x="658" y="624"/>
      <point x="652" y="618"/>
      <point x="651" y="606" type="curve"/>
      <point x="629" y="606" type="line"/>
      <point x="630" y="628"/>
      <point x="648" y="639"/>
      <point x="671" y="639" type="curve" smooth="yes"/>
      <point x="693" y="639"/>
      <point x="711" y="627"/>
      <point x="711" y="605" type="curve" smooth="yes"/>
      <point x="711" y="586"/>
      <point x="699" y="581"/>
      <point x="688" y="577" type="curve"/>
      <point x="699" y="574"/>
      <point x="714" y="565"/>
    </contour>
    <contour>
      <point x="1421.7" y="86.515" type="line"/>
      <point x="1364.7" y="53.515" type="line"/>
      <point x="1364.69" y="71.7533" type="line"/>
      <point x="602.301" y="71.761" type="line"/>
      <point x="602.302" y="101.761" type="line"/>
      <point x="1364.69" y="101.752" type="line"/>
      <point x="1364.7" y="119.515" type="line"/>
    </contour>
    <contour>
      <point x="389" y="897" type="line"/>
      <point x="194" y="862"/>
      <point x="72" y="730"/>
      <point x="9" y="514" type="curve"/>
      <point x="26" y="508" type="line"/>
      <point x="-23" y="464" type="line"/>
      <point x="-37" y="528" type="line"/>
      <point x="-20" y="523" type="line"/>
      <point x="45" y="748"/>
      <point x="172" y="888"/>
      <point x="383" y="927" type="curve"/>
    </contour>
    <contour>
      <point x="554.149" y="51.395" type="line"/>
      <point x="541.149" y="51.395" type="line"/>
      <point x="541.149" y="24.395" type="line"/>
      <point x="520.149" y="24.395" type="line"/>
      <point x="520.149" y="51.395" type="line"/>
      <point x="460.149" y="51.395" type="line"/>
      <point x="460.149" y="76.395" type="line"/>
      <point x="512.149" y="151.395" type="line"/>
      <point x="541.149" y="151.395" type="line"/>
      <point x="541.149" y="70.395" type="line"/>
      <point x="554.149" y="70.395" type="line"/>
    </contour>
    <contour>
      <point x="520.149" y="70.395" type="line"/>
      <point x="520.149" y="135.395" type="line"/>
      <point x="475.149" y="70.395" type="line"/>
    </contour>
  </outline>
</glyph>
<glyph name="uni1219" format="2">
  <advance width="1754"/>
  <unicode hex="1219"/>
  <outline>
    <contour>
      <point x="1446" y="1004" type="curve" smooth="yes"/>
      <point x="1446" y="985"/>
      <point x="1432" y="966"/>
      <point x="1400" y="966" type="curve" smooth="yes"/>
      <point x="1367" y="966"/>
      <point x="1359" y="986"/>
      <point x="1359" y="1002" type="curve"/>
      <point x="1381" y="1002" type="line"/>
      <point x="1381" y="990"/>
      <point x="1389" y="982"/>
      <point x="1401" y="982" type="curve" smooth="yes"/>
      <point x="1413" y="982"/>
      <point x="1424" y="990"/>
      <point x="1424" y="1004" type="curve" smooth="yes"/>
      <point x="1424" y="1009"/>
      <point x="1420" y="1026"/>
      <point x="1402" y="1026" type="curve" smooth="yes"/>
      <point x="1391" y="1026" type="line"/>
      <point x="1391" y="1040" type="line"/>
      <point x="1419" y="1040"/>
      <point x="1421" y="1052"/>
      <point x="1421" y="1062" type="curve" smooth="yes"/>
      <point x="1421" y="1071"/>
      <point x="1417" y="1081"/>
      <point x="1404" y="1081" type="curve" smooth="yes"/>
      <point x="1390" y="1081"/>
      <point x="1384" y="1075"/>
      <point x="1383" y="1063" type="curve"/>
      <point x="1361" y="1063" type="line"/>
      <point x="1362" y="1085"/>
      <point x="1380" y="1096"/>
      <point x="1403" y="1096" type="curve" smooth="yes"/>
      <point x="1425" y="1096"/>
      <point x="1443" y="1084"/>
      <point x="1443" y="1062" type="curve" smooth="yes"/>
      <point x="1443" y="1043"/>
      <point x="1431" y="1038"/>
      <point x="1420" y="1034" type="curve"/>
      <point x="1431" y="1031"/>
      <point x="1446" y="1022"/>
    </contour>
    <contour>
      <point x="1652" y="929.754" type="line"/>
      <point x="1595" y="896.754" type="line"/>
      <point x="1595" y="914.992" type="line"/>
      <point x="1325" y="915" type="line"/>
      <point x="1325" y="945" type="line"/>
      <point x="1595" y="944.991" type="line"/>
      <point x="1595" y="962.754" type="line"/>
    </contour>
    <contour>
      <point x="912" y="1322" type="curve" smooth="yes"/>
      <point x="912" y="1293"/>
      <point x="885" y="1273"/>
      <point x="845" y="1247" type="curve"/>
      <point x="909" y="1247" type="line"/>
      <point x="909" y="1227" type="line"/>
      <point x="824" y="1227" type="line"/>
      <point x="824" y="1245" type="line"/>
      <point x="875" y="1286"/>
      <point x="890" y="1305"/>
      <point x="890" y="1322" type="curve" smooth="yes"/>
      <point x="890" y="1330"/>
      <point x="886" y="1342"/>
      <point x="871" y="1342" type="curve" smooth="yes"/>
      <point x="855" y="1342"/>
      <point x="849" y="1329"/>
      <point x="848" y="1318" type="curve"/>
      <point x="826" y="1318" type="line"/>
      <point x="828" y="1344"/>
      <point x="843" y="1357"/>
      <point x="871" y="1357" type="curve" smooth="yes"/>
      <point x="897" y="1357"/>
      <point x="912" y="1343"/>
    </contour>
    <contour>
      <point x="628" y="1224" type="line"/>
      <point x="607" y="1224" type="line"/>
      <point x="607" y="1325" type="line"/>
      <point x="600" y="1319"/>
      <point x="586" y="1312"/>
      <point x="578" y="1310" type="curve"/>
      <point x="578" y="1329" type="line"/>
      <point x="587" y="1333"/>
      <point x="603" y="1346"/>
      <point x="607" y="1350" type="curve"/>
      <point x="628" y="1350" type="line"/>
    </contour>
    <contour>
      <point x="1310.98" y="858.617" type="curve" smooth="yes"/>
      <point x="1310.98" y="653.032"/>
      <point x="1237.74" y="364.485"/>
      <point x="978.025" y="348.768" type="curve" smooth="yes"/>
      <point x="843.122" y="340.604"/>
      <point x="678.632" y="369.799"/>
      <point x="664.011" y="534.004" type="curve"/>
      <point x="643" y="534" type="line"/>
      <point x="676" y="591" type="line"/>
      <point x="709" y="534" type="line"/>
      <point x="694.174" y="534.004" type="line"/>
      <point x="709.145" y="390.991"/>
      <point x="859.365" y="371.642"/>
      <point x="976.213" y="378.713" type="curve" smooth="yes"/>
      <point x="1207" y="392.679"/>
      <point x="1280.98" y="651.251"/>
      <point x="1280.98" y="858.617" type="curve" smooth="yes"/>
      <point x="1280.98" y="1078.53"/>
      <point x="1159.98" y="1164.77"/>
      <point x="966.122" y="1168.92" type="curve" smooth="yes"/>
      <point x="919.709" y="1169.92"/>
      <point x="812.814" y="1166.9"/>
      <point x="768.019" y="1165.77" type="curve"/>
      <point x="767.261" y="1195.76" type="line"/>
      <point x="864.115" y="1198.21"/>
      <point x="1023.23" y="1207.8"/>
      <point x="1116.82" y="1175.28" type="curve" smooth="yes"/>
      <point x="1236.37" y="1133.75"/>
      <point x="1310.98" y="1032.09"/>
    </contour>
    <contour>
      <point x="669.005" y="1159.07" type="line"/>
      <point x="336.802" y="1136.97"/>
      <point x="-10" y="1048"/>
      <point x="-10" y="604.158" type="curve" smooth="yes"/>
      <point x="-10" y="272.568"/>
      <point x="515.943" y="275.491"/>
      <point x="584.581" y="445.038" type="curve"/>
      <point x="568.513" y="449.318" type="line"/>
      <point x="615.182" y="495.987" type="line"/>
      <point x="632.153" y="432.347" type="line"/>
      <point x="613.745" y="437.256" type="line"/>
      <point x="537.668" y="233.314"/>
      <point x="-40" y="237.454"/>
      <point x="-40" y="604.158" type="curve" smooth="yes"/>
      <point x="-40" y="1075.89"/>
      <point x="335.011" y="1166.92"/>
      <point x="667.014" y="1189.01" type="curve"/>
    </contour>
  </outline>
</glyph>
<glyph name="uni121A" format="2">
  <advance width="1662"/>
  <unicode hex="121A"/>
  <outline>
    <contour>
      <point x="906.986" y="1570.99" type="curve" smooth="yes"/>
      <point x="906.986" y="1541.99"/>
      <point x="879.986" y="1521.99"/>
      <point x="839.986" y="1495.99" type="curve"/>
      <point x="903.986" y="1495.99" type="line"/>
      <point x="903.986" y="1475.99" type="line"/>
      <point x="818.986" y="1475.99" type="line"/>
      <point x="818.986" y="1493.99" type="line"/>
      <point x="869.986" y="1534.99"/>
      <point x="884.986" y="1553.99"/>
      <point x="884.986" y="1570.99" type="curve" smooth="yes"/>
      <point x="884.986" y="1578.99"/>
      <point x="880.986" y="1590.99"/>
      <point x="865.986" y="1590.99" type="curve" smooth="yes"/>
      <point x="849.986" y="1590.99"/>
      <point x="843.986" y="1577.99"/>
      <point x="842.986" y="1566.99" type="curve"/>
      <point x="820.986" y="1566.99" type="line"/>
      <point x="822.986" y="1592.99"/>
      <point x="837.986" y="1605.99"/>
      <point x="865.986" y="1605.99" type="curve" smooth="yes"/>
      <point x="891.986" y="1605.99"/>
      <point x="906.986" y="1591.99"/>
    </contour>
    <contour>
      <point x="622.986" y="1472.99" type="line"/>
      <point x="601.986" y="1472.99" type="line"/>
      <point x="601.986" y="1573.99" type="line"/>
      <point x="594.986" y="1567.99"/>
      <point x="580.986" y="1560.99"/>
      <point x="572.986" y="1558.99" type="curve"/>
      <point x="572.986" y="1577.99" type="line"/>
      <point x="581.986" y="1581.99"/>
      <point x="597.986" y="1594.99"/>
      <point x="601.986" y="1598.99" type="curve"/>
      <point x="622.986" y="1598.99" type="line"/>
    </contour>
    <contour>
      <point x="1305.97" y="1107.61" type="curve" smooth="yes"/>
      <point x="1305.97" y="901.997"/>
      <point x="1232.75" y="613.477"/>
      <point x="973.012" y="597.76" type="curve" smooth="yes"/>
      <point x="838.114" y="589.596"/>
      <point x="673.618" y="618.79"/>
      <point x="658.997" y="782.996" type="curve"/>
      <point x="637.986" y="782.992" type="line"/>
      <point x="670.986" y="839.992" type="line"/>
      <point x="703.986" y="782.992" type="line"/>
      <point x="689.16" y="782.996" type="line"/>
      <point x="704.131" y="639.983"/>
      <point x="854.351" y="620.634"/>
      <point x="971.199" y="627.705" type="curve" smooth="yes"/>
      <point x="1201.99" y="641.67"/>
      <point x="1275.97" y="900.244"/>
      <point x="1275.97" y="1107.61" type="curve" smooth="yes"/>
      <point x="1275.97" y="1327.52"/>
      <point x="1154.9" y="1413.76"/>
      <point x="961.108" y="1417.91" type="curve" smooth="yes"/>
      <point x="914.712" y="1418.91"/>
      <point x="797.553" y="1415.89"/>
      <point x="752.757" y="1414.76" type="curve"/>
      <point x="752" y="1444.75" type="line"/>
      <point x="848.854" y="1447.2"/>
      <point x="1018.21" y="1456.79"/>
      <point x="1111.81" y="1424.27" type="curve" smooth="yes"/>
      <point x="1231.35" y="1382.74"/>
      <point x="1305.97" y="1281.1"/>
    </contour>
    <contour>
      <point x="965" y="468" type="curve" smooth="yes"/>
      <point x="965" y="449"/>
      <point x="951" y="430"/>
      <point x="919" y="430" type="curve" smooth="yes"/>
      <point x="886" y="430"/>
      <point x="878" y="450"/>
      <point x="878" y="466" type="curve"/>
      <point x="900" y="466" type="line"/>
      <point x="900" y="454"/>
      <point x="908" y="446"/>
      <point x="920" y="446" type="curve" smooth="yes"/>
      <point x="932" y="446"/>
      <point x="943" y="454"/>
      <point x="943" y="468" type="curve" smooth="yes"/>
      <point x="943" y="473"/>
      <point x="939" y="490"/>
      <point x="921" y="490" type="curve" smooth="yes"/>
      <point x="910" y="490" type="line"/>
      <point x="910" y="504" type="line"/>
      <point x="938" y="504"/>
      <point x="940" y="516"/>
      <point x="940" y="526" type="curve" smooth="yes"/>
      <point x="940" y="535"/>
      <point x="936" y="545"/>
      <point x="923" y="545" type="curve" smooth="yes"/>
      <point x="909" y="545"/>
      <point x="903" y="539"/>
      <point x="902" y="527" type="curve"/>
      <point x="880" y="527" type="line"/>
      <point x="881" y="549"/>
      <point x="899" y="560"/>
      <point x="922" y="560" type="curve" smooth="yes"/>
      <point x="944" y="560"/>
      <point x="962" y="548"/>
      <point x="962" y="526" type="curve" smooth="yes"/>
      <point x="962" y="507"/>
      <point x="950" y="502"/>
      <point x="939" y="498" type="curve"/>
      <point x="950" y="495"/>
      <point x="965" y="486"/>
    </contour>
    <contour>
      <point x="663.992" y="1408.07" type="line"/>
      <point x="331.788" y="1385.96"/>
      <point x="-15.0137" y="1297"/>
      <point x="-15.0137" y="853.15" type="curve" smooth="yes"/>
      <point x="-15.0137" y="521.56"/>
      <point x="510.93" y="524.483"/>
      <point x="579.567" y="694.03" type="curve"/>
      <point x="563.499" y="698.31" type="line"/>
      <point x="610.168" y="744.979" type="line"/>
      <point x="627.139" y="681.339" type="line"/>
      <point x="608.731" y="686.248" type="line"/>
      <point x="532.655" y="482.306"/>
      <point x="-45.0138" y="486.509"/>
      <point x="-45.0138" y="853.15" type="curve" smooth="yes"/>
      <point x="-45.0138" y="1324.88"/>
      <point x="329.997" y="1415.91"/>
      <point x="662" y="1438" type="curve"/>
    </contour>
    <contour>
      <point x="1039" y="567" type="line"/>
      <point x="995.822" y="76.3405" type="line"/>
      <point x="1010.97" y="75.8135" type="line"/>
      <point x="976" y="20" type="line"/>
      <point x="945.008" y="78.1145" type="line"/>
      <point x="965.812" y="77.3832" type="line"/>
      <point x="1009.09" y="569.267" type="line"/>
    </contour>
    <contour>
      <point x="1520" y="-88" type="line"/>
      <point x="1463" y="-121" type="line"/>
      <point x="1463" y="-102.762" type="line"/>
      <point x="1160.01" y="-102.754" type="line"/>
      <point x="1160.01" y="-72.7539" type="line"/>
      <point x="1463" y="-72.7626" type="line"/>
      <point x="1463" y="-55" type="line"/>
    </contour>
    <contour>
      <point x="1118" y="-173" type="line"/>
      <point x="1105" y="-173" type="line"/>
      <point x="1105" y="-200" type="line"/>
      <point x="1084" y="-200" type="line"/>
      <point x="1084" y="-173" type="line"/>
      <point x="1024" y="-173" type="line"/>
      <point x="1024" y="-148" type="line"/>
      <point x="1076" y="-73" type="line"/>
      <point x="1105" y="-73" type="line"/>
      <point x="1105" y="-154" type="line"/>
      <point x="1118" y="-154" type="line"/>
    </contour>
    <contour>
      <point x="1084" y="-154" type="line"/>
      <point x="1084" y="-89" type="line"/>
      <point x="1039" y="-154" type="line"/>
    </contour>
  </outline>
</glyph>
<glyph name="uni121B" format="2">
  <advance width="1321"/>
  <unicode hex="121B"/>
  <outline>
    <contour>
      <point x="906.986" y="1570.99" type="curve" smooth="yes"/>
      <point x="906.986" y="1541.99"/>
      <point x="879.986" y="1521.99"/>
      <point x="839.986" y="1495.99" type="curve"/>
      <point x="903.986" y="1495.99" type="line"/>
      <point x="903.986" y="1475.99" type="line"/>
      <point x="818.986" y="1475.99" type="line"/>
      <point x="818.986" y="1493.99" type="line"/>
      <point x="869.986" y="1534.99"/>
      <point x="884.986" y="1553.99"/>
      <point x="884.986" y="1570.99" type="curve" smooth="yes"/>
      <point x="884.986" y="1578.99"/>
      <point x="880.986" y="1590.99"/>
      <point x="865.986" y="1590.99" type="curve" smooth="yes"/>
      <point x="849.986" y="1590.99"/>
      <point x="843.986" y="1577.99"/>
      <point x="842.986" y="1566.99" type="curve"/>
      <point x="820.986" y="1566.99" type="line"/>
      <point x="822.986" y="1592.99"/>
      <point x="837.986" y="1605.99"/>
      <point x="865.986" y="1605.99" type="curve" smooth="yes"/>
      <point x="891.986" y="1605.99"/>
      <point x="906.986" y="1591.99"/>
    </contour>
    <contour>
      <point x="622.986" y="1472.99" type="line"/>
      <point x="601.986" y="1472.99" type="line"/>
      <point x="601.986" y="1573.99" type="line"/>
      <point x="594.986" y="1567.99"/>
      <point x="580.986" y="1560.99"/>
      <point x="572.986" y="1558.99" type="curve"/>
      <point x="572.986" y="1577.99" type="line"/>
      <point x="581.986" y="1581.99"/>
      <point x="597.986" y="1594.99"/>
      <point x="601.986" y="1598.99" type="curve"/>
      <point x="622.986" y="1598.99" type="line"/>
    </contour>
    <contour>
      <point x="1305.97" y="1107.61" type="curve" smooth="yes"/>
      <point x="1305.97" y="902.013"/>
      <point x="1232.75" y="613.478"/>
      <point x="973.012" y="597.76" type="curve" smooth="yes"/>
      <point x="838.113" y="589.596"/>
      <point x="673.618" y="618.79"/>
      <point x="658.997" y="782.996" type="curve"/>
      <point x="637.986" y="782.992" type="line"/>
      <point x="670.986" y="839.992" type="line"/>
      <point x="703.986" y="782.992" type="line"/>
      <point x="689.16" y="782.996" type="line"/>
      <point x="704.131" y="639.983"/>
      <point x="854.351" y="620.634"/>
      <point x="971.199" y="627.705" type="curve" smooth="yes"/>
      <point x="1201.99" y="641.671"/>
      <point x="1275.97" y="900.243"/>
      <point x="1275.97" y="1107.61" type="curve" smooth="yes"/>
      <point x="1275.97" y="1327.52"/>
      <point x="1154.95" y="1413.76"/>
      <point x="961.108" y="1417.91" type="curve" smooth="yes"/>
      <point x="914.7" y="1418.91"/>
      <point x="800.553" y="1415.89"/>
      <point x="755.757" y="1414.76" type="curve"/>
      <point x="755" y="1444.75" type="line"/>
      <point x="851.854" y="1447.2"/>
      <point x="1018.21" y="1456.79"/>
      <point x="1111.81" y="1424.27" type="curve" smooth="yes"/>
      <point x="1231.35" y="1382.74"/>
      <point x="1305.97" y="1281.08"/>
    </contour>
    <contour>
      <point x="982" y="459" type="curve" smooth="yes"/>
      <point x="982" y="440"/>
      <point x="968" y="421"/>
      <point x="936" y="421" type="curve" smooth="yes"/>
      <point x="903" y="421"/>
      <point x="895" y="441"/>
      <point x="895" y="457" type="curve"/>
      <point x="917" y="457" type="line"/>
      <point x="917" y="445"/>
      <point x="925" y="437"/>
      <point x="937" y="437" type="curve" smooth="yes"/>
      <point x="949" y="437"/>
      <point x="960" y="445"/>
      <point x="960" y="459" type="curve" smooth="yes"/>
      <point x="960" y="464"/>
      <point x="956" y="481"/>
      <point x="938" y="481" type="curve" smooth="yes"/>
      <point x="927" y="481" type="line"/>
      <point x="927" y="495" type="line"/>
      <point x="955" y="495"/>
      <point x="957" y="507"/>
      <point x="957" y="517" type="curve" smooth="yes"/>
      <point x="957" y="526"/>
      <point x="953" y="536"/>
      <point x="940" y="536" type="curve" smooth="yes"/>
      <point x="926" y="536"/>
      <point x="920" y="530"/>
      <point x="919" y="518" type="curve"/>
      <point x="897" y="518" type="line"/>
      <point x="898" y="540"/>
      <point x="916" y="551"/>
      <point x="939" y="551" type="curve" smooth="yes"/>
      <point x="961" y="551"/>
      <point x="979" y="539"/>
      <point x="979" y="517" type="curve" smooth="yes"/>
      <point x="979" y="498"/>
      <point x="967" y="493"/>
      <point x="956" y="489" type="curve"/>
      <point x="967" y="486"/>
      <point x="982" y="477"/>
    </contour>
    <contour>
      <point x="663.992" y="1408.07" type="line"/>
      <point x="331.788" y="1385.96"/>
      <point x="-15.0137" y="1297"/>
      <point x="-15.0137" y="853.15" type="curve" smooth="yes"/>
      <point x="-15.0137" y="521.56"/>
      <point x="510.93" y="524.483"/>
      <point x="579.567" y="694.03" type="curve"/>
      <point x="563.499" y="698.31" type="line"/>
      <point x="610.168" y="744.979" type="line"/>
      <point x="627.139" y="681.339" type="line"/>
      <point x="608.731" y="686.248" type="line"/>
      <point x="532.655" y="482.306"/>
      <point x="-45.0138" y="486.493"/>
      <point x="-45.0138" y="853.15" type="curve" smooth="yes"/>
      <point x="-45.0138" y="1324.88"/>
      <point x="329.997" y="1415.91"/>
      <point x="662" y="1438" type="curve"/>
    </contour>
    <contour>
      <point x="1039" y="567" type="line"/>
      <point x="995.822" y="76.3405" type="line"/>
      <point x="1010.97" y="75.8135" type="line"/>
      <point x="976" y="20" type="line"/>
      <point x="945.008" y="78.1145" type="line"/>
      <point x="965.812" y="77.3832" type="line"/>
      <point x="1009.09" y="569.267" type="line"/>
    </contour>
  </outline>
</glyph>
<glyph name="uni121C" format="2">
  <advance width="1524"/>
  <unicode hex="121C"/>
  <outline>
    <contour>
      <point x="906.986" y="1570.99" type="curve" smooth="yes"/>
      <point x="906.986" y="1541.99"/>
      <point x="879.986" y="1521.99"/>
      <point x="839.986" y="1495.99" type="curve"/>
      <point x="903.986" y="1495.99" type="line"/>
      <point x="903.986" y="1475.99" type="line"/>
      <point x="818.986" y="1475.99" type="line"/>
      <point x="818.986" y="1493.99" type="line"/>
      <point x="869.986" y="1534.99"/>
      <point x="884.986" y="1553.99"/>
      <point x="884.986" y="1570.99" type="curve" smooth="yes"/>
      <point x="884.986" y="1578.99"/>
      <point x="880.986" y="1590.99"/>
      <point x="865.986" y="1590.99" type="curve" smooth="yes"/>
      <point x="849.986" y="1590.99"/>
      <point x="843.986" y="1577.99"/>
      <point x="842.986" y="1566.99" type="curve"/>
      <point x="820.986" y="1566.99" type="line"/>
      <point x="822.986" y="1592.99"/>
      <point x="837.986" y="1605.99"/>
      <point x="865.986" y="1605.99" type="curve" smooth="yes"/>
      <point x="891.986" y="1605.99"/>
      <point x="906.986" y="1591.99"/>
    </contour>
    <contour>
      <point x="622.986" y="1472.99" type="line"/>
      <point x="601.986" y="1472.99" type="line"/>
      <point x="601.986" y="1573.99" type="line"/>
      <point x="594.986" y="1567.99"/>
      <point x="580.986" y="1560.99"/>
      <point x="572.986" y="1558.99" type="curve"/>
      <point x="572.986" y="1577.99" type="line"/>
      <point x="581.986" y="1581.99"/>
      <point x="597.986" y="1594.99"/>
      <point x="601.986" y="1598.99" type="curve"/>
      <point x="622.986" y="1598.99" type="line"/>
    </contour>
    <contour>
      <point x="1305.97" y="1107.61" type="curve" smooth="yes"/>
      <point x="1305.97" y="901.986"/>
      <point x="1232.75" y="613.477"/>
      <point x="973.012" y="597.759" type="curve" smooth="yes"/>
      <point x="838.114" y="589.596"/>
      <point x="673.618" y="618.79"/>
      <point x="658.997" y="782.995" type="curve"/>
      <point x="637.986" y="782.992" type="line"/>
      <point x="670.986" y="839.992" type="line"/>
      <point x="703.986" y="782.992" type="line"/>
      <point x="689.16" y="782.995" type="line"/>
      <point x="704.131" y="639.982"/>
      <point x="854.351" y="620.634"/>
      <point x="971.199" y="627.704" type="curve" smooth="yes"/>
      <point x="1201.99" y="641.67"/>
      <point x="1275.97" y="900.244"/>
      <point x="1275.97" y="1107.61" type="curve" smooth="yes"/>
      <point x="1275.97" y="1327.52"/>
      <point x="1154.89" y="1413.76"/>
      <point x="961.108" y="1417.91" type="curve" smooth="yes"/>
      <point x="914.713" y="1418.91"/>
      <point x="802.553" y="1415.89"/>
      <point x="757.757" y="1414.76" type="curve"/>
      <point x="757" y="1444.75" type="line"/>
      <point x="853.854" y="1447.2"/>
      <point x="1018.21" y="1456.79"/>
      <point x="1111.81" y="1424.27" type="curve" smooth="yes"/>
      <point x="1231.35" y="1382.74"/>
      <point x="1305.97" y="1281.11"/>
    </contour>
    <contour>
      <point x="1040" y="559" type="line"/>
      <point x="1019.86" y="355.527" type="line"/>
      <point x="1035" y="355" type="line"/>
      <point x="1000.03" y="299.187" type="line"/>
      <point x="969.042" y="357.301" type="line"/>
      <point x="989.846" y="356.57" type="line"/>
      <point x="1010.09" y="561.267" type="line"/>
    </contour>
    <contour>
      <point x="982" y="459" type="curve" smooth="yes"/>
      <point x="982" y="440"/>
      <point x="968" y="421"/>
      <point x="936" y="421" type="curve" smooth="yes"/>
      <point x="903" y="421"/>
      <point x="895" y="441"/>
      <point x="895" y="457" type="curve"/>
      <point x="917" y="457" type="line"/>
      <point x="917" y="445"/>
      <point x="925" y="437"/>
      <point x="937" y="437" type="curve" smooth="yes"/>
      <point x="949" y="437"/>
      <point x="960" y="445"/>
      <point x="960" y="459" type="curve" smooth="yes"/>
      <point x="960" y="464"/>
      <point x="956" y="481"/>
      <point x="938" y="481" type="curve" smooth="yes"/>
      <point x="927" y="481" type="line"/>
      <point x="927" y="495" type="line"/>
      <point x="955" y="495"/>
      <point x="957" y="507"/>
      <point x="957" y="517" type="curve" smooth="yes"/>
      <point x="957" y="526"/>
      <point x="953" y="536"/>
      <point x="940" y="536" type="curve" smooth="yes"/>
      <point x="926" y="536"/>
      <point x="920" y="530"/>
      <point x="919" y="518" type="curve"/>
      <point x="897" y="518" type="line"/>
      <point x="898" y="540"/>
      <point x="916" y="551"/>
      <point x="939" y="551" type="curve" smooth="yes"/>
      <point x="961" y="551"/>
      <point x="979" y="539"/>
      <point x="979" y="517" type="curve" smooth="yes"/>
      <point x="979" y="498"/>
      <point x="967" y="493"/>
      <point x="956" y="489" type="curve"/>
      <point x="967" y="486"/>
      <point x="982" y="477"/>
    </contour>
    <contour>
      <point x="1508" y="172" type="curve" smooth="yes"/>
      <point x="1508" y="27.653"/>
      <point x="1391.08" y="-90"/>
      <point x="1247" y="-90" type="curve" smooth="yes"/>
      <point x="1020.98" y="-90"/>
      <point x="965.149" y="126"/>
      <point x="987.101" y="265.036" type="curve"/>
      <point x="1016.73" y="260.357" type="line"/>
      <point x="995.602" y="126.513"/>
      <point x="1050.52" y="-60"/>
      <point x="1247" y="-60" type="curve" smooth="yes"/>
      <point x="1374.38" y="-60"/>
      <point x="1478" y="44.0953"/>
      <point x="1478" y="172" type="curve" smooth="yes"/>
      <point x="1478" y="274.417"/>
      <point x="1411.52" y="361.642"/>
      <point x="1319.57" y="392.282" type="curve"/>
      <point x="1313.9" y="376.665" type="line"/>
      <point x="1271.62" y="427.169" type="line"/>
      <point x="1336.47" y="438.684" type="line"/>
      <point x="1329.85" y="420.479" type="line"/>
      <point x="1433.33" y="385.626"/>
      <point x="1508" y="287.37"/>
    </contour>
    <contour>
      <point x="663.992" y="1408.07" type="line"/>
      <point x="331.788" y="1385.96"/>
      <point x="-15.0137" y="1297"/>
      <point x="-15.0137" y="853.15" type="curve" smooth="yes"/>
      <point x="-15.0137" y="521.56"/>
      <point x="510.93" y="524.483"/>
      <point x="579.567" y="694.03" type="curve"/>
      <point x="563.499" y="698.31" type="line"/>
      <point x="610.168" y="744.979" type="line"/>
      <point x="627.139" y="681.339" type="line"/>
      <point x="608.731" y="686.248" type="line"/>
      <point x="532.655" y="482.306"/>
      <point x="-45.0138" y="486.446"/>
      <point x="-45.0138" y="853.15" type="curve" smooth="yes"/>
      <point x="-45.0138" y="1324.88"/>
      <point x="329.997" y="1415.91"/>
      <point x="662" y="1438" type="curve"/>
    </contour>
    <contour>
      <point x="952" y="168" type="line"/>
      <point x="939" y="168" type="line"/>
      <point x="939" y="141" type="line"/>
      <point x="918" y="141" type="line"/>
      <point x="918" y="168" type="line"/>
      <point x="858" y="168" type="line"/>
      <point x="858" y="193" type="line"/>
      <point x="910" y="268" type="line"/>
      <point x="939" y="268" type="line"/>
      <point x="939" y="187" type="line"/>
      <point x="952" y="187" type="line"/>
    </contour>
    <contour>
      <point x="918" y="187" type="line"/>
      <point x="918" y="252" type="line"/>
      <point x="873" y="187" type="line"/>
    </contour>
  </outline>
</glyph>
<glyph name="uni121D" format="2">
  <advance width="1423"/>
  <unicode hex="121D"/>
  <outline>
    <contour>
      <point x="1009.97" y="1570.99" type="curve" smooth="yes"/>
      <point x="1009.97" y="1541.99"/>
      <point x="982.974" y="1521.99"/>
      <point x="942.974" y="1495.99" type="curve"/>
      <point x="1006.97" y="1495.99" type="line"/>
      <point x="1006.97" y="1475.99" type="line"/>
      <point x="921.974" y="1475.99" type="line"/>
      <point x="921.974" y="1493.99" type="line"/>
      <point x="972.974" y="1534.99"/>
      <point x="987.974" y="1553.99"/>
      <point x="987.974" y="1570.99" type="curve" smooth="yes"/>
      <point x="987.974" y="1578.99"/>
      <point x="983.974" y="1590.99"/>
      <point x="968.974" y="1590.99" type="curve" smooth="yes"/>
      <point x="952.974" y="1590.99"/>
      <point x="946.974" y="1577.99"/>
      <point x="945.974" y="1566.99" type="curve"/>
      <point x="923.974" y="1566.99" type="line"/>
      <point x="925.974" y="1592.99"/>
      <point x="940.974" y="1605.99"/>
      <point x="968.974" y="1605.99" type="curve" smooth="yes"/>
      <point x="994.974" y="1605.99"/>
      <point x="1009.97" y="1591.99"/>
    </contour>
    <contour>
      <point x="725.974" y="1472.99" type="line"/>
      <point x="704.974" y="1472.99" type="line"/>
      <point x="704.974" y="1573.99" type="line"/>
      <point x="697.974" y="1567.99"/>
      <point x="683.974" y="1560.99"/>
      <point x="675.974" y="1558.99" type="curve"/>
      <point x="675.974" y="1577.99" type="line"/>
      <point x="684.974" y="1581.99"/>
      <point x="700.974" y="1594.99"/>
      <point x="704.974" y="1598.99" type="curve"/>
      <point x="725.974" y="1598.99" type="line"/>
    </contour>
    <contour>
      <point x="1408.95" y="1107.61" type="curve" smooth="yes"/>
      <point x="1408.95" y="902.008"/>
      <point x="1335.73" y="613.477"/>
      <point x="1076" y="597.759" type="curve" smooth="yes"/>
      <point x="941.102" y="589.596"/>
      <point x="776.606" y="618.79"/>
      <point x="761.985" y="782.995" type="curve"/>
      <point x="740.974" y="782.992" type="line"/>
      <point x="773.974" y="839.992" type="line"/>
      <point x="806.974" y="782.992" type="line"/>
      <point x="792.148" y="782.995" type="line"/>
      <point x="807.119" y="639.982"/>
      <point x="957.339" y="620.634"/>
      <point x="1074.19" y="627.704" type="curve" smooth="yes"/>
      <point x="1304.98" y="641.67"/>
      <point x="1378.95" y="900.243"/>
      <point x="1378.95" y="1107.61" type="curve" smooth="yes"/>
      <point x="1378.95" y="1327.52"/>
      <point x="1257.92" y="1413.76"/>
      <point x="1064.1" y="1417.91" type="curve" smooth="yes"/>
      <point x="1017.69" y="1418.91"/>
      <point x="887.553" y="1415.89"/>
      <point x="842.757" y="1414.76" type="curve"/>
      <point x="842" y="1444.75" type="line"/>
      <point x="938.854" y="1447.2"/>
      <point x="1121.2" y="1456.79"/>
      <point x="1214.8" y="1424.27" type="curve" smooth="yes"/>
      <point x="1334.34" y="1382.74"/>
      <point x="1408.95" y="1281.09"/>
    </contour>
    <contour>
      <point x="766.98" y="1408.07" type="line"/>
      <point x="434.776" y="1385.96"/>
      <point x="87.9745" y="1297"/>
      <point x="87.9745" y="853.15" type="curve" smooth="yes"/>
      <point x="87.9745" y="521.56"/>
      <point x="613.918" y="524.483"/>
      <point x="682.555" y="694.03" type="curve"/>
      <point x="666.487" y="698.31" type="line"/>
      <point x="713.156" y="744.979" type="line"/>
      <point x="730.127" y="681.339" type="line"/>
      <point x="711.719" y="686.248" type="line"/>
      <point x="635.643" y="482.306"/>
      <point x="57.9744" y="486.47"/>
      <point x="57.9744" y="853.15" type="curve" smooth="yes"/>
      <point x="57.9744" y="1324.89"/>
      <point x="432.985" y="1415.91"/>
      <point x="764.988" y="1438" type="curve"/>
    </contour>
    <contour>
      <point x="693" y="402" type="curve" smooth="yes"/>
      <point x="693" y="383"/>
      <point x="679" y="364"/>
      <point x="647" y="364" type="curve" smooth="yes"/>
      <point x="614" y="364"/>
      <point x="606" y="384"/>
      <point x="606" y="400" type="curve"/>
      <point x="628" y="400" type="line"/>
      <point x="628" y="388"/>
      <point x="636" y="380"/>
      <point x="648" y="380" type="curve" smooth="yes"/>
      <point x="660" y="380"/>
      <point x="671" y="388"/>
      <point x="671" y="402" type="curve" smooth="yes"/>
      <point x="671" y="407"/>
      <point x="667" y="424"/>
      <point x="649" y="424" type="curve" smooth="yes"/>
      <point x="638" y="424" type="line"/>
      <point x="638" y="438" type="line"/>
      <point x="666" y="438"/>
      <point x="668" y="450"/>
      <point x="668" y="460" type="curve" smooth="yes"/>
      <point x="668" y="469"/>
      <point x="664" y="479"/>
      <point x="651" y="479" type="curve" smooth="yes"/>
      <point x="637" y="479"/>
      <point x="631" y="473"/>
      <point x="630" y="461" type="curve"/>
      <point x="608" y="461" type="line"/>
      <point x="609" y="483"/>
      <point x="627" y="494"/>
      <point x="650" y="494" type="curve" smooth="yes"/>
      <point x="672" y="494"/>
      <point x="690" y="482"/>
      <point x="690" y="460" type="curve" smooth="yes"/>
      <point x="690" y="441"/>
      <point x="678" y="436"/>
      <point x="667" y="432" type="curve"/>
      <point x="678" y="429"/>
      <point x="693" y="420"/>
    </contour>
    <contour>
      <point x="632" y="551" type="line"/>
      <point x="269.24" y="34.172" type="line"/>
      <point x="282" y="26" type="line"/>
      <point x="223.471" y="-4.196" type="line"/>
      <point x="226.427" y="61.597" type="line"/>
      <point x="243.952" y="50.3647" type="line"/>
      <point x="607.42" y="568.196" type="line"/>
    </contour>
  </outline>
</glyph>
<glyph name="uni121F" format="2">
  <advance width="1673"/>
  <unicode hex="121F"/>
  <outline>
    <contour>
      <point x="907" y="1571" type="curve" smooth="yes"/>
      <point x="907" y="1542"/>
      <point x="880" y="1522"/>
      <point x="840" y="1496" type="curve"/>
      <point x="904" y="1496" type="line"/>
      <point x="904" y="1476" type="line"/>
      <point x="819" y="1476" type="line"/>
      <point x="819" y="1494" type="line"/>
      <point x="870" y="1535"/>
      <point x="885" y="1554"/>
      <point x="885" y="1571" type="curve" smooth="yes"/>
      <point x="885" y="1579"/>
      <point x="881" y="1591"/>
      <point x="866" y="1591" type="curve" smooth="yes"/>
      <point x="850" y="1591"/>
      <point x="844" y="1578"/>
      <point x="843" y="1567" type="curve"/>
      <point x="821" y="1567" type="line"/>
      <point x="823" y="1593"/>
      <point x="838" y="1606"/>
      <point x="866" y="1606" type="curve" smooth="yes"/>
      <point x="892" y="1606"/>
      <point x="907" y="1592"/>
    </contour>
    <contour>
      <point x="623" y="1473" type="line"/>
      <point x="602" y="1473" type="line"/>
      <point x="602" y="1574" type="line"/>
      <point x="595" y="1568"/>
      <point x="581" y="1561"/>
      <point x="573" y="1559" type="curve"/>
      <point x="573" y="1578" type="line"/>
      <point x="582" y="1582"/>
      <point x="598" y="1595"/>
      <point x="602" y="1599" type="curve"/>
      <point x="623" y="1599" type="line"/>
    </contour>
    <contour>
      <point x="1306" y="1108" type="curve" smooth="yes"/>
      <point x="1306" y="901.992"/>
      <point x="1233.06" y="613.142"/>
      <point x="973" y="598" type="curve" smooth="yes"/>
      <point x="837.953" y="590.137"/>
      <point x="674" y="619"/>
      <point x="659" y="783" type="curve"/>
      <point x="638" y="783" type="line"/>
      <point x="671" y="840" type="line"/>
      <point x="704" y="783" type="line"/>
      <point x="689" y="783" type="line"/>
      <point x="704" y="640"/>
      <point x="854.008" y="620.941"/>
      <point x="971" y="628" type="curve" smooth="yes"/>
      <point x="1202" y="641.938"/>
      <point x="1276" y="900"/>
      <point x="1276" y="1108" type="curve" smooth="yes"/>
      <point x="1276" y="1328"/>
      <point x="1154.97" y="1413.96"/>
      <point x="961" y="1418" type="curve" smooth="yes"/>
      <point x="914.987" y="1418.96"/>
      <point x="801" y="1416"/>
      <point x="756" y="1415" type="curve"/>
      <point x="755" y="1445" type="line"/>
      <point x="852" y="1447"/>
      <point x="1017.89" y="1456.7"/>
      <point x="1112" y="1424" type="curve" smooth="yes"/>
      <point x="1230.9" y="1382.69"/>
      <point x="1306" y="1281.01"/>
    </contour>
    <contour>
      <point x="1039" y="567" type="line"/>
      <point x="1019.11" y="376.878" type="line"/>
      <point x="1034.11" y="376.878" type="line"/>
      <point x="999.106" y="320.878" type="line"/>
      <point x="968.106" y="378.878" type="line"/>
      <point x="989.106" y="377.878" type="line"/>
      <point x="1009" y="569" type="line"/>
    </contour>
    <contour>
      <point x="982" y="459" type="curve" smooth="yes"/>
      <point x="982" y="440"/>
      <point x="968" y="421"/>
      <point x="936" y="421" type="curve" smooth="yes"/>
      <point x="903" y="421"/>
      <point x="895" y="441"/>
      <point x="895" y="457" type="curve"/>
      <point x="917" y="457" type="line"/>
      <point x="917" y="445"/>
      <point x="925" y="437"/>
      <point x="937" y="437" type="curve" smooth="yes"/>
      <point x="949" y="437"/>
      <point x="960" y="445"/>
      <point x="960" y="459" type="curve" smooth="yes"/>
      <point x="960" y="464"/>
      <point x="956" y="481"/>
      <point x="938" y="481" type="curve" smooth="yes"/>
      <point x="927" y="481" type="line"/>
      <point x="927" y="495" type="line"/>
      <point x="955" y="495"/>
      <point x="957" y="507"/>
      <point x="957" y="517" type="curve" smooth="yes"/>
      <point x="957" y="526"/>
      <point x="953" y="536"/>
      <point x="940" y="536" type="curve" smooth="yes"/>
      <point x="926" y="536"/>
      <point x="920" y="530"/>
      <point x="919" y="518" type="curve"/>
      <point x="897" y="518" type="line"/>
      <point x="898" y="540"/>
      <point x="916" y="551"/>
      <point x="939" y="551" type="curve" smooth="yes"/>
      <point x="961" y="551"/>
      <point x="979" y="539"/>
      <point x="979" y="517" type="curve" smooth="yes"/>
      <point x="979" y="498"/>
      <point x="967" y="493"/>
      <point x="956" y="489" type="curve"/>
      <point x="967" y="486"/>
      <point x="982" y="477"/>
    </contour>
    <contour>
      <point x="664" y="1408" type="line"/>
      <point x="332" y="1386"/>
      <point x="-15" y="1297.02"/>
      <point x="-15" y="853" type="curve" smooth="yes"/>
      <point x="-15" y="521.928"/>
      <point x="511" y="524"/>
      <point x="580" y="694" type="curve"/>
      <point x="563" y="698" type="line"/>
      <point x="610" y="745" type="line"/>
      <point x="627" y="681" type="line"/>
      <point x="609" y="686" type="line"/>
      <point x="533" y="482"/>
      <point x="-45" y="486.971"/>
      <point x="-45" y="853" type="curve" smooth="yes"/>
      <point x="-45" y="1325.02"/>
      <point x="330" y="1416"/>
      <point x="662" y="1438" type="curve"/>
    </contour>
    <contour>
      <point x="1550.74" y="86.515" type="line"/>
      <point x="1493.74" y="53.515" type="line"/>
      <point x="1493.73" y="71.7533" type="line"/>
      <point x="731.34" y="71.761" type="line"/>
      <point x="731.34" y="101.761" type="line"/>
      <point x="1493.73" y="101.752" type="line"/>
      <point x="1493.74" y="119.515" type="line"/>
    </contour>
    <contour>
      <point x="679.661" y="53.0675" type="line"/>
      <point x="666.661" y="53.0675" type="line"/>
      <point x="666.661" y="26.0675" type="line"/>
      <point x="645.661" y="26.0675" type="line"/>
      <point x="645.661" y="53.0675" type="line"/>
      <point x="585.661" y="53.0675" type="line"/>
      <point x="585.661" y="78.0675" type="line"/>
      <point x="637.661" y="153.068" type="line"/>
      <point x="666.661" y="153.068" type="line"/>
      <point x="666.661" y="72.0675" type="line"/>
      <point x="679.661" y="72.0675" type="line"/>
    </contour>
    <contour>
      <point x="645.661" y="72.0675" type="line"/>
      <point x="645.661" y="137.067" type="line"/>
      <point x="600.661" y="72.0675" type="line"/>
    </contour>
  </outline>
</glyph>
<glyph name="uni1220" format="2">
  <advance width="1362"/>
  <unicode hex="1220"/>
  <outline>
    <contour>
      <point x="909" y="1228" type="curve" smooth="yes"/>
      <point x="909" y="1199"/>
      <point x="882" y="1179"/>
      <point x="842" y="1153" type="curve"/>
      <point x="906" y="1153" type="line"/>
      <point x="906" y="1133" type="line"/>
      <point x="821" y="1133" type="line"/>
      <point x="821" y="1151" type="line"/>
      <point x="872" y="1192"/>
      <point x="887" y="1211"/>
      <point x="887" y="1228" type="curve" smooth="yes"/>
      <point x="887" y="1236"/>
      <point x="883" y="1248"/>
      <point x="868" y="1248" type="curve" smooth="yes"/>
      <point x="852" y="1248"/>
      <point x="846" y="1235"/>
      <point x="845" y="1224" type="curve"/>
      <point x="823" y="1224" type="line"/>
      <point x="825" y="1250"/>
      <point x="840" y="1263"/>
      <point x="868" y="1263" type="curve" smooth="yes"/>
      <point x="894" y="1263"/>
      <point x="909" y="1249"/>
    </contour>
    <contour>
      <point x="1143.46" y="1126.5" type="line"/>
      <point x="1128.33" y="1125.15" type="line"/>
      <point x="1138.32" y="1031.49"/>
      <point x="1131.07" y="941.492"/>
      <point x="1076.79" y="833.569" type="curve" smooth="yes"/>
      <point x="1050.05" y="780.383"/>
      <point x="982.771" y="765.602"/>
      <point x="881.759" y="757.592" type="curve" smooth="yes"/>
      <point x="808.791" y="751.806"/>
      <point x="800.012" y="836.642"/>
      <point x="794.895" y="888.017" type="curve" smooth="yes"/>
      <point x="786.666" y="970.633"/>
      <point x="796.722" y="1065.51"/>
      <point x="796.632" y="1109.01" type="curve"/>
      <point x="826.632" y="1109.08" type="line"/>
      <point x="826.785" y="1034.95"/>
      <point x="809.635" y="880.19"/>
      <point x="840.669" y="812.405" type="curve" smooth="yes"/>
      <point x="848.835" y="794.57"/>
      <point x="859.871" y="785.951"/>
      <point x="879.387" y="787.498" type="curve" smooth="yes"/>
      <point x="984.533" y="795.836"/>
      <point x="1032.03" y="811.323"/>
      <point x="1049.99" y="847.047" type="curve" smooth="yes"/>
      <point x="1101.22" y="948.909"/>
      <point x="1108.05" y="1033.05"/>
      <point x="1098.45" y="1122.5" type="curve"/>
      <point x="1077.85" y="1120.68" type="line"/>
      <point x="1105.75" y="1180.5" type="line"/>
    </contour>
    <contour>
      <point x="367" y="1023" type="line"/>
      <point x="346" y="1023" type="line"/>
      <point x="346" y="1124" type="line"/>
      <point x="339" y="1118"/>
      <point x="325" y="1111"/>
      <point x="317" y="1109" type="curve"/>
      <point x="317" y="1128" type="line"/>
      <point x="326" y="1132"/>
      <point x="342" y="1145"/>
      <point x="346" y="1149" type="curve"/>
      <point x="367" y="1149" type="line"/>
    </contour>
    <contour>
      <point x="625" y="1087" type="line"/>
      <point x="605.454" y="1087" type="line"/>
      <point x="594.251" y="895.902"/>
      <point x="548.801" y="708.759"/>
      <point x="516.191" y="637.222" type="curve" smooth="yes"/>
      <point x="477.464" y="552.264"/>
      <point x="312.529" y="515.823"/>
      <point x="222.374" y="519.129" type="curve" smooth="yes"/>
      <point x="198.265" y="520.012"/>
      <point x="185.887" y="549.065"/>
      <point x="190.323" y="570.096" type="curve" smooth="yes"/>
      <point x="287.557" y="1031.06" type="line"/>
      <point x="316.911" y="1024.87" type="line"/>
      <point x="219.677" y="563.904" type="line" smooth="yes"/>
      <point x="218.886" y="560.152"/>
      <point x="220.568" y="551.913"/>
      <point x="223.58" y="549.165" type="curve"/>
      <point x="301.392" y="546.31"/>
      <point x="456.54" y="578.688"/>
      <point x="488.894" y="649.665" type="curve" smooth="yes"/>
      <point x="519.389" y="716.565"/>
      <point x="564.174" y="898.904"/>
      <point x="575.406" y="1087" type="curve"/>
      <point x="559" y="1087" type="line"/>
      <point x="592" y="1144" type="line"/>
    </contour>
  </outline>
</glyph>
<glyph name="uni1221" format="2">
  <advance width="1746"/>
  <unicode hex="1221"/>
  <outline>
    <contour>
      <point x="1446" y="1111" type="curve" smooth="yes"/>
      <point x="1446" y="1092"/>
      <point x="1432" y="1073"/>
      <point x="1400" y="1073" type="curve" smooth="yes"/>
      <point x="1367" y="1073"/>
      <point x="1359" y="1093"/>
      <point x="1359" y="1109" type="curve"/>
      <point x="1381" y="1109" type="line"/>
      <point x="1381" y="1097"/>
      <point x="1389" y="1089"/>
      <point x="1401" y="1089" type="curve" smooth="yes"/>
      <point x="1413" y="1089"/>
      <point x="1424" y="1097"/>
      <point x="1424" y="1111" type="curve" smooth="yes"/>
      <point x="1424" y="1116"/>
      <point x="1420" y="1133"/>
      <point x="1402" y="1133" type="curve" smooth="yes"/>
      <point x="1391" y="1133" type="line"/>
      <point x="1391" y="1147" type="line"/>
      <point x="1419" y="1147"/>
      <point x="1421" y="1159"/>
      <point x="1421" y="1169" type="curve" smooth="yes"/>
      <point x="1421" y="1178"/>
      <point x="1417" y="1188"/>
      <point x="1404" y="1188" type="curve" smooth="yes"/>
      <point x="1390" y="1188"/>
      <point x="1384" y="1182"/>
      <point x="1383" y="1170" type="curve"/>
      <point x="1361" y="1170" type="line"/>
      <point x="1362" y="1192"/>
      <point x="1380" y="1203"/>
      <point x="1403" y="1203" type="curve" smooth="yes"/>
      <point x="1425" y="1203"/>
      <point x="1443" y="1191"/>
      <point x="1443" y="1169" type="curve" smooth="yes"/>
      <point x="1443" y="1150"/>
      <point x="1431" y="1145"/>
      <point x="1420" y="1141" type="curve"/>
      <point x="1431" y="1138"/>
      <point x="1446" y="1129"/>
    </contour>
    <contour>
      <point x="1655" y="1019" type="line"/>
      <point x="1598" y="986" type="line"/>
      <point x="1598" y="1004.24" type="line"/>
      <point x="1349" y="1004.25" type="line"/>
      <point x="1349" y="1034.25" type="line"/>
      <point x="1598" y="1034.24" type="line"/>
      <point x="1598" y="1052" type="line"/>
    </contour>
    <contour>
      <point x="909" y="1228" type="curve" smooth="yes"/>
      <point x="909" y="1199"/>
      <point x="882" y="1179"/>
      <point x="842" y="1153" type="curve"/>
      <point x="906" y="1153" type="line"/>
      <point x="906" y="1133" type="line"/>
      <point x="821" y="1133" type="line"/>
      <point x="821" y="1151" type="line"/>
      <point x="872" y="1192"/>
      <point x="887" y="1211"/>
      <point x="887" y="1228" type="curve" smooth="yes"/>
      <point x="887" y="1236"/>
      <point x="883" y="1248"/>
      <point x="868" y="1248" type="curve" smooth="yes"/>
      <point x="852" y="1248"/>
      <point x="846" y="1235"/>
      <point x="845" y="1224" type="curve"/>
      <point x="823" y="1224" type="line"/>
      <point x="825" y="1250"/>
      <point x="840" y="1263"/>
      <point x="868" y="1263" type="curve" smooth="yes"/>
      <point x="894" y="1263"/>
      <point x="909" y="1249"/>
    </contour>
    <contour>
      <point x="1143.46" y="1126.5" type="line"/>
      <point x="1128.33" y="1125.15" type="line"/>
      <point x="1138.32" y="1031.49"/>
      <point x="1131.07" y="941.491"/>
      <point x="1076.79" y="833.569" type="curve" smooth="yes"/>
      <point x="1050.05" y="780.383"/>
      <point x="982.765" y="765.602"/>
      <point x="881.759" y="757.592" type="curve" smooth="yes"/>
      <point x="808.793" y="751.807"/>
      <point x="800.012" y="836.642"/>
      <point x="794.895" y="888.017" type="curve" smooth="yes"/>
      <point x="786.665" y="970.641"/>
      <point x="796.722" y="1065.51"/>
      <point x="796.632" y="1109.01" type="curve"/>
      <point x="826.632" y="1109.08" type="line"/>
      <point x="826.785" y="1034.95"/>
      <point x="809.634" y="880.192"/>
      <point x="840.669" y="812.405" type="curve" smooth="yes"/>
      <point x="848.835" y="794.57"/>
      <point x="859.869" y="785.951"/>
      <point x="879.387" y="787.498" type="curve" smooth="yes"/>
      <point x="984.54" y="795.836"/>
      <point x="1032.03" y="811.321"/>
      <point x="1049.99" y="847.047" type="curve" smooth="yes"/>
      <point x="1101.22" y="948.909"/>
      <point x="1108.05" y="1033.05"/>
      <point x="1098.45" y="1122.5" type="curve"/>
      <point x="1077.85" y="1120.68" type="line"/>
      <point x="1105.75" y="1180.5" type="line"/>
    </contour>
    <contour>
      <point x="367" y="1023" type="line"/>
      <point x="346" y="1023" type="line"/>
      <point x="346" y="1124" type="line"/>
      <point x="339" y="1118"/>
      <point x="325" y="1111"/>
      <point x="317" y="1109" type="curve"/>
      <point x="317" y="1128" type="line"/>
      <point x="326" y="1132"/>
      <point x="342" y="1145"/>
      <point x="346" y="1149" type="curve"/>
      <point x="367" y="1149" type="line"/>
    </contour>
    <contour>
      <point x="625" y="1087" type="line"/>
      <point x="605.454" y="1087" type="line"/>
      <point x="594.251" y="895.902"/>
      <point x="548.801" y="708.76"/>
      <point x="516.191" y="637.221" type="curve" smooth="yes"/>
      <point x="477.463" y="552.262"/>
      <point x="312.529" y="515.823"/>
      <point x="222.374" y="519.128" type="curve" smooth="yes"/>
      <point x="198.265" y="520.012"/>
      <point x="185.887" y="549.065"/>
      <point x="190.323" y="570.096" type="curve" smooth="yes"/>
      <point x="287.557" y="1031.06" type="line"/>
      <point x="316.911" y="1024.87" type="line"/>
      <point x="219.677" y="563.904" type="line" smooth="yes"/>
      <point x="218.886" y="560.152"/>
      <point x="220.568" y="551.913"/>
      <point x="223.58" y="549.165" type="curve"/>
      <point x="301.392" y="546.31"/>
      <point x="456.54" y="578.688"/>
      <point x="488.894" y="649.665" type="curve" smooth="yes"/>
      <point x="519.389" y="716.565"/>
      <point x="564.174" y="898.904"/>
      <point x="575.406" y="1087" type="curve"/>
      <point x="559" y="1087" type="line"/>
      <point x="592" y="1144" type="line"/>
    </contour>
  </outline>
</glyph>
